<svg xmlns="http://www.w3.org/2000/svg" xmlns:xlink="http://www.w3.org/1999/xlink" width="1598.68" height="312.00" viewBox="0 0 1598.6819 312.0000">
<defs><defs
     id="defs1">
    <clipPath
       clipPathUnits="userSpaceOnUse"
       id="nirs4all_datasets_clip">
      <path
         d="M 75.196094,-0.47997507 H 381.42019 V 303.18425 H 75.196094 Z"
         id="path1" />
    </clipPath>
  </defs></defs><g transform="translate(28.0,28.0) scale(0.8331102485382658) translate(0,0)"><g
     id="g8"
     transform="translate(-0.25127103,1.1057433)">
    <g
       id="g9">
      <path
         style="fill:#FFBE00;fill-opacity:1;fill-rule:evenodd;stroke:none"
         d="M 1.5315373,35.750606 C 1.5315373,16.791591 16.89074,1.4323885 35.849755,1.4323885 H 269.47762 c 18.91901,0 34.27821,15.3592025 34.27821,34.3182175 V 269.53846 c 0,18.91902 -15.3592,34.27822 -34.27821,34.27822 H 35.849755 c -18.959015,0 -34.3182177,-15.3592 -34.3182177,-34.27822 z"
         id="path2"
         transform="matrix(1.0163665,0,0,1.019436,-1.1937273,-2.5659717)" />
      <path
         style="fill:none;stroke:#ffffff;stroke-width:19.359px;stroke-linecap:butt;stroke-linejoin:miter;stroke-miterlimit:8;stroke-dasharray:none;stroke-opacity:1"
         clip-path="url(#nirs4all_datasets_clip)"
         d="m 78.350886,215.76355 c 4.917688,0.027 13.251861,-0.0312 22.323884,-1.53468 6.67965,-1.47992 11.15942,-3.51981 16.79913,-8.67955 5.6797,-5.15973 10.19947,-8.15957 17.11911,-22.35883 6.95964,-14.15927 19.159,-49.59743 24.47873,-62.67675 5.27972,-13.11932 3.63981,-9.91948 7.31962,-15.83918 3.67981,-5.959687 11.4794,-8.59955 16.51914,-6.839641 5.03974,1.759908 9.39951,4.999741 13.71929,17.319101 4.35977,12.35936 6.23967,27.03859 9.4795,37.67804 3.27983,10.67945 4.39978,18.47904 10.11948,26.35863 5.6797,7.87959 12.48129,8.96263 20.43894,4.99974 6.87614,-5.69367 24.35873,-49.63742 26.59862,-51.67731 2.23988,-2.0399 14.71923,-18.23906 34.23822,6.47966 8.91953,11.39941 25.55867,37.55805 38.79798,52.55727"
         id="path3"
         transform="translate(-78.046472,1.0051295)" />
      <path
         style="fill:#ffffff;fill-opacity:1;fill-rule:evenodd;stroke:none"
         d="m 245.65157,200.51477 c 0,-13.5593 10.99943,-24.55873 24.55873,-24.55873 13.59929,0 24.55872,10.99943 24.55872,24.55873 0,13.59929 -10.95943,24.55872 -24.55872,24.55872 -13.5593,0 -24.55873,-10.95943 -24.55873,-24.55872 z"
         id="path4" />
    </g>
  </g></g>
<path fill="#FFFFFF" d="M352.85830307518876 167.71123472892197V215.0H332.8381672084732V131.37046979865772H352.51301564466235V152.64210704829068H348.59763773463715Q352.6302318188968 141.45981936870805 359.9699896281197 135.56618046088505Q367.3097474373427 129.67254155306208 378.20688804268036 129.67254155306208Q386.9943115234375 129.67254155306208 393.7068588768876 133.46912751677854Q400.4194062303377 137.26571348049498 404.2207630131869 144.63081415163592Q408.02211979603607 151.99591482277685 408.02211979603607 162.7632330772861V215.0H388.0019839293205V165.93726339660236Q388.0019839293205 156.71260666815226 383.5987305506764 151.96406585898174Q379.1954771720323 147.21552504981122 371.1397436359585 147.21552504981122Q365.8970242698721 147.21552504981122 361.7630297360004 149.35696062945678Q357.62903520212876 151.49839620910234 355.2436691386588 156.02360757917364Q352.85830307518876 160.54881894924495 352.85830307518876 167.71123472892197Z M425.733469221896 215.0V131.37046979865772H445.75360508861155V215.0ZM435.71502824821727 118.93358719588926Q430.60227624265934 118.93358719588926 427.1826816635644 115.6599563642797Q423.76308708446936 112.38632553267013 423.76308708446936 107.55806576790289Q423.76308708446936 102.72416123767826 427.1826816635644 99.47562010080222Q430.60227624265934 96.22707896392616 435.67812201247085 96.22707896392616Q440.8196348517647 96.22707896392616 444.24330213186494 99.47256557504829Q447.66696941196517 102.71805218617044 447.66696941196517 107.59497305416396Q447.66696941196517 112.40799601510066 444.23827390133334 115.67079160549497Q440.8095783907015 118.93358719588926 435.71502824821727 118.93358719588926Z M463.430113517198 215.0V131.37046979865772H482.70265670878774V145.25801010643875H482.96241741820467Q485.2590617135067 138.0513276989828 490.19130564440013 134.30541295813234Q495.1235495752936 130.55949821728188 503.24890710203437 130.55949821728188Q505.24143705432044 130.55949821728188 506.8997679844798 130.66086966495385Q508.55809891463923 130.76224111262582 509.74916992187497 130.8636125602978V148.60303586409395Q508.6436256357487 148.45097869258598 505.9589450503355 148.222892935324Q503.27426446492234 147.99480717806208 500.315554215604 147.99480717806208Q495.608229996854 147.99480717806208 491.7625340813758 150.16157111865562Q487.9168381658976 152.32833505924916 485.6835437749056 156.68563003027998Q483.45024938391356 161.04292500131083 483.45024938391356 167.62877254614094V215.0Z M554.0127814990561 216.98619786204907Q543.8093963008598 216.98619786204907 535.7394953170879 213.7851619029205Q527.6695943333158 210.58412594379195 522.7706301285916 204.36260560310927Q517.8716659238673 198.1410852624266 517.203267879614 189.147738340237H536.9509788564387Q537.6067127202181 195.25211501153524 541.8975062427904 198.62741396091127Q546.1882997653628 202.00271291028733 553.6389851614932 202.00271291028733Q560.8964402986052 202.00271291028733 565.0415232408766 199.14375483365666Q569.186606183148 196.28479675702602 569.186606183148 191.8530199703754Q569.186606183148 188.0706449572672 566.1296760303062 185.7613074795512Q563.0727458774643 183.45197000183515 557.7635250629194 182.35590935009438L543.5021884175754 179.416195371487Q531.5184707948824 176.90096345427852 525.3112049077181 170.8188216036598Q519.1039390205536 164.7366797530411 519.1039390205536 155.25868141123112Q519.1039390205536 147.58949539901425 523.2584765952705 141.80037948301174Q527.4130141699874 136.01126356700922 535.004581323406 132.7832944729184Q542.5961484768246 129.5553253788276 552.8280425820574 129.5553253788276Q562.9648973298553 129.5553253788276 570.6641680211828 132.95593818818162Q578.3634387125104 136.35655099753563 582.769814633363 142.57490529309982Q587.1761905542155 148.793259588664 587.413774446833 157.39378490063967H568.6227021287751Q568.5435074979026 151.82477437473784 564.3255765159657 148.1532834456271Q560.1076455340288 144.48179251651635 553.2841850946413 144.48179251651635Q546.7141532744337 144.48179251651635 542.890605173815 147.4199452240195Q539.0670570731962 150.35809793152265 539.0670570731962 154.63148545642827Q539.0670570731962 158.3853515625 542.0242060514104 160.73428635565227Q544.9813550296245 163.0832211488045 550.1733886718749 164.22363543414428L565.2329747142408 167.33440285497062Q577.6981922124055 169.9573383100881 583.563336714162 175.56273660339764Q589.4284812159185 181.16813489670722 589.4284812159185 190.33886735135277Q589.4284812159185 198.49906587536702 584.889058895239 204.4845780955065Q580.3496365745596 210.47009031564596 572.3478418132602 213.7281440888475Q564.3460470519609 216.98619786204907 554.0127814990561 216.98619786204907Z"/>
<path fill="#E9362D" d="M598.6723082267198 188.54257419253355V172.08929025534815L652.116135892932 96.99999999999999H665.1894080654886V117.84382963244546H657.8767345715536L619.7030360279467 171.54461888818278V171.7091328256082H694.1238702351615V188.54257419253355ZM657.9986283884753 215.0V183.57554726824665V176.09331742869128V96.99999999999999H677.8350466324979V215.0Z"/>
<path fill="#FFFFFF" d="M733.0656548212038 216.3526408150692Q724.7217096725566 216.3526408150692 718.2055731242135 213.5586519177328Q711.6894365758703 210.7646630203964 707.9197692461462 205.17351918060507Q704.1501019164219 199.58237534081377 704.1501019164219 191.26693909920303Q704.1501019164219 184.11724550388004 706.8332212307308 179.47486146248428Q709.5163405450397 174.8324774210885 714.1143854538066 172.05908956847736Q718.7124303625733 169.2857017158662 724.6488616328911 167.83961181640626Q730.5852929032088 166.3935219169463 737.012722184354 165.71561123636744Q744.7833086461828 164.83495766044462 749.3338338762321 164.18081406970953Q753.8843591062814 163.5266704789744 755.8388820161755 162.20253857094167Q757.7934049260696 160.87840666290896 757.7934049260696 158.02421940541106V157.4033265389052Q757.7934049260696 153.80784969457844 755.9719139150325 151.0676835642565Q754.1504229039953 148.32751743393456 750.7339363661388 146.76419685927013Q747.3174498282822 145.2008762846057 742.5118767040688 145.2008762846057Q737.6999714896182 145.2008762846057 734.0237242423448 146.75627449598886Q730.3474769950712 148.31167270737205 728.1933627339818 151.05341460976825Q726.0392484728922 153.79515651216443 725.7224699494022 157.36527599360318H706.5195797504194Q707.0295885329277 149.02769193713297 711.5278377660968 142.82042604996855Q716.0260869992659 136.6131601628041 724.019973898254 133.14285085793307Q732.0138607972419 129.67254155306208 742.9680192166526 129.67254155306208Q751.1091924680159 129.67254155306208 757.5508617017092 131.63815287135589Q763.9925309354026 133.60376418964972 768.4638470336095 137.30373502385694Q772.9351631318162 141.00370585806417 775.2666484243917 146.2289612226038Q777.5981337169673 151.45421658714343 777.5981337169673 157.97350467963506V215.0H757.9644583682885V203.1778231832005H757.6476798447986Q755.6868393456375 206.8999418322672 752.5285667470637 209.89191730678482Q749.3702941484898 212.88389278130242 744.6201920682151 214.6182667981858Q739.8700899879403 216.3526408150692 733.0656548212038 216.3526408150692ZM737.9882701080116 201.54969293991192Q744.4854683895238 201.54969293991192 748.9346511738411 199.17858132996014Q753.3838339581584 196.80746972000838 755.645637256187 192.8540412646812Q757.9074405542156 188.90061280935402 757.9074405542156 184.06337923395554V174.97811549653943Q756.9729497103083 175.5768315462458 755.1593810625524 176.12486187211618Q753.3458124147965 176.67289219798658 750.8527428134175 177.18132520842073Q748.3596732120385 177.68975821885488 745.4484536394975 178.17284836737102Q742.5372340669567 178.65593851588716 739.4581270973154 179.10259739408556Q735.1974327548237 179.70764553402893 731.5940480481856 181.09514184734164Q727.9906633415477 182.48263816065435 725.8112062185402 184.88066840459834Q723.6317490955327 187.27869864854236 723.6317490955327 191.0895825686871Q723.6317490955327 194.3429235266359 725.4025543827338 196.69819041002518Q727.1733596699349 199.05345729341443 730.3981917208473 200.30157511666317Q733.6230237717596 201.54969293991192 737.9882701080116 201.54969293991192Z M815.2757527396183 96.99999999999999V215.0H795.2556168729026V96.99999999999999Z M852.9723970349203 96.99999999999999V215.0H832.9522611682046V96.99999999999999Z M923.9341118524537 159.60180893456376V176.32121467334312H870.987802799916V159.60180893456376Z"/>
<path fill="#FFBE00" d="M974.2608110056626 216.69792824559565Q963.382637669096 216.69792824559565 955.2145022808304 211.22241030699456Q947.046366892565 205.74689236839345 942.5465273863516 195.93784654860528Q938.0466878801383 186.1288007288171 938.0466878801383 173.12821708525587Q938.0466878801383 160.2480011600776 942.5892907469063 150.45320979380767Q947.1318936136744 140.65841842753775 955.2857745484216 135.1654799902999Q963.439655483169 129.67254155306208 974.1467753775166 129.67254155306208Q979.611204907718 129.67254155306208 984.318543627438 131.1598190410025Q989.025882347158 132.64709652894294 992.8224828118446 135.63590595834205Q996.619083276531 138.6247153877412 999.2831918191589 143.2116718881082H999.4130721738674V96.99999999999999H1019.4332080405829V215.0H999.7298506973573V202.2148234322567H999.5999703426488Q996.9896990680054 207.07420482251467 993.1424128794829 210.299007871487Q989.2951266909605 213.5238109204593 984.5244380669305 215.11086958302747Q979.7537494429005 216.69792824559565 974.2608110056626 216.69792824559565ZM978.9711997627411 199.99121568923027Q985.5063905856753 199.99121568923027 990.3531367973992 196.66660246369023Q995.1998830091233 193.34198923815018 997.8608400076027 187.29147883677643Q1000.5217970060821 181.2409684354027 1000.5217970060821 173.12821708525587Q1000.5217970060821 164.96478001127306 997.8608400076027 158.94277851693582Q995.1998830091233 152.92077702259857 990.3531367973992 149.59616379705852Q985.5063905856753 146.27155057151845 978.9711997627411 146.27155057151845Q972.8193179136954 146.27155057151845 968.1483814623531 149.39342090171453Q963.4774450110108 152.51529123191065 960.8798379168413 158.48660700241192Q958.2822308226719 164.45792277291315 958.2822308226719 173.12821708525587Q958.2822308226719 181.74782567376258 960.8798379168413 187.74765035130034Q963.4774450110108 193.7474750288381 968.1483814623531 196.86934535903418Q972.8193179136954 199.99121568923027 978.9711997627411 199.99121568923027Z M1062.673708512479 216.3526408150692Q1054.3297633638317 216.3526408150692 1047.8136268154885 213.5586519177328Q1041.2974902671456 210.7646630203964 1037.5278229374212 205.17351918060507Q1033.758155607697 199.58237534081377 1033.758155607697 191.26693909920303Q1033.758155607697 184.11724550388004 1036.441274922006 179.47486146248428Q1039.124394236315 174.8324774210885 1043.7224391450818 172.05908956847736Q1048.3204840538485 169.2857017158662 1054.2569153241661 167.83961181640626Q1060.193346594484 166.3935219169463 1066.6207758756293 165.71561123636744Q1074.391362337458 164.83495766044462 1078.9418875675074 164.18081406970953Q1083.4924127975567 163.5266704789744 1085.4469357074508 162.20253857094167Q1087.4014586173448 160.87840666290896 1087.4014586173448 158.02421940541106V157.4033265389052Q1087.4014586173448 153.80784969457844 1085.5799676063077 151.0676835642565Q1083.7584765952706 148.32751743393456 1080.341990057414 146.76419685927013Q1076.9255035195574 145.2008762846057 1072.119930395344 145.2008762846057Q1067.3080251808935 145.2008762846057 1063.63177793362 146.75627449598886Q1059.9555306863465 148.31167270737205 1057.8014164252568 151.05341460976825Q1055.6473021641673 153.79515651216443 1055.3305236406775 157.36527599360318H1036.1276334416946Q1036.637642224203 149.02769193713297 1041.135891457372 142.82042604996855Q1045.634140690541 136.6131601628041 1053.6280275895292 133.14285085793307Q1061.6219144885172 129.67254155306208 1072.576072907928 129.67254155306208Q1080.717246159291 129.67254155306208 1087.1589153929845 131.63815287135589Q1093.6005846266778 133.60376418964972 1098.0719007248845 137.30373502385694Q1102.5432168230914 141.00370585806417 1104.8747021156669 146.2289612226038Q1107.2061874082424 151.45421658714343 1107.2061874082424 157.97350467963506V215.0H1087.5725120595637V203.1778231832005H1087.2557335360739Q1085.2948930369128 206.8999418322672 1082.136620438339 209.89191730678482Q1078.978347839765 212.88389278130242 1074.2282457594904 214.6182667981858Q1069.4781436792157 216.3526408150692 1062.673708512479 216.3526408150692ZM1067.596323799287 201.54969293991192Q1074.0935220807992 201.54969293991192 1078.5427048651163 199.17858132996014Q1082.9918876494337 196.80746972000838 1085.2536909474622 192.8540412646812Q1087.5154942454908 188.90061280935402 1087.5154942454908 184.06337923395554V174.97811549653943Q1086.5810034015835 175.5768315462458 1084.7674347538277 176.12486187211618Q1082.9538661060717 176.67289219798658 1080.4607965046928 177.18132520842073Q1077.9677269033139 177.68975821885488 1075.056507330773 178.17284836737102Q1072.145287758232 178.65593851588716 1069.0661807885906 179.10259739408556Q1064.805486446099 179.70764553402893 1061.2021017394609 181.09514184734164Q1057.598717032823 182.48263816065435 1055.4192599098155 184.88066840459834Q1053.2398027868078 187.27869864854236 1053.2398027868078 191.0895825686871Q1053.2398027868078 194.3429235266359 1055.0106080740088 196.69819041002518Q1056.78141336121 199.05345729341443 1060.0062454121226 200.30157511666317Q1063.2310774630348 201.54969293991192 1067.596323799287 201.54969293991192Z M1169.0412913892094 131.37046979865772V147.4372932178062H1117.3559673539746V131.37046979865772ZM1131.9594688876364 108.56241610738255H1151.979604754352V191.02001658190017Q1151.979604754352 195.45176436661075 1153.799505492345 197.19247047373113Q1155.6194062303377 198.93317658085152 1160.4819681666843 198.93317658085152Q1162.4174803048973 198.93317658085152 1164.9437716285656 198.93317658085152Q1167.4700629522338 198.93317658085152 1169.0412913892094 198.93317658085152V215.0Q1166.9537220794884 215.0 1163.6006579507919 215.0Q1160.2475938220953 215.0 1156.991159323878 215.0Q1144.1680482185927 215.0 1138.0637585531144 209.83177695050335Q1131.9594688876364 204.6635539010067 1131.9594688876364 193.92798310350253Z M1207.1247152238884 216.3526408150692Q1198.7807700752412 216.3526408150692 1192.2646335268983 213.5586519177328Q1185.748496978555 210.7646630203964 1181.978829648831 205.17351918060507Q1178.2091623191066 199.58237534081377 1178.2091623191066 191.26693909920303Q1178.2091623191066 184.11724550388004 1180.8922816334157 179.47486146248428Q1183.5754009477246 174.8324774210885 1188.1734458564913 172.05908956847736Q1192.771490765258 169.2857017158662 1198.7079220355758 167.83961181640626Q1204.6443533058934 166.3935219169463 1211.0717825870388 165.71561123636744Q1218.8423690488676 164.83495766044462 1223.3928942789169 164.18081406970953Q1227.9434195089661 163.5266704789744 1229.89794241886 162.20253857094167Q1231.8524653287543 160.87840666290896 1231.8524653287543 158.02421940541106V157.4033265389052Q1231.8524653287543 153.80784969457844 1230.0309743177172 151.0676835642565Q1228.20948330668 148.32751743393456 1224.7929967688235 146.76419685927013Q1221.376510230967 145.2008762846057 1216.5709371067535 145.2008762846057Q1211.759031892303 145.2008762846057 1208.0827846450295 146.75627449598886Q1204.406537397756 148.31167270737205 1202.2524231366665 151.05341460976825Q1200.0983088755768 153.79515651216443 1199.781530352087 157.36527599360318H1180.578640153104Q1181.0886489356126 149.02769193713297 1185.5868981687815 142.82042604996855Q1190.0851474019505 136.6131601628041 1198.0790343009385 133.14285085793307Q1206.0729211999267 129.67254155306208 1217.0270796193374 129.67254155306208Q1225.1682528707006 129.67254155306208 1231.609922104394 131.63815287135589Q1238.0515913380873 133.60376418964972 1242.5229074362942 137.30373502385694Q1246.9942235345009 141.00370585806417 1249.3257088270764 146.2289612226038Q1251.6571941196519 151.45421658714343 1251.6571941196519 157.97350467963506V215.0H1232.0235187709732V203.1778231832005H1231.7067402474834Q1229.7458997483222 206.8999418322672 1226.5876271497484 209.89191730678482Q1223.4293545511746 212.88389278130242 1218.6792524708999 214.6182667981858Q1213.9291503906252 216.3526408150692 1207.1247152238884 216.3526408150692ZM1212.0473305106964 201.54969293991192Q1218.5445287922087 201.54969293991192 1222.993711576526 199.17858132996014Q1227.4428943608432 196.80746972000838 1229.7046976588717 192.8540412646812Q1231.9665009569003 188.90061280935402 1231.9665009569003 184.06337923395554V174.97811549653943Q1231.032010112993 175.5768315462458 1229.218441465237 176.12486187211618Q1227.4048728174812 176.67289219798658 1224.9118032161023 177.18132520842073Q1222.4187336147234 177.68975821885488 1219.5075140421823 178.17284836737102Q1216.5962944696414 178.65593851588716 1213.5171875 179.10259739408556Q1209.2564931575084 179.70764553402893 1205.6531084508706 181.09514184734164Q1202.0497237442326 182.48263816065435 1199.8702666212248 184.88066840459834Q1197.6908094982173 187.27869864854236 1197.6908094982173 191.0895825686871Q1197.6908094982173 194.3429235266359 1199.4616147854185 196.69819041002518Q1201.2324200726196 199.05345729341443 1204.4572521235318 200.30157511666317Q1207.6820841744443 201.54969293991192 1212.0473305106964 201.54969293991192Z M1302.1644593514054 216.98619786204907Q1291.9610741532092 216.98619786204907 1283.891173169437 213.7851619029205Q1275.821272185665 210.58412594379195 1270.9223079809408 204.36260560310927Q1266.0233437762167 198.1410852624266 1265.3549457319632 189.147738340237H1285.102656708788Q1285.7583905725674 195.25211501153524 1290.0491840951397 198.62741396091127Q1294.339977617712 202.00271291028733 1301.7906630138425 202.00271291028733Q1309.0481181509545 202.00271291028733 1313.193201093226 199.14375483365666Q1317.3382840354973 196.28479675702602 1317.3382840354973 191.8530199703754Q1317.3382840354973 188.0706449572672 1314.2813538826554 185.7613074795512Q1311.2244237298135 183.45197000183515 1305.9152029152688 182.35590935009438L1291.6538662699247 179.416195371487Q1279.6701486472318 176.90096345427852 1273.4628827600673 170.8188216036598Q1267.255616872903 164.7366797530411 1267.255616872903 155.25868141123112Q1267.255616872903 147.58949539901425 1271.4101544476198 141.80037948301174Q1275.5646920223367 136.01126356700922 1283.1562591757552 132.7832944729184Q1290.747826329174 129.5553253788276 1300.9797204344068 129.5553253788276Q1311.1165751822045 129.5553253788276 1318.815845873532 132.95593818818162Q1326.5151165648597 136.35655099753563 1330.9214924857124 142.57490529309982Q1335.327868406565 148.793259588664 1335.5654522991822 157.39378490063967H1316.7743799811244Q1316.695185350252 151.82477437473784 1312.477254368315 148.1532834456271Q1308.2593233863781 144.48179251651635 1301.4358629469905 144.48179251651635Q1294.865831126783 144.48179251651635 1291.0422830261641 147.4199452240195Q1287.2187349255455 150.35809793152265 1287.2187349255455 154.63148545642827Q1287.2187349255455 158.3853515625 1290.1758839037598 160.73428635565227Q1293.1330328819738 163.0832211488045 1298.3250665242242 164.22363543414428L1313.38465256659 167.33440285497062Q1325.849870064755 169.9573383100881 1331.7150145665114 175.56273660339764Q1337.580159068268 181.16813489670722 1337.580159068268 190.33886735135277Q1337.580159068268 198.49906587536702 1333.0407367475882 204.4845780955065Q1328.5013144269087 210.47009031564596 1320.4995196656096 213.7281440888475Q1312.4977249043102 216.98619786204907 1302.1644593514054 216.98619786204907Z M1388.1540417562396 216.9006711409396Q1375.6222938076762 216.9006711409396 1366.4515758540006 211.29210680251154Q1357.2808579003251 205.68354246408347 1352.3026990647286 195.80955646694105Q1347.3245402291318 185.93557046979865 1347.3245402291318 173.28660634700083Q1347.3245402291318 160.50776186949454 1352.4405017827182 150.6226874639524Q1357.5564633363047 140.73761305841023 1366.579880436635 135.1037058580642Q1375.6032975369653 129.46979865771812 1387.3177418139157 129.46979865771812Q1396.371258094327 129.46979865771812 1403.7363442644978 132.6233294390992Q1411.1014304346688 135.77686022048027 1416.4042901570367 141.59449954448928Q1421.7071498794046 147.41213886849832 1424.559732362888 155.37912163446413Q1427.4123148463718 163.34610440042994 1427.4123148463718 172.97300836959943V178.40569044279573H1355.250306404677V164.6195795865667H1417.408550001311L1408.462853266569 168.3163988766254Q1408.462853266569 161.2458419082949 1405.912765851117 156.0902250353922Q1403.362678435665 150.9346081624895 1398.7028303927225 148.13109212785758Q1394.04298234978 145.32757609322567 1387.6313397913173 145.32757609322567Q1381.298891863727 145.32757609322567 1376.6501322291842 148.13109212785758Q1372.0013725946415 150.9346081624895 1369.4512851791897 156.0902250353922Q1366.9011977637376 161.2458419082949 1366.9011977637376 168.3163988766254V177.01184753827602Q1366.9011977637376 184.1901080445155 1369.4433628159084 189.6450829422714Q1371.985527868079 195.10005784002726 1376.8465285333214 198.13482567703966Q1381.7075291985634 201.16959351405202 1388.6101842688236 201.16959351405202Q1393.637496559092 201.16959351405202 1397.5101401105026 199.66488102650482Q1401.382783661913 198.16016853895763 1403.9677120746383 195.44693554359793Q1406.5526404873638 192.73370254823826 1407.677210046141 189.147738340237H1426.385936189178Q1424.8305524787647 197.34595840761324 1419.470674942324 203.58965556509543Q1414.1107974058832 209.8333527225776 1406.028217740667 213.3670119317586Q1397.9456380754511 216.9006711409396 1388.1540417562396 216.9006711409396Z M1485.10706320129 131.37046979865772V147.4372932178062H1433.4217391660552V131.37046979865772ZM1448.025240699717 108.56241610738255H1468.0453765664327V191.02001658190017Q1468.0453765664327 195.45176436661075 1469.8652773044255 197.19247047373113Q1471.6851780424183 198.93317658085152 1476.5477399787649 198.93317658085152Q1478.4832521169778 198.93317658085152 1481.0095434406462 198.93317658085152Q1483.5358347643144 198.93317658085152 1485.10706320129 198.93317658085152V215.0Q1483.019493891569 215.0 1479.6664297628724 215.0Q1476.3133656341759 215.0 1473.0569311359586 215.0Q1460.2338200306733 215.0 1454.129530365195 209.83177695050335Q1448.025240699717 204.6635539010067 1448.025240699717 193.92798310350253Z M1530.4825801567745 216.98619786204907Q1520.2791949585783 216.98619786204907 1512.2092939748063 213.7851619029205Q1504.1393929910341 210.58412594379195 1499.24042878631 204.36260560310927Q1494.3414645815858 198.1410852624266 1493.6730665373323 189.147738340237H1513.420777514157Q1514.0765113779364 195.25211501153524 1518.3673049005088 198.62741396091127Q1522.6580984230811 202.00271291028733 1530.1087838192116 202.00271291028733Q1537.3662389563235 202.00271291028733 1541.5113218985948 199.14375483365666Q1545.6564048408663 196.28479675702602 1545.6564048408663 191.8530199703754Q1545.6564048408663 188.0706449572672 1542.5994746880244 185.7613074795512Q1539.5425445351825 183.45197000183515 1534.2333237206378 182.35590935009438L1519.9719870752938 179.416195371487Q1507.988269452601 176.90096345427852 1501.7810035654365 170.8188216036598Q1495.573737678272 164.7366797530411 1495.573737678272 155.25868141123112Q1495.573737678272 147.58949539901425 1499.7282752529889 141.80037948301174Q1503.8828128277057 136.01126356700922 1511.4743799811245 132.7832944729184Q1519.065947134543 129.5553253788276 1529.2978412397758 129.5553253788276Q1539.4346959875736 129.5553253788276 1547.1339666789013 132.95593818818162Q1554.8332373702287 136.35655099753563 1559.2396132910812 142.57490529309982Q1563.645989211934 148.793259588664 1563.8835731045513 157.39378490063967H1545.0925007864935Q1545.013306155621 151.82477437473784 1540.795375173684 148.1532834456271Q1536.5774441917472 144.48179251651635 1529.7539837523595 144.48179251651635Q1523.183951932152 144.48179251651635 1519.3604038315334 147.4199452240195Q1515.5368557309146 150.35809793152265 1515.5368557309146 154.63148545642827Q1515.5368557309146 158.3853515625 1518.4940047091286 160.73428635565227Q1521.4511536873429 163.0832211488045 1526.6431873295933 164.22363543414428L1541.702773371959 167.33440285497062Q1554.167990870124 169.9573383100881 1560.0331353718805 175.56273660339764Q1565.898279873637 181.16813489670722 1565.898279873637 190.33886735135277Q1565.898279873637 198.49906587536702 1561.3588575529575 204.4845780955065Q1556.8194352322778 210.47009031564596 1548.8176404709784 213.7281440888475Q1540.8158457096793 216.98619786204907 1530.4825801567745 216.98619786204907Z"/>
</svg>
