<svg xmlns="http://www.w3.org/2000/svg" xmlns:xlink="http://www.w3.org/1999/xlink" width="288.00" height="407.37" viewBox="0 0 288.0000 407.3683">
<defs><defs
     id="defs1">
    <clipPath
       clipPathUnits="userSpaceOnUse"
       id="nirs4all_datasets_clip">
      <path
         d="M 75.196094,-0.47997507 H 381.42019 V 303.18425 H 75.196094 Z"
         id="path1" />
    </clipPath>
  </defs></defs><g transform="translate(24.0,24.0) scale(0.7810408580046241) translate(0,0)"><g
     id="g8"
     transform="translate(-0.25127103,1.1057433)">
    <g
       id="g9">
      <path
         style="fill:#FFBE00;fill-opacity:1;fill-rule:evenodd;stroke:none"
         d="M 1.5315373,35.750606 C 1.5315373,16.791591 16.89074,1.4323885 35.849755,1.4323885 H 269.47762 c 18.91901,0 34.27821,15.3592025 34.27821,34.3182175 V 269.53846 c 0,18.91902 -15.3592,34.27822 -34.27821,34.27822 H 35.849755 c -18.959015,0 -34.3182177,-15.3592 -34.3182177,-34.27822 z"
         id="path2"
         transform="matrix(1.0163665,0,0,1.019436,-1.1937273,-2.5659717)" />
      <path
         style="fill:none;stroke:#ffffff;stroke-width:19.359px;stroke-linecap:butt;stroke-linejoin:miter;stroke-miterlimit:8;stroke-dasharray:none;stroke-opacity:1"
         clip-path="url(#nirs4all_datasets_clip)"
         d="m 78.350886,215.76355 c 4.917688,0.027 13.251861,-0.0312 22.323884,-1.53468 6.67965,-1.47992 11.15942,-3.51981 16.79913,-8.67955 5.6797,-5.15973 10.19947,-8.15957 17.11911,-22.35883 6.95964,-14.15927 19.159,-49.59743 24.47873,-62.67675 5.27972,-13.11932 3.63981,-9.91948 7.31962,-15.83918 3.67981,-5.959687 11.4794,-8.59955 16.51914,-6.839641 5.03974,1.759908 9.39951,4.999741 13.71929,17.319101 4.35977,12.35936 6.23967,27.03859 9.4795,37.67804 3.27983,10.67945 4.39978,18.47904 10.11948,26.35863 5.6797,7.87959 12.48129,8.96263 20.43894,4.99974 6.87614,-5.69367 24.35873,-49.63742 26.59862,-51.67731 2.23988,-2.0399 14.71923,-18.23906 34.23822,6.47966 8.91953,11.39941 25.55867,37.55805 38.79798,52.55727"
         id="path3"
         transform="translate(-78.046472,1.0051295)" />
      <path
         style="fill:#ffffff;fill-opacity:1;fill-rule:evenodd;stroke:none"
         d="m 245.65157,200.51477 c 0,-13.5593 10.99943,-24.55873 24.55873,-24.55873 13.59929,0 24.55872,10.99943 24.55872,24.55873 0,13.59929 -10.95943,24.55872 -24.55872,24.55872 -13.5593,0 -24.55873,-10.95943 -24.55873,-24.55872 z"
         id="path4" />
    </g>
  </g></g>
<path fill="#FFFFFF" d="M52.283769072462235 345.7753843985948V382.0H34.118711986157706V316.7973154362416H52.00344828151215V333.7709592268771H48.90632619153732Q52.01704167103606 325.10813365142616 57.74512152959835 320.2685930290478Q63.47320138816064 315.4290524066695 72.35825457476929 315.4290524066695Q79.33171616112625 315.4290524066695 84.46520488150168 318.4335570469799Q89.59869360187709 321.43806168729026 92.42354277540372 327.1803435664849Q95.24839194893036 332.9226254456795 95.24839194893036 341.1618927616401V382.0H77.08333486262583V344.50342452286077Q77.08333486262583 337.9447968553377 73.95591500301488 334.53705620477666Q70.82849514340393 331.1293155542156 65.08120854524957 331.1293155542156Q61.32707388449034 331.1293155542156 58.437368753932454 332.6766593369862Q55.54766362337457 334.22400311975673 53.915716347918405 337.46317933357807Q52.283769072462235 340.70235554739935 52.283769072462235 345.7753843985948Z"/>
<path fill="#E9362D" d="M105.31552734374999 362.1723586933725V347.4995100802223L145.80555034867868 290.0H157.6986582096791V308.14044050178273H151.1223874565058L123.6127987035969 347.2947362972821V347.4253889864723H181.10236718094586V362.1723586933725ZM151.20319627595427 382.0V357.72185206061243V351.1325214974832V290.0H169.09165219300544V382.0Z"/>
<path fill="#FFBE00" d="M216.54296416212247 383.3682630295721Q208.05056283425964 383.3682630295721 201.69329973259227 379.11032878696517Q195.33603663092492 374.8523945443582 191.83324400626572 367.19355026347523Q188.33045138160654 359.5347059825923 188.33045138160654 349.33197586776424Q188.33045138160654 339.3008872627412 191.88325539403314 331.65871344444736Q195.43605940645972 324.01653962615353 201.77665204553796 319.7227960164115Q208.1172446846162 315.4290524066695 216.40960046140938 315.4290524066695Q220.67000314597317 315.4290524066695 224.2456656846424 316.56639740195055Q227.82132822331167 317.70374239723157 230.68692364788694 319.99510285038275Q233.55251907246225 322.286463303534 235.61850700634437 325.8293935481334H235.708656014052V290.0H253.87371310035655V382.0H235.95563587982383V371.9874416684144H235.86548687211618Q233.98595109977978 375.78722554661283 231.0919516339398 378.3237060546875Q228.19795216809985 380.8601865627622 224.51732996998217 382.11422479616715Q220.8367077718645 383.3682630295721 216.54296416212247 383.3682630295721ZM221.24903933121854 368.5533942100986Q225.86638625996224 368.5533942100986 229.3117960885067 366.17803889537015Q232.75720591705118 363.80268358064177 234.66514573065228 359.4743139484585Q236.57308554425336 355.1459443162752 236.57308554425336 349.33197586776424Q236.57308554425336 343.48960337798866 234.66514573065228 339.1945746709836Q232.75720591705118 334.8995459639786 229.3117960885067 332.5241906492502Q225.86638625996224 330.14883533452183 221.24903933121854 330.14883533452183Q216.86386161650586 330.14883533452183 213.5777510879824 332.4105744841915Q210.2916405594589 334.67231363386117 208.4886604053062 338.93893829960155Q206.6856802511535 343.20556296534187 206.6856802511535 349.33197586776424Q206.6856802511535 355.42998472892197 208.4886604053062 359.72995031984055Q210.2916405594589 364.0299159107592 213.5777510879824 366.29165506042887Q216.86386161650586 368.5533942100986 221.24903933121854 368.5533942100986Z"/>
</svg>
