<svg xmlns="http://www.w3.org/2000/svg" xmlns:xlink="http://www.w3.org/1999/xlink" width="288.00" height="406.00" viewBox="0 0 288.0000 406.0000">
<defs><defs
     id="defs1">
    <clipPath
       clipPathUnits="userSpaceOnUse"
       id="nirs4all_tools_clip">
      <path
         d="M 75.196094,-0.47997507 H 381.42019 V 303.18425 H 75.196094 Z"
         id="path1" />
    </clipPath>
  </defs></defs><g transform="translate(24.0,24.0) scale(0.7810408580046241) translate(0,0)"><g
     id="g8"
     transform="translate(-0.25127103,1.1057433)">
    <g
       id="g9">
      <path
         style="fill:#475569;fill-opacity:1;fill-rule:evenodd;stroke:none"
         d="M 1.5315373,35.750606 C 1.5315373,16.791591 16.89074,1.4323885 35.849755,1.4323885 H 269.47762 c 18.91901,0 34.27821,15.3592025 34.27821,34.3182175 V 269.53846 c 0,18.91902 -15.3592,34.27822 -34.27821,34.27822 H 35.849755 c -18.959015,0 -34.3182177,-15.3592 -34.3182177,-34.27822 z"
         id="path2"
         transform="matrix(1.0163665,0,0,1.019436,-1.1937273,-2.5659717)" />
      <path
         style="fill:none;stroke:#ffffff;stroke-width:19.359px;stroke-linecap:butt;stroke-linejoin:miter;stroke-miterlimit:8;stroke-dasharray:none;stroke-opacity:1"
         clip-path="url(#nirs4all_tools_clip)"
         d="m 78.350886,215.76355 c 4.917688,0.027 13.251861,-0.0312 22.323884,-1.53468 6.67965,-1.47992 11.15942,-3.51981 16.79913,-8.67955 5.6797,-5.15973 10.19947,-8.15957 17.11911,-22.35883 6.95964,-14.15927 19.159,-49.59743 24.47873,-62.67675 5.27972,-13.11932 3.63981,-9.91948 7.31962,-15.83918 3.67981,-5.959687 11.4794,-8.59955 16.51914,-6.839641 5.03974,1.759908 9.39951,4.999741 13.71929,17.319101 4.35977,12.35936 6.23967,27.03859 9.4795,37.67804 3.27983,10.67945 4.39978,18.47904 10.11948,26.35863 5.6797,7.87959 12.48129,8.96263 20.43894,4.99974 6.87614,-5.69367 24.35873,-49.63742 26.59862,-51.67731 2.23988,-2.0399 14.71923,-18.23906 34.23822,6.47966 8.91953,11.39941 25.55867,37.55805 38.79798,52.55727"
         id="path3"
         transform="translate(-78.046472,1.0051295)" />
      <path
         style="fill:#ffffff;fill-opacity:1;fill-rule:evenodd;stroke:none"
         d="m 245.65157,200.51477 c 0,-13.5593 10.99943,-24.55873 24.55873,-24.55873 13.59929,0 24.55872,10.99943 24.55872,24.55873 0,13.59929 -10.95943,24.55872 -24.55872,24.55872 -13.5593,0 -24.55873,-10.95943 -24.55873,-24.55872 z"
         id="path4" />
    </g>
  </g></g>
<path fill="#FFFFFF" d="M66.76296370333472 345.7753843985948V382.0H48.59790661703019V316.7973154362416H66.48264291238463V333.7709592268771H63.3855208224098Q66.49623630190854 325.10813365142616 72.22431616047083 320.2685930290478Q77.95239601903313 315.4290524066695 86.83744920564178 315.4290524066695Q93.81091079199874 315.4290524066695 98.94439951237416 318.4335570469799Q104.07788823274957 321.43806168729026 106.9027374062762 327.1803435664849Q109.72758657980285 332.9226254456795 109.72758657980285 341.1618927616401V382.0H91.56252949349832V344.50342452286077Q91.56252949349832 337.9447968553377 88.43510963388736 334.53705620477666Q85.30768977427641 331.1293155542156 79.56040317612205 331.1293155542156Q75.80626851536283 331.1293155542156 72.91656338480495 332.6766593369862Q70.02685825424706 334.22400311975673 68.39491097879089 337.46317933357807Q66.76296370333472 340.70235554739935 66.76296370333472 345.7753843985948Z"/>
<path fill="#E9362D" d="M119.79472197462248 362.1723586933725V347.4995100802223L160.28474497955116 290.0H172.1778528405516V308.14044050178273H165.6015820873783L138.09199333446938 347.2947362972821V347.4253889864723H195.58156181181835V362.1723586933725ZM165.68239090682675 382.0V357.72185206061243V351.1325214974832V290.0H183.57084682387793V382.0Z"/>
<path fill="#475569" d="M243.11023965105915 316.7973154362416V331.0799467150797H200.32375160575714V316.7973154362416ZM211.5983960452496 299.0147651006711H229.76345313155412V361.85896831742866Q229.76345313155412 365.15863831795303 231.10456329960152 366.43800351955747Q232.4456734676489 367.7173687211619 236.12568703465814 367.7173687211619Q237.67918496355915 367.7173687211619 239.81554045197146 367.7173687211619Q241.9518959403838 367.7173687211619 243.11023965105915 367.7173687211619V382.0Q241.4715295983641 382.0 238.507196495517 382.0Q235.5428633926699 382.0 232.5371754076657 382.0Q221.7393133585885 382.0 216.66885470191903 377.7927196937919Q211.5983960452496 373.5854393875839 211.5983960452496 364.704105822672Z"/>
</svg>
