<svg xmlns="http://www.w3.org/2000/svg" xmlns:xlink="http://www.w3.org/1999/xlink" width="1710.19" height="312.00" viewBox="0 0 1710.1879 312.0000">
<defs><defs
     id="defs1">
    <clipPath
       clipPathUnits="userSpaceOnUse"
       id="nirs4all_repository_clip">
      <path
         d="M 75.196094,-0.47997507 H 381.42019 V 303.18425 H 75.196094 Z"
         id="path1" />
    </clipPath>
  </defs></defs><g transform="translate(28.0,28.0) scale(0.8331102485382658) translate(0,0)"><g
     id="g8"
     transform="translate(-0.25127103,1.1057433)">
    <g
       id="g9">
      <path
         style="fill:#AC564A;fill-opacity:1;fill-rule:evenodd;stroke:none"
         d="M 1.5315373,35.750606 C 1.5315373,16.791591 16.89074,1.4323885 35.849755,1.4323885 H 269.47762 c 18.91901,0 34.27821,15.3592025 34.27821,34.3182175 V 269.53846 c 0,18.91902 -15.3592,34.27822 -34.27821,34.27822 H 35.849755 c -18.959015,0 -34.3182177,-15.3592 -34.3182177,-34.27822 z"
         id="path2"
         transform="matrix(1.0163665,0,0,1.019436,-1.1937273,-2.5659717)" />
      <path
         style="fill:none;stroke:#ffffff;stroke-width:19.359px;stroke-linecap:butt;stroke-linejoin:miter;stroke-miterlimit:8;stroke-dasharray:none;stroke-opacity:1"
         clip-path="url(#nirs4all_repository_clip)"
         d="m 78.350886,215.76355 c 4.917688,0.027 13.251861,-0.0312 22.323884,-1.53468 6.67965,-1.47992 11.15942,-3.51981 16.79913,-8.67955 5.6797,-5.15973 10.19947,-8.15957 17.11911,-22.35883 6.95964,-14.15927 19.159,-49.59743 24.47873,-62.67675 5.27972,-13.11932 3.63981,-9.91948 7.31962,-15.83918 3.67981,-5.959687 11.4794,-8.59955 16.51914,-6.839641 5.03974,1.759908 9.39951,4.999741 13.71929,17.319101 4.35977,12.35936 6.23967,27.03859 9.4795,37.67804 3.27983,10.67945 4.39978,18.47904 10.11948,26.35863 5.6797,7.87959 12.48129,8.96263 20.43894,4.99974 6.87614,-5.69367 24.35873,-49.63742 26.59862,-51.67731 2.23988,-2.0399 14.71923,-18.23906 34.23822,6.47966 8.91953,11.39941 25.55867,37.55805 38.79798,52.55727"
         id="path3"
         transform="translate(-78.046472,1.0051295)" />
      <path
         style="fill:#ffffff;fill-opacity:1;fill-rule:evenodd;stroke:none"
         d="m 245.65157,200.51477 c 0,-13.5593 10.99943,-24.55873 24.55873,-24.55873 13.59929,0 24.55872,10.99943 24.55872,24.55873 0,13.59929 -10.95943,24.55872 -24.55872,24.55872 -13.5593,0 -24.55873,-10.95943 -24.55873,-24.55872 z"
         id="path4" />
    </g>
  </g></g>
<path fill="#FFFFFF" d="M352.85830307518876 167.71123472892197V215.0H332.8381672084732V131.37046979865772H352.51301564466235V152.64210704829068H348.59763773463715Q352.6302318188968 141.45981936870805 359.9699896281197 135.56618046088505Q367.3097474373427 129.67254155306208 378.20688804268036 129.67254155306208Q386.9943115234375 129.67254155306208 393.7068588768876 133.46912751677854Q400.4194062303377 137.26571348049498 404.2207630131869 144.63081415163592Q408.02211979603607 151.99591482277685 408.02211979603607 162.7632330772861V215.0H388.0019839293205V165.93726339660236Q388.0019839293205 156.71260666815226 383.5987305506764 151.96406585898174Q379.1954771720323 147.21552504981122 371.1397436359585 147.21552504981122Q365.8970242698721 147.21552504981122 361.7630297360004 149.35696062945678Q357.62903520212876 151.49839620910234 355.2436691386588 156.02360757917364Q352.85830307518876 160.54881894924495 352.85830307518876 167.71123472892197Z M425.733469221896 215.0V131.37046979865772H445.75360508861155V215.0ZM435.71502824821727 118.93358719588926Q430.60227624265934 118.93358719588926 427.1826816635644 115.6599563642797Q423.76308708446936 112.38632553267013 423.76308708446936 107.55806576790289Q423.76308708446936 102.72416123767826 427.1826816635644 99.47562010080222Q430.60227624265934 96.22707896392616 435.67812201247085 96.22707896392616Q440.8196348517647 96.22707896392616 444.24330213186494 99.47256557504829Q447.66696941196517 102.71805218617044 447.66696941196517 107.59497305416396Q447.66696941196517 112.40799601510066 444.23827390133334 115.67079160549497Q440.8095783907015 118.93358719588926 435.71502824821727 118.93358719588926Z M463.430113517198 215.0V131.37046979865772H482.70265670878774V145.25801010643875H482.96241741820467Q485.2590617135067 138.0513276989828 490.19130564440013 134.30541295813234Q495.1235495752936 130.55949821728188 503.24890710203437 130.55949821728188Q505.24143705432044 130.55949821728188 506.8997679844798 130.66086966495385Q508.55809891463923 130.76224111262582 509.74916992187497 130.8636125602978V148.60303586409395Q508.6436256357487 148.45097869258598 505.9589450503355 148.222892935324Q503.27426446492234 147.99480717806208 500.315554215604 147.99480717806208Q495.608229996854 147.99480717806208 491.7625340813758 150.16157111865562Q487.9168381658976 152.32833505924916 485.6835437749056 156.68563003027998Q483.45024938391356 161.04292500131083 483.45024938391356 167.62877254614094V215.0Z M554.0127814990561 216.98619786204907Q543.8093963008598 216.98619786204907 535.7394953170879 213.7851619029205Q527.6695943333158 210.58412594379195 522.7706301285916 204.36260560310927Q517.8716659238673 198.1410852624266 517.203267879614 189.147738340237H536.9509788564387Q537.6067127202181 195.25211501153524 541.8975062427904 198.62741396091127Q546.1882997653628 202.00271291028733 553.6389851614932 202.00271291028733Q560.8964402986052 202.00271291028733 565.0415232408766 199.14375483365666Q569.186606183148 196.28479675702602 569.186606183148 191.8530199703754Q569.186606183148 188.0706449572672 566.1296760303062 185.7613074795512Q563.0727458774643 183.45197000183515 557.7635250629194 182.35590935009438L543.5021884175754 179.416195371487Q531.5184707948824 176.90096345427852 525.3112049077181 170.8188216036598Q519.1039390205536 164.7366797530411 519.1039390205536 155.25868141123112Q519.1039390205536 147.58949539901425 523.2584765952705 141.80037948301174Q527.4130141699874 136.01126356700922 535.004581323406 132.7832944729184Q542.5961484768246 129.5553253788276 552.8280425820574 129.5553253788276Q562.9648973298553 129.5553253788276 570.6641680211828 132.95593818818162Q578.3634387125104 136.35655099753563 582.769814633363 142.57490529309982Q587.1761905542155 148.793259588664 587.413774446833 157.39378490063967H568.6227021287751Q568.5435074979026 151.82477437473784 564.3255765159657 148.1532834456271Q560.1076455340288 144.48179251651635 553.2841850946413 144.48179251651635Q546.7141532744337 144.48179251651635 542.890605173815 147.4199452240195Q539.0670570731962 150.35809793152265 539.0670570731962 154.63148545642827Q539.0670570731962 158.3853515625 542.0242060514104 160.73428635565227Q544.9813550296245 163.0832211488045 550.1733886718749 164.22363543414428L565.2329747142408 167.33440285497062Q577.6981922124055 169.9573383100881 583.563336714162 175.56273660339764Q589.4284812159185 181.16813489670722 589.4284812159185 190.33886735135277Q589.4284812159185 198.49906587536702 584.889058895239 204.4845780955065Q580.3496365745596 210.47009031564596 572.3478418132602 213.7281440888475Q564.3460470519609 216.98619786204907 554.0127814990561 216.98619786204907Z"/>
<path fill="#E9362D" d="M598.6723082267198 188.54257419253355V172.08929025534815L652.116135892932 96.99999999999999H665.1894080654886V117.84382963244546H657.8767345715536L619.7030360279467 171.54461888818278V171.7091328256082H694.1238702351615V188.54257419253355ZM657.9986283884753 215.0V183.57554726824665V176.09331742869128V96.99999999999999H677.8350466324979V215.0Z"/>
<path fill="#FFFFFF" d="M733.0656548212038 216.3526408150692Q724.7217096725566 216.3526408150692 718.2055731242135 213.5586519177328Q711.6894365758703 210.7646630203964 707.9197692461462 205.17351918060507Q704.1501019164219 199.58237534081377 704.1501019164219 191.26693909920303Q704.1501019164219 184.11724550388004 706.8332212307308 179.47486146248428Q709.5163405450397 174.8324774210885 714.1143854538066 172.05908956847736Q718.7124303625733 169.2857017158662 724.6488616328911 167.83961181640626Q730.5852929032088 166.3935219169463 737.012722184354 165.71561123636744Q744.7833086461828 164.83495766044462 749.3338338762321 164.18081406970953Q753.8843591062814 163.5266704789744 755.8388820161755 162.20253857094167Q757.7934049260696 160.87840666290896 757.7934049260696 158.02421940541106V157.4033265389052Q757.7934049260696 153.80784969457844 755.9719139150325 151.0676835642565Q754.1504229039953 148.32751743393456 750.7339363661388 146.76419685927013Q747.3174498282822 145.2008762846057 742.5118767040688 145.2008762846057Q737.6999714896182 145.2008762846057 734.0237242423448 146.75627449598886Q730.3474769950712 148.31167270737205 728.1933627339818 151.05341460976825Q726.0392484728922 153.79515651216443 725.7224699494022 157.36527599360318H706.5195797504194Q707.0295885329277 149.02769193713297 711.5278377660968 142.82042604996855Q716.0260869992659 136.6131601628041 724.019973898254 133.14285085793307Q732.0138607972419 129.67254155306208 742.9680192166526 129.67254155306208Q751.1091924680159 129.67254155306208 757.5508617017092 131.63815287135589Q763.9925309354026 133.60376418964972 768.4638470336095 137.30373502385694Q772.9351631318162 141.00370585806417 775.2666484243917 146.2289612226038Q777.5981337169673 151.45421658714343 777.5981337169673 157.97350467963506V215.0H757.9644583682885V203.1778231832005H757.6476798447986Q755.6868393456375 206.8999418322672 752.5285667470637 209.89191730678482Q749.3702941484898 212.88389278130242 744.6201920682151 214.6182667981858Q739.8700899879403 216.3526408150692 733.0656548212038 216.3526408150692ZM737.9882701080116 201.54969293991192Q744.4854683895238 201.54969293991192 748.9346511738411 199.17858132996014Q753.3838339581584 196.80746972000838 755.645637256187 192.8540412646812Q757.9074405542156 188.90061280935402 757.9074405542156 184.06337923395554V174.97811549653943Q756.9729497103083 175.5768315462458 755.1593810625524 176.12486187211618Q753.3458124147965 176.67289219798658 750.8527428134175 177.18132520842073Q748.3596732120385 177.68975821885488 745.4484536394975 178.17284836737102Q742.5372340669567 178.65593851588716 739.4581270973154 179.10259739408556Q735.1974327548237 179.70764553402893 731.5940480481856 181.09514184734164Q727.9906633415477 182.48263816065435 725.8112062185402 184.88066840459834Q723.6317490955327 187.27869864854236 723.6317490955327 191.0895825686871Q723.6317490955327 194.3429235266359 725.4025543827338 196.69819041002518Q727.1733596699349 199.05345729341443 730.3981917208473 200.30157511666317Q733.6230237717596 201.54969293991192 737.9882701080116 201.54969293991192Z M815.2757527396183 96.99999999999999V215.0H795.2556168729026V96.99999999999999Z M852.9723970349203 96.99999999999999V215.0H832.9522611682046V96.99999999999999Z M923.9341118524537 159.60180893456376V176.32121467334312H870.987802799916V159.60180893456376Z"/>
<path fill="#AC564A" d="M941.9240732487415 215.0V131.37046979865772H961.1966164403312V145.25801010643875H961.4563771497483Q963.7530214450502 138.0513276989828 968.6852653759437 134.30541295813234Q973.6175093068372 130.55949821728188 981.7428668335779 130.55949821728188Q983.7353967858639 130.55949821728188 985.3937277160234 130.66086966495385Q987.0520586461828 130.76224111262582 988.2431296534186 130.8636125602978V148.60303586409395Q987.1375853672922 148.45097869258598 984.452904781879 148.222892935324Q981.7682241964659 147.99480717806208 978.8095139471476 147.99480717806208Q974.1021897283975 147.99480717806208 970.2564938129194 150.16157111865562Q966.4107978974412 152.32833505924916 964.1775035064492 156.68563003027998Q961.9442091154572 161.04292500131083 961.9442091154572 167.62877254614094V215.0Z M1036.6090753132864 216.9006711409396Q1024.077327364723 216.9006711409396 1014.9066094110475 211.29210680251154Q1005.735891457372 205.68354246408347 1000.7577326217752 195.80955646694105Q995.7795737861785 185.93557046979865 995.7795737861785 173.28660634700083Q995.7795737861785 160.50776186949454 1000.8955353397649 150.6226874639524Q1006.0114968933514 140.73761305841023 1015.0349139936816 135.1037058580642Q1024.058331094012 129.46979865771812 1035.7727753709626 129.46979865771812Q1044.8262916513736 129.46979865771812 1052.1913778215444 132.6233294390992Q1059.5564639917154 135.77686022048027 1064.8593237140833 141.59449954448928Q1070.1621834364512 147.41213886849832 1073.0147659199347 155.37912163446413Q1075.8673484034184 163.34610440042994 1075.8673484034184 172.97300836959943V178.40569044279573H1003.7053399617239V164.6195795865667H1065.8635835583577L1056.9178868236156 168.3163988766254Q1056.9178868236156 161.2458419082949 1054.3677994081636 156.0902250353922Q1051.8177119927118 150.9346081624895 1047.1578639497693 148.13109212785758Q1042.4980159068266 145.32757609322567 1036.0863733483638 145.32757609322567Q1029.7539254207738 145.32757609322567 1025.105165786231 148.13109212785758Q1020.4564061516882 150.9346081624895 1017.9063187362362 156.0902250353922Q1015.3562313207842 161.2458419082949 1015.3562313207842 168.3163988766254V177.01184753827602Q1015.3562313207842 184.1901080445155 1017.898396372955 189.6450829422714Q1020.4405614251257 195.10005784002726 1025.301562090368 198.13482567703966Q1030.1625627556102 201.16959351405202 1037.0652178258701 201.16959351405202Q1042.0925301161387 201.16959351405202 1045.9651736675492 199.66488102650482Q1049.8378172189596 198.16016853895763 1052.422745631685 195.44693554359793Q1055.0076740444106 192.73370254823826 1056.1322436031878 189.147738340237H1074.8409697462248Q1073.2855860358115 197.34595840761324 1067.9257084993706 203.58965556509543Q1062.5658309629298 209.8333527225776 1054.4832512977137 213.3670119317586Q1046.4006716324977 216.9006711409396 1036.6090753132864 216.9006711409396Z M1089.384475933305 248.103355704698V131.37046979865772H1109.0878332765308V143.04061844588927H1109.3317492593853Q1111.9388399879401 138.5676975736682 1115.7861261764626 135.60739705130555Q1119.6334123649851 132.64709652894294 1124.4595430310137 131.1598190410025Q1129.2856736970425 129.67254155306208 1134.6709085963714 129.67254155306208Q1145.4572231215916 129.67254155306208 1153.5715067409028 135.1654799902999Q1161.6857903602138 140.65841842753775 1166.2283932269818 150.45320979380767Q1170.7709960937498 160.2480011600776 1170.7709960937498 173.12821708525587Q1170.7709960937498 186.1288007288171 1166.2711565875366 195.93784654860528Q1161.771317081323 205.74689236839345 1153.642779008494 211.22241030699456Q1145.5142409356647 216.69792824559565 1134.5568729682254 216.69792824559565Q1129.1146202548236 216.69792824559565 1124.4262923067845 215.11086958302747Q1119.7379643587456 213.5238109204593 1115.984127254614 210.35602568555998Q1112.2302901504822 207.18824045066066 1109.6200188758387 202.44289468854865H1109.4046118000208V248.103355704698ZM1129.846484211147 199.99121568923027Q1136.0775606910652 199.99121568923027 1140.7088998269712 196.86934535903418Q1145.3402389628773 193.7474750288381 1147.9378460570467 187.74765035130034Q1150.5354531512162 181.74782567376258 1150.5354531512162 173.12821708525587Q1150.5354531512162 164.45792277291315 1147.9378460570467 158.48660700241192Q1145.3402389628773 152.51529123191065 1140.7088998269712 149.39342090171453Q1136.0775606910652 146.27155057151845 1129.846484211147 146.27155057151845Q1123.3398022952495 146.27155057151845 1118.4788016300072 149.59616379705852Q1113.617800964765 152.92077702259857 1110.9568439662853 158.94277851693582Q1108.295886967806 164.96478001127306 1108.295886967806 173.12821708525587Q1108.295886967806 181.2409684354027 1110.9568439662853 187.29147883677643Q1113.617800964765 193.34198923815018 1118.4788016300072 196.66660246369023Q1123.3398022952495 199.99121568923027 1129.846484211147 199.99121568923027Z M1221.9561720060822 216.9006711409396Q1209.6810332227872 216.9006711409396 1200.3741028241661 211.40297638553903Q1191.067172425545 205.90528163013843 1185.883104649486 196.0851474019505Q1180.6990368734268 186.26501317376258 1180.6990368734268 173.28660634700083Q1180.6990368734268 160.2575137964031 1185.883104649486 150.40094829789743Q1191.067172425545 140.54438279939177 1200.3741028241661 135.00709072855494Q1209.6810332227872 129.46979865771812 1221.9561720060822 129.46979865771812Q1234.3105054202495 129.46979865771812 1243.5778385034341 135.00709072855494Q1252.845171586619 140.54438279939177 1258.0292393626783 150.40094829789743Q1263.2133071387373 160.2575137964031 1263.2133071387373 173.28660634700083Q1263.2133071387373 186.26501317376258 1258.0292393626783 196.0851474019505Q1252.845171586619 205.90528163013843 1243.5778385034341 211.40297638553903Q1234.3105054202495 216.9006711409396 1221.9561720060822 216.9006711409396ZM1221.9561720060822 200.20029067481124Q1228.3931719274328 200.20029067481124 1233.1037056942114 196.94694971686243Q1237.8142394609897 193.6936087589136 1240.3960018285966 187.6320099491401Q1242.9777641962037 181.5704111393666 1242.9777641962037 173.28660634700083Q1242.9777641962037 164.8729211999266 1240.3960018285966 158.82557684367134Q1237.8142394609897 152.77823248741612 1233.1037056942114 149.4742058056313Q1228.3931719274328 146.17017912384648 1221.9561720060822 146.17017912384648Q1215.598366715604 146.17017912384648 1210.8482356333893 149.4488629437133Q1206.0981045511744 152.7275467635801 1203.5163421835673 158.80023398175337Q1200.9345798159604 164.8729211999266 1200.9345798159604 173.28660634700083Q1200.9345798159604 181.62109686320258 1203.5163421835673 187.6573528110581Q1206.0981045511744 193.6936087589136 1210.8228927714713 196.94694971686243Q1215.547680991768 200.20029067481124 1221.9561720060822 200.20029067481124Z M1309.846338546036 216.98619786204907Q1299.6429533478397 216.98619786204907 1291.5730523640677 213.7851619029205Q1283.5031513802955 210.58412594379195 1278.6041871755715 204.36260560310927Q1273.7052229708472 198.1410852624266 1273.0368249265937 189.147738340237H1292.7845359034184Q1293.4402697671978 195.25211501153524 1297.7310632897702 198.62741396091127Q1302.0218568123425 202.00271291028733 1309.472542208473 202.00271291028733Q1316.729997345585 202.00271291028733 1320.8750802878562 199.14375483365666Q1325.0201632301278 196.28479675702602 1325.0201632301278 191.8530199703754Q1325.0201632301278 188.0706449572672 1321.9632330772858 185.7613074795512Q1318.906302924444 183.45197000183515 1313.5970821098992 182.35590935009438L1299.3357454645552 179.416195371487Q1287.3520278418623 176.90096345427852 1281.144761954698 170.8188216036598Q1274.9374960675334 164.7366797530411 1274.9374960675334 155.25868141123112Q1274.9374960675334 147.58949539901425 1279.0920336422503 141.80037948301174Q1283.2465712169671 136.01126356700922 1290.8381383703859 132.7832944729184Q1298.4297055238044 129.5553253788276 1308.6615996290373 129.5553253788276Q1318.798454376835 129.5553253788276 1326.4977250681627 132.95593818818162Q1334.1969957594902 136.35655099753563 1338.6033716803427 142.57490529309982Q1343.0097476011954 148.793259588664 1343.2473314938127 157.39378490063967H1324.456259175755Q1324.3770645448824 151.82477437473784 1320.1591335629455 148.1532834456271Q1315.9412025810086 144.48179251651635 1309.117742141621 144.48179251651635Q1302.5477103214134 144.48179251651635 1298.7241622207948 147.4199452240195Q1294.900614120176 150.35809793152265 1294.900614120176 154.63148545642827Q1294.900614120176 158.3853515625 1297.85776309839 160.73428635565227Q1300.8149120766043 163.0832211488045 1306.0069457188547 164.22363543414428L1321.0665317612204 167.33440285497062Q1333.5317492593854 169.9573383100881 1339.3968937611419 175.56273660339764Q1345.2620382628984 181.16813489670722 1345.2620382628984 190.33886735135277Q1345.2620382628984 198.49906587536702 1340.722615942219 204.4845780955065Q1336.1831936215392 210.47009031564596 1328.1813988602398 213.7281440888475Q1320.1796040989407 216.98619786204907 1309.846338546036 216.98619786204907Z M1358.8838047923655 215.0V131.37046979865772H1378.9039406590812V215.0ZM1368.8653638186868 118.93358719588926Q1363.7526118131289 118.93358719588926 1360.3330172340338 115.6599563642797Q1356.9134226549388 112.38632553267013 1356.9134226549388 107.55806576790289Q1356.9134226549388 102.72416123767826 1360.3330172340338 99.47562010080222Q1363.7526118131289 96.22707896392616 1368.8284575829405 96.22707896392616Q1373.9699704222342 96.22707896392616 1377.3936377023344 99.47256557504829Q1380.8173049824347 102.71805218617044 1380.8173049824347 107.59497305416396Q1380.8173049824347 112.40799601510066 1377.3886094718027 115.67079160549497Q1373.959913961171 118.93358719588926 1368.8653638186868 118.93358719588926Z M1440.758069912699 131.37046979865772V147.4372932178062H1389.0727458774643V131.37046979865772ZM1403.676247411126 108.56241610738255H1423.6963832778417V191.02001658190017Q1423.6963832778417 195.45176436661075 1425.5162840158346 197.19247047373113Q1427.3361847538274 198.93317658085152 1432.198746690174 198.93317658085152Q1434.134258828387 198.93317658085152 1436.6605501520553 198.93317658085152Q1439.1868414757234 198.93317658085152 1440.758069912699 198.93317658085152V215.0Q1438.670500602978 215.0 1435.3174364742815 215.0Q1431.964372345585 215.0 1428.7079378473677 215.0Q1415.8848267420824 215.0 1409.780537076604 209.83177695050335Q1403.676247411126 204.6635539010067 1403.676247411126 193.92798310350253Z M1490.6635545564177 216.9006711409396Q1478.3884157731227 216.9006711409396 1469.0814853745017 211.40297638553903Q1459.7745549758806 205.90528163013843 1454.5904871998214 196.0851474019505Q1449.4064194237624 186.26501317376258 1449.4064194237624 173.28660634700083Q1449.4064194237624 160.2575137964031 1454.5904871998214 150.40094829789743Q1459.7745549758806 140.54438279939177 1469.0814853745017 135.00709072855494Q1478.3884157731227 129.46979865771812 1490.6635545564177 129.46979865771812Q1503.017887970585 129.46979865771812 1512.2852210537699 135.00709072855494Q1521.5525541369545 140.54438279939177 1526.7366219130136 150.40094829789743Q1531.9206896890728 160.2575137964031 1531.9206896890728 173.28660634700083Q1531.9206896890728 186.26501317376258 1526.7366219130136 196.0851474019505Q1521.5525541369545 205.90528163013843 1512.2852210537699 211.40297638553903Q1503.017887970585 216.9006711409396 1490.6635545564177 216.9006711409396ZM1490.6635545564177 200.20029067481124Q1497.1005544777684 200.20029067481124 1501.8110882445467 196.94694971686243Q1506.5216220113252 193.6936087589136 1509.1033843789323 187.6320099491401Q1511.6851467465392 181.5704111393666 1511.6851467465392 173.28660634700083Q1511.6851467465392 164.8729211999266 1509.1033843789323 158.82557684367134Q1506.5216220113252 152.77823248741612 1501.8110882445467 149.4742058056313Q1497.1005544777684 146.17017912384648 1490.6635545564177 146.17017912384648Q1484.3057492659395 146.17017912384648 1479.5556181837246 149.4488629437133Q1474.80548710151 152.7275467635801 1472.223724733903 158.80023398175337Q1469.641962366296 164.8729211999266 1469.641962366296 173.28660634700083Q1469.641962366296 181.62109686320258 1472.223724733903 187.6573528110581Q1474.80548710151 193.6936087589136 1479.5302753218066 196.94694971686243Q1484.2550635421035 200.20029067481124 1490.6635545564177 200.20029067481124Z M1545.7039390205534 215.0V131.37046979865772H1564.9764822121433V145.25801010643875H1565.2362429215602Q1567.5328872168623 138.0513276989828 1572.4651311477555 134.30541295813234Q1577.397375078649 130.55949821728188 1585.5227326053898 130.55949821728188Q1587.515262557676 130.55949821728188 1589.1735934878352 130.66086966495385Q1590.8319244179947 130.76224111262582 1592.0229954252304 130.8636125602978V148.60303586409395Q1590.9174511391043 148.45097869258598 1588.2327705536911 148.222892935324Q1585.548089968278 147.99480717806208 1582.5893797189594 147.99480717806208Q1577.8820555002096 147.99480717806208 1574.0363595847314 150.16157111865562Q1570.1906636692531 152.32833505924916 1567.957369278261 156.68563003027998Q1565.7240748872691 161.04292500131083 1565.7240748872691 167.62877254614094V215.0Z M1605.011175905778 248.103355704698V231.83378939020554H1614.8439163105597Q1617.5713747574978 231.83378939020554 1619.419784402527 230.89295195509123Q1621.2681940475566 229.95211451997693 1622.6461922255137 227.9199727512846Q1624.0241904034708 225.88783098259228 1625.1994456860841 222.60282957345848L1628.281762203754 214.5438284854761L1596.0051938050544 131.37046979865772H1617.1910723180576L1632.5391019885171 174.9593802432886Q1634.9212730049285 181.8619483077286 1637.1022913990403 188.80727973272337Q1639.283309793152 195.75261115771812 1641.3487022860736 202.68368812919462H1635.7893204042573Q1637.797695083106 195.75261115771812 1639.9898018856175 188.7930252792051Q1642.181908688129 181.8334394006921 1644.5419028877411 174.9593802432886L1659.8297341980388 131.37046979865772H1680.7495199113882L1643.3505998649853 228.75459541474413Q1640.8480611301907 235.2896992318582 1637.271638560455 239.58044925152055Q1633.6952159907191 243.8711992711829 1628.9182097774224 245.98727748794045Q1624.1412035641254 248.103355704698 1618.036913898647 248.103355704698Q1614.8374972145027 248.103355704698 1611.5240449022126 248.103355704698Q1608.2105925899223 248.103355704698 1605.011175905778 248.103355704698Z"/>
</svg>
