<svg xmlns="http://www.w3.org/2000/svg" xmlns:xlink="http://www.w3.org/1999/xlink" width="288.00" height="406.00" viewBox="0 0 288.0000 406.0000">
<defs><defs
     id="defs1">
    <clipPath
       clipPathUnits="userSpaceOnUse"
       id="nirs4all_repository_clip">
      <path
         d="M 75.196094,-0.47997507 H 381.42019 V 303.18425 H 75.196094 Z"
         id="path1" />
    </clipPath>
  </defs></defs><g transform="translate(24.0,24.0) scale(0.7810408580046241) translate(0,0)"><g
     id="g8"
     transform="translate(-0.25127103,1.1057433)">
    <g
       id="g9">
      <path
         style="fill:#AC564A;fill-opacity:1;fill-rule:evenodd;stroke:none"
         d="M 1.5315373,35.750606 C 1.5315373,16.791591 16.89074,1.4323885 35.849755,1.4323885 H 269.47762 c 18.91901,0 34.27821,15.3592025 34.27821,34.3182175 V 269.53846 c 0,18.91902 -15.3592,34.27822 -34.27821,34.27822 H 35.849755 c -18.959015,0 -34.3182177,-15.3592 -34.3182177,-34.27822 z"
         id="path2"
         transform="matrix(1.0163665,0,0,1.019436,-1.1937273,-2.5659717)" />
      <path
         style="fill:none;stroke:#ffffff;stroke-width:19.359px;stroke-linecap:butt;stroke-linejoin:miter;stroke-miterlimit:8;stroke-dasharray:none;stroke-opacity:1"
         clip-path="url(#nirs4all_repository_clip)"
         d="m 78.350886,215.76355 c 4.917688,0.027 13.251861,-0.0312 22.323884,-1.53468 6.67965,-1.47992 11.15942,-3.51981 16.79913,-8.67955 5.6797,-5.15973 10.19947,-8.15957 17.11911,-22.35883 6.95964,-14.15927 19.159,-49.59743 24.47873,-62.67675 5.27972,-13.11932 3.63981,-9.91948 7.31962,-15.83918 3.67981,-5.959687 11.4794,-8.59955 16.51914,-6.839641 5.03974,1.759908 9.39951,4.999741 13.71929,17.319101 4.35977,12.35936 6.23967,27.03859 9.4795,37.67804 3.27983,10.67945 4.39978,18.47904 10.11948,26.35863 5.6797,7.87959 12.48129,8.96263 20.43894,4.99974 6.87614,-5.69367 24.35873,-49.63742 26.59862,-51.67731 2.23988,-2.0399 14.71923,-18.23906 34.23822,6.47966 8.91953,11.39941 25.55867,37.55805 38.79798,52.55727"
         id="path3"
         transform="translate(-78.046472,1.0051295)" />
      <path
         style="fill:#ffffff;fill-opacity:1;fill-rule:evenodd;stroke:none"
         d="m 245.65157,200.51477 c 0,-13.5593 10.99943,-24.55873 24.55873,-24.55873 13.59929,0 24.55872,10.99943 24.55872,24.55873 0,13.59929 -10.95943,24.55872 -24.55872,24.55872 -13.5593,0 -24.55873,-10.95943 -24.55873,-24.55872 z"
         id="path4" />
    </g>
  </g></g>
<path fill="#000000" d="M66.48511135434143 345.7753843985948V382.0H48.3200542680369V316.7973154362416H66.20479056339134V333.7709592268771H63.10766847341651Q66.21838395291525 325.10813365142616 71.94646381147754 320.2685930290478Q77.67454367003984 315.4290524066695 86.55959685664848 315.4290524066695Q93.53305844300544 315.4290524066695 98.66654716338087 318.4335570469799Q103.80003588375628 321.43806168729026 106.62488505728291 327.1803435664849Q109.44973423080955 332.9226254456795 109.44973423080955 341.1618927616401V382.0H91.28467714450503V344.50342452286077Q91.28467714450503 337.9447968553377 88.15725728489407 334.53705620477666Q85.02983742528312 331.1293155542156 79.28255082712876 331.1293155542156Q75.52841616636954 331.1293155542156 72.63871103581165 332.6766593369862Q69.74900590525377 334.22400311975673 68.1170586297976 337.46317933357807Q66.48511135434143 340.70235554739935 66.48511135434143 345.7753843985948Z"/>
<path fill="#E9362D" d="M119.51686962562918 362.1723586933725V347.4995100802223L160.00689263055787 290.0H171.9000004915583V308.14044050178273H165.323729738385L137.8141409854761 347.2947362972821V347.4253889864723H195.30370946282505V362.1723586933725ZM165.40453855783346 382.0V357.72185206061243V351.1325214974832V290.0H183.29299447488464V382.0Z"/>
<path fill="#AC564A" d="M205.39924889890938 382.0V316.7973154362416H222.9369825529572V327.91384392040686H223.11728056837248Q224.90788459521812 322.01723354262793 228.7311356307676 319.1800421593173Q232.5543866663171 316.3428507760067 239.00054759595218 316.3428507760067Q240.62072737520973 316.3428507760067 241.95811792156042 316.3996588585361Q243.29550846791108 316.45646694106546 244.3797310848364 316.5132750235948V332.01105809563757Q243.39553124344587 331.92584597184356 241.13568582214765 331.7980277861525Q238.8758404008494 331.6702096004614 236.55793571728188 331.6702096004614Q232.8433639628775 331.6702096004614 229.88947934144295 333.37066461959944Q226.9355947200084 335.0711196387374 225.24995035261117 338.4072076375052Q223.56430598521393 341.74329563627305 223.56430598521393 346.6668650377517V382.0Z"/>
</svg>
