<svg xmlns="http://www.w3.org/2000/svg" xmlns:xlink="http://www.w3.org/1999/xlink" width="1417.88" height="312.00" viewBox="0 0 1417.8805 312.0000">
<defs><defs
     id="defs1">
    <clipPath
       clipPathUnits="userSpaceOnUse"
       id="nirs4all_studio_clip">
      <path
         d="M 75.196094,-0.47997507 H 381.42019 V 303.18425 H 75.196094 Z"
         id="path1" />
    </clipPath>
  </defs></defs><g transform="translate(28.0,28.0) scale(0.8331102485382658) translate(0,0)"><g
     id="g8"
     transform="translate(-0.25127103,1.1057433)">
    <g
       id="g9">
      <path
         style="fill:#96C800;fill-opacity:1;fill-rule:evenodd;stroke:none"
         d="M 1.5315373,35.750606 C 1.5315373,16.791591 16.89074,1.4323885 35.849755,1.4323885 H 269.47762 c 18.91901,0 34.27821,15.3592025 34.27821,34.3182175 V 269.53846 c 0,18.91902 -15.3592,34.27822 -34.27821,34.27822 H 35.849755 c -18.959015,0 -34.3182177,-15.3592 -34.3182177,-34.27822 z"
         id="path2"
         transform="matrix(1.0163665,0,0,1.019436,-1.1937273,-2.5659717)" />
      <path
         style="fill:none;stroke:#ffffff;stroke-width:19.359px;stroke-linecap:butt;stroke-linejoin:miter;stroke-miterlimit:8;stroke-dasharray:none;stroke-opacity:1"
         clip-path="url(#nirs4all_studio_clip)"
         d="m 78.350886,215.76355 c 4.917688,0.027 13.251861,-0.0312 22.323884,-1.53468 6.67965,-1.47992 11.15942,-3.51981 16.79913,-8.67955 5.6797,-5.15973 10.19947,-8.15957 17.11911,-22.35883 6.95964,-14.15927 19.159,-49.59743 24.47873,-62.67675 5.27972,-13.11932 3.63981,-9.91948 7.31962,-15.83918 3.67981,-5.959687 11.4794,-8.59955 16.51914,-6.839641 5.03974,1.759908 9.39951,4.999741 13.71929,17.319101 4.35977,12.35936 6.23967,27.03859 9.4795,37.67804 3.27983,10.67945 4.39978,18.47904 10.11948,26.35863 5.6797,7.87959 12.48129,8.96263 20.43894,4.99974 6.87614,-5.69367 24.35873,-49.63742 26.59862,-51.67731 2.23988,-2.0399 14.71923,-18.23906 34.23822,6.47966 8.91953,11.39941 25.55867,37.55805 38.79798,52.55727"
         id="path3"
         transform="translate(-78.046472,1.0051295)" />
      <path
         style="fill:#ffffff;fill-opacity:1;fill-rule:evenodd;stroke:none"
         d="m 245.65157,200.51477 c 0,-13.5593 10.99943,-24.55873 24.55873,-24.55873 13.59929,0 24.55872,10.99943 24.55872,24.55873 0,13.59929 -10.95943,24.55872 -24.55872,24.55872 -13.5593,0 -24.55873,-10.95943 -24.55873,-24.55872 z"
         id="path4" />
    </g>
  </g></g>
<path fill="#FFFFFF" d="M352.85830307518876 167.71123472892197V215.0H332.8381672084732V131.37046979865772H352.51301564466235V152.64210704829068H348.59763773463715Q352.6302318188968 141.45981936870805 359.9699896281197 135.56618046088505Q367.3097474373427 129.67254155306208 378.20688804268036 129.67254155306208Q386.9943115234375 129.67254155306208 393.7068588768876 133.46912751677854Q400.4194062303377 137.26571348049498 404.2207630131869 144.63081415163592Q408.02211979603607 151.99591482277685 408.02211979603607 162.7632330772861V215.0H388.0019839293205V165.93726339660236Q388.0019839293205 156.71260666815226 383.5987305506764 151.96406585898174Q379.1954771720323 147.21552504981122 371.1397436359585 147.21552504981122Q365.8970242698721 147.21552504981122 361.7630297360004 149.35696062945678Q357.62903520212876 151.49839620910234 355.2436691386588 156.02360757917364Q352.85830307518876 160.54881894924495 352.85830307518876 167.71123472892197Z M425.733469221896 215.0V131.37046979865772H445.75360508861155V215.0ZM435.71502824821727 118.93358719588926Q430.60227624265934 118.93358719588926 427.1826816635644 115.6599563642797Q423.76308708446936 112.38632553267013 423.76308708446936 107.55806576790289Q423.76308708446936 102.72416123767826 427.1826816635644 99.47562010080222Q430.60227624265934 96.22707896392616 435.67812201247085 96.22707896392616Q440.8196348517647 96.22707896392616 444.24330213186494 99.47256557504829Q447.66696941196517 102.71805218617044 447.66696941196517 107.59497305416396Q447.66696941196517 112.40799601510066 444.23827390133334 115.67079160549497Q440.8095783907015 118.93358719588926 435.71502824821727 118.93358719588926Z M463.430113517198 215.0V131.37046979865772H482.70265670878774V145.25801010643875H482.96241741820467Q485.2590617135067 138.0513276989828 490.19130564440013 134.30541295813234Q495.1235495752936 130.55949821728188 503.24890710203437 130.55949821728188Q505.24143705432044 130.55949821728188 506.8997679844798 130.66086966495385Q508.55809891463923 130.76224111262582 509.74916992187497 130.8636125602978V148.60303586409395Q508.6436256357487 148.45097869258598 505.9589450503355 148.222892935324Q503.27426446492234 147.99480717806208 500.315554215604 147.99480717806208Q495.608229996854 147.99480717806208 491.7625340813758 150.16157111865562Q487.9168381658976 152.32833505924916 485.6835437749056 156.68563003027998Q483.45024938391356 161.04292500131083 483.45024938391356 167.62877254614094V215.0Z M554.0127814990561 216.98619786204907Q543.8093963008598 216.98619786204907 535.7394953170879 213.7851619029205Q527.6695943333158 210.58412594379195 522.7706301285916 204.36260560310927Q517.8716659238673 198.1410852624266 517.203267879614 189.147738340237H536.9509788564387Q537.6067127202181 195.25211501153524 541.8975062427904 198.62741396091127Q546.1882997653628 202.00271291028733 553.6389851614932 202.00271291028733Q560.8964402986052 202.00271291028733 565.0415232408766 199.14375483365666Q569.186606183148 196.28479675702602 569.186606183148 191.8530199703754Q569.186606183148 188.0706449572672 566.1296760303062 185.7613074795512Q563.0727458774643 183.45197000183515 557.7635250629194 182.35590935009438L543.5021884175754 179.416195371487Q531.5184707948824 176.90096345427852 525.3112049077181 170.8188216036598Q519.1039390205536 164.7366797530411 519.1039390205536 155.25868141123112Q519.1039390205536 147.58949539901425 523.2584765952705 141.80037948301174Q527.4130141699874 136.01126356700922 535.004581323406 132.7832944729184Q542.5961484768246 129.5553253788276 552.8280425820574 129.5553253788276Q562.9648973298553 129.5553253788276 570.6641680211828 132.95593818818162Q578.3634387125104 136.35655099753563 582.769814633363 142.57490529309982Q587.1761905542155 148.793259588664 587.413774446833 157.39378490063967H568.6227021287751Q568.5435074979026 151.82477437473784 564.3255765159657 148.1532834456271Q560.1076455340288 144.48179251651635 553.2841850946413 144.48179251651635Q546.7141532744337 144.48179251651635 542.890605173815 147.4199452240195Q539.0670570731962 150.35809793152265 539.0670570731962 154.63148545642827Q539.0670570731962 158.3853515625 542.0242060514104 160.73428635565227Q544.9813550296245 163.0832211488045 550.1733886718749 164.22363543414428L565.2329747142408 167.33440285497062Q577.6981922124055 169.9573383100881 583.563336714162 175.56273660339764Q589.4284812159185 181.16813489670722 589.4284812159185 190.33886735135277Q589.4284812159185 198.49906587536702 584.889058895239 204.4845780955065Q580.3496365745596 210.47009031564596 572.3478418132602 213.7281440888475Q564.3460470519609 216.98619786204907 554.0127814990561 216.98619786204907Z"/>
<path fill="#E9362D" d="M598.6723082267198 188.54257419253355V172.08929025534815L652.116135892932 96.99999999999999H665.1894080654886V117.84382963244546H657.8767345715536L619.7030360279467 171.54461888818278V171.7091328256082H694.1238702351615V188.54257419253355ZM657.9986283884753 215.0V183.57554726824665V176.09331742869128V96.99999999999999H677.8350466324979V215.0Z"/>
<path fill="#FFFFFF" d="M733.0656548212038 216.3526408150692Q724.7217096725566 216.3526408150692 718.2055731242135 213.5586519177328Q711.6894365758703 210.7646630203964 707.9197692461462 205.17351918060507Q704.1501019164219 199.58237534081377 704.1501019164219 191.26693909920303Q704.1501019164219 184.11724550388004 706.8332212307308 179.47486146248428Q709.5163405450397 174.8324774210885 714.1143854538066 172.05908956847736Q718.7124303625733 169.2857017158662 724.6488616328911 167.83961181640626Q730.5852929032088 166.3935219169463 737.012722184354 165.71561123636744Q744.7833086461828 164.83495766044462 749.3338338762321 164.18081406970953Q753.8843591062814 163.5266704789744 755.8388820161755 162.20253857094167Q757.7934049260696 160.87840666290896 757.7934049260696 158.02421940541106V157.4033265389052Q757.7934049260696 153.80784969457844 755.9719139150325 151.0676835642565Q754.1504229039953 148.32751743393456 750.7339363661388 146.76419685927013Q747.3174498282822 145.2008762846057 742.5118767040688 145.2008762846057Q737.6999714896182 145.2008762846057 734.0237242423448 146.75627449598886Q730.3474769950712 148.31167270737205 728.1933627339818 151.05341460976825Q726.0392484728922 153.79515651216443 725.7224699494022 157.36527599360318H706.5195797504194Q707.0295885329277 149.02769193713297 711.5278377660968 142.82042604996855Q716.0260869992659 136.6131601628041 724.019973898254 133.14285085793307Q732.0138607972419 129.67254155306208 742.9680192166526 129.67254155306208Q751.1091924680159 129.67254155306208 757.5508617017092 131.63815287135589Q763.9925309354026 133.60376418964972 768.4638470336095 137.30373502385694Q772.9351631318162 141.00370585806417 775.2666484243917 146.2289612226038Q777.5981337169673 151.45421658714343 777.5981337169673 157.97350467963506V215.0H757.9644583682885V203.1778231832005H757.6476798447986Q755.6868393456375 206.8999418322672 752.5285667470637 209.89191730678482Q749.3702941484898 212.88389278130242 744.6201920682151 214.6182667981858Q739.8700899879403 216.3526408150692 733.0656548212038 216.3526408150692ZM737.9882701080116 201.54969293991192Q744.4854683895238 201.54969293991192 748.9346511738411 199.17858132996014Q753.3838339581584 196.80746972000838 755.645637256187 192.8540412646812Q757.9074405542156 188.90061280935402 757.9074405542156 184.06337923395554V174.97811549653943Q756.9729497103083 175.5768315462458 755.1593810625524 176.12486187211618Q753.3458124147965 176.67289219798658 750.8527428134175 177.18132520842073Q748.3596732120385 177.68975821885488 745.4484536394975 178.17284836737102Q742.5372340669567 178.65593851588716 739.4581270973154 179.10259739408556Q735.1974327548237 179.70764553402893 731.5940480481856 181.09514184734164Q727.9906633415477 182.48263816065435 725.8112062185402 184.88066840459834Q723.6317490955327 187.27869864854236 723.6317490955327 191.0895825686871Q723.6317490955327 194.3429235266359 725.4025543827338 196.69819041002518Q727.1733596699349 199.05345729341443 730.3981917208473 200.30157511666317Q733.6230237717596 201.54969293991192 737.9882701080116 201.54969293991192Z M815.2757527396183 96.99999999999999V215.0H795.2556168729026V96.99999999999999Z M852.9723970349203 96.99999999999999V215.0H832.9522611682046V96.99999999999999Z M923.9341118524537 159.60180893456376V176.32121467334312H870.987802799916V159.60180893456376Z"/>
<path fill="#96C800" d="M974.7738553245595 216.98619786204907Q964.5704701263631 216.98619786204907 956.5005691425911 213.7851619029205Q948.4306681588191 210.58412594379195 943.5317039540948 204.36260560310927Q938.6327397493707 198.1410852624266 937.9643417051174 189.147738340237H957.712052681942Q958.3677865457214 195.25211501153524 962.6585800682938 198.62741396091127Q966.9493735908661 202.00271291028733 974.4000589869966 202.00271291028733Q981.6575141241085 202.00271291028733 985.8025970663799 199.14375483365666Q989.9476800086513 196.28479675702602 989.9476800086513 191.8530199703754Q989.9476800086513 188.0706449572672 986.8907498558094 185.7613074795512Q983.8338197029676 183.45197000183515 978.5245988884227 182.35590935009438L964.2632622430788 179.416195371487Q952.2795446203858 176.90096345427852 946.0722787332213 170.8188216036598Q939.865012846057 164.7366797530411 939.865012846057 155.25868141123112Q939.865012846057 147.58949539901425 944.0195504207738 141.80037948301174Q948.1740879954907 136.01126356700922 955.7656551489093 132.7832944729184Q963.357222302328 129.5553253788276 973.5891164075607 129.5553253788276Q983.7259711553586 129.5553253788276 991.4252418466862 132.95593818818162Q999.1245125380137 136.35655099753563 1003.5308884588662 142.57490529309982Q1007.9372643797188 148.793259588664 1008.1748482723364 157.39378490063967H989.3837759542785Q989.304581323406 151.82477437473784 985.0866503414691 148.1532834456271Q980.8687193595322 144.48179251651635 974.0452589201446 144.48179251651635Q967.475227099937 144.48179251651635 963.6516789993183 147.4199452240195Q959.8281308986996 150.35809793152265 959.8281308986996 154.63148545642827Q959.8281308986996 158.3853515625 962.7852798769137 160.73428635565227Q965.7424288551279 163.0832211488045 970.9344624973783 164.22363543414428L985.994048539744 167.33440285497062Q998.4592660379088 169.9573383100881 1004.3244105396653 175.56273660339764Q1010.1895550414218 181.16813489670722 1010.1895550414218 190.33886735135277Q1010.1895550414218 198.49906587536702 1005.6501327207422 204.4845780955065Q1001.1107104000628 210.47009031564596 993.1089156387635 213.7281440888475Q985.1071208774642 216.98619786204907 974.7738553245595 216.98619786204907Z M1067.9889423959207 131.37046979865772V147.4372932178062H1016.3036183606857V131.37046979865772ZM1030.9071198943477 108.56241610738255H1050.9272557610632V191.02001658190017Q1050.9272557610632 195.45176436661075 1052.747156499056 197.19247047373113Q1054.567057237049 198.93317658085152 1059.4296191733954 198.93317658085152Q1061.3651313116086 198.93317658085152 1063.8914226352767 198.93317658085152Q1066.417713958945 198.93317658085152 1067.9889423959207 198.93317658085152V215.0Q1065.9013730861996 215.0 1062.5483089575032 215.0Q1059.1952448288066 215.0 1055.9388103305894 215.0Q1043.115699225304 215.0 1037.011409559826 209.83177695050335Q1030.9071198943477 204.6635539010067 1030.9071198943477 193.92798310350253Z M1110.329909028943 216.69792824559565Q1101.6216801790583 216.69792824559565 1094.869535510172 212.90134228187918Q1088.1173908412857 209.10475631816274 1084.3160340584363 201.7143127851038Q1080.5146772755872 194.3238692520449 1080.5146772755872 183.60723672137163V131.37046979865772H1100.534813142303V180.43320640205536Q1100.534813142303 189.62935422346897 1104.9776638363833 194.39214948615773Q1109.4205145304636 199.15494474884648 1117.397053435665 199.15494474884648Q1122.6397728017514 199.15494474884648 1126.773767335623 197.01350916920092Q1130.9077618694946 194.87207358955536 1133.2931279329646 190.32151935756605Q1135.6784939964346 185.77096512557677 1135.6784939964346 178.65923506973573V131.37046979865772H1155.6986298631502V215.0H1136.023781426961V193.72836275036704H1139.9391593369862Q1135.9065652527265 204.8599647061137 1128.5810618970218 210.77894647585467Q1121.2555585413172 216.69792824559565 1110.329909028943 216.69792824559565Z M1205.7467170459313 216.69792824559565Q1194.8685437093645 216.69792824559565 1186.700408321099 211.22241030699456Q1178.5322729328336 205.74689236839345 1174.0324334266202 195.93784654860528Q1169.532593920407 186.1288007288171 1169.532593920407 173.12821708525587Q1169.532593920407 160.2480011600776 1174.0751967871752 150.45320979380767Q1178.6177996539432 140.65841842753775 1186.7716805886903 135.1654799902999Q1194.9255615234376 129.67254155306208 1205.6326814177853 129.67254155306208Q1211.0971109479867 129.67254155306208 1215.8044496677066 131.1598190410025Q1220.5117883874268 132.64709652894294 1224.3083888521132 135.63590595834205Q1228.1049893167997 138.6247153877412 1230.7690978594276 143.2116718881082H1230.898978214136V96.99999999999999H1250.9191140808516V215.0H1231.215756737626V202.2148234322567H1231.0858763829174Q1228.475605108274 207.07420482251467 1224.6283189197516 210.299007871487Q1220.781032731229 213.5238109204593 1216.0103441071992 215.11086958302747Q1211.2396554831691 216.69792824559565 1205.7467170459313 216.69792824559565ZM1210.4571058030097 199.99121568923027Q1216.992296625944 199.99121568923027 1221.8390428376679 196.66660246369023Q1226.6857890493918 193.34198923815018 1229.3467460478714 187.29147883677643Q1232.0077030463508 181.2409684354027 1232.0077030463508 173.12821708525587Q1232.0077030463508 164.96478001127306 1229.3467460478714 158.94277851693582Q1226.6857890493918 152.92077702259857 1221.8390428376679 149.59616379705852Q1216.992296625944 146.27155057151845 1210.4571058030097 146.27155057151845Q1204.305223953964 146.27155057151845 1199.6342875026216 149.39342090171453Q1194.9633510512795 152.51529123191065 1192.36574395711 158.48660700241192Q1189.7681368629405 164.45792277291315 1189.7681368629405 173.12821708525587Q1189.7681368629405 181.74782567376258 1192.36574395711 187.74765035130034Q1194.9633510512795 193.7474750288381 1199.6342875026216 196.86934535903418Q1204.305223953964 199.99121568923027 1210.4571058030097 199.99121568923027Z M1268.601925597735 215.0V131.37046979865772H1288.6220614644508V215.0ZM1278.5834846240564 118.93358719588926Q1273.4707326184985 118.93358719588926 1270.0511380394034 115.6599563642797Q1266.6315434603084 112.38632553267013 1266.6315434603084 107.55806576790289Q1266.6315434603084 102.72416123767826 1270.0511380394034 99.47562010080222Q1273.4707326184985 96.22707896392616 1278.54657838831 96.22707896392616Q1283.6880912276038 96.22707896392616 1287.111758507704 99.47256557504829Q1290.5354257878043 102.71805218617044 1290.5354257878043 107.59497305416396Q1290.5354257878043 112.40799601510066 1287.1067302771726 115.67079160549497Q1283.6780347665406 118.93358719588926 1278.5834846240564 118.93358719588926Z M1343.6783196570893 216.9006711409396Q1331.4031808737943 216.9006711409396 1322.0962504751733 211.40297638553903Q1312.7893200765523 205.90528163013843 1307.6052523004932 196.0851474019505Q1302.421184524434 186.26501317376258 1302.421184524434 173.28660634700083Q1302.421184524434 160.2575137964031 1307.6052523004932 150.40094829789743Q1312.7893200765523 140.54438279939177 1322.0962504751733 135.00709072855494Q1331.4031808737943 129.46979865771812 1343.6783196570893 129.46979865771812Q1356.0326530712566 129.46979865771812 1365.2999861544413 135.00709072855494Q1374.5673192376262 140.54438279939177 1379.7513870136854 150.40094829789743Q1384.9354547897444 160.2575137964031 1384.9354547897444 173.28660634700083Q1384.9354547897444 186.26501317376258 1379.7513870136854 196.0851474019505Q1374.5673192376262 205.90528163013843 1365.2999861544413 211.40297638553903Q1356.0326530712566 216.9006711409396 1343.6783196570893 216.9006711409396ZM1343.6783196570893 200.20029067481124Q1350.11531957844 200.20029067481124 1354.8258533452185 196.94694971686243Q1359.5363871119969 193.6936087589136 1362.1181494796037 187.6320099491401Q1364.6999118472108 181.5704111393666 1364.6999118472108 173.28660634700083Q1364.6999118472108 164.8729211999266 1362.1181494796037 158.82557684367134Q1359.5363871119969 152.77823248741612 1354.8258533452185 149.4742058056313Q1350.11531957844 146.17017912384648 1343.6783196570893 146.17017912384648Q1337.3205143666112 146.17017912384648 1332.5703832843965 149.4488629437133Q1327.8202522021816 152.7275467635801 1325.2384898345745 158.80023398175337Q1322.6567274669676 164.8729211999266 1322.6567274669676 173.28660634700083Q1322.6567274669676 181.62109686320258 1325.2384898345745 187.6573528110581Q1327.8202522021816 193.6936087589136 1332.5450404224785 196.94694971686243Q1337.269828642775 200.20029067481124 1343.6783196570893 200.20029067481124Z"/>
</svg>
