<svg xmlns="http://www.w3.org/2000/svg" xmlns:xlink="http://www.w3.org/1999/xlink" width="288.00" height="407.58" viewBox="0 0 288.0000 407.5819">
<defs><defs
     id="defs1">
    <clipPath
       clipPathUnits="userSpaceOnUse"
       id="nirs4all_studio_clip">
      <path
         d="M 75.196094,-0.47997507 H 381.42019 V 303.18425 H 75.196094 Z"
         id="path1" />
    </clipPath>
  </defs></defs><g transform="translate(24.0,24.0) scale(0.7810408580046241) translate(0,0)"><g
     id="g8"
     transform="translate(-0.25127103,1.1057433)">
    <g
       id="g9">
      <path
         style="fill:#96C800;fill-opacity:1;fill-rule:evenodd;stroke:none"
         d="M 1.5315373,35.750606 C 1.5315373,16.791591 16.89074,1.4323885 35.849755,1.4323885 H 269.47762 c 18.91901,0 34.27821,15.3592025 34.27821,34.3182175 V 269.53846 c 0,18.91902 -15.3592,34.27822 -34.27821,34.27822 H 35.849755 c -18.959015,0 -34.3182177,-15.3592 -34.3182177,-34.27822 z"
         id="path2"
         transform="matrix(1.0163665,0,0,1.019436,-1.1937273,-2.5659717)" />
      <path
         style="fill:none;stroke:#ffffff;stroke-width:19.359px;stroke-linecap:butt;stroke-linejoin:miter;stroke-miterlimit:8;stroke-dasharray:none;stroke-opacity:1"
         clip-path="url(#nirs4all_studio_clip)"
         d="m 78.350886,215.76355 c 4.917688,0.027 13.251861,-0.0312 22.323884,-1.53468 6.67965,-1.47992 11.15942,-3.51981 16.79913,-8.67955 5.6797,-5.15973 10.19947,-8.15957 17.11911,-22.35883 6.95964,-14.15927 19.159,-49.59743 24.47873,-62.67675 5.27972,-13.11932 3.63981,-9.91948 7.31962,-15.83918 3.67981,-5.959687 11.4794,-8.59955 16.51914,-6.839641 5.03974,1.759908 9.39951,4.999741 13.71929,17.319101 4.35977,12.35936 6.23967,27.03859 9.4795,37.67804 3.27983,10.67945 4.39978,18.47904 10.11948,26.35863 5.6797,7.87959 12.48129,8.96263 20.43894,4.99974 6.87614,-5.69367 24.35873,-49.63742 26.59862,-51.67731 2.23988,-2.0399 14.71923,-18.23906 34.23822,6.47966 8.91953,11.39941 25.55867,37.55805 38.79798,52.55727"
         id="path3"
         transform="translate(-78.046472,1.0051295)" />
      <path
         style="fill:#ffffff;fill-opacity:1;fill-rule:evenodd;stroke:none"
         d="m 245.65157,200.51477 c 0,-13.5593 10.99943,-24.55873 24.55873,-24.55873 13.59929,0 24.55872,10.99943 24.55872,24.55873 0,13.59929 -10.95943,24.55872 -24.55872,24.55872 -13.5593,0 -24.55873,-10.95943 -24.55873,-24.55872 z"
         id="path4" />
    </g>
  </g></g>
<path fill="#FFFFFF" d="M57.192493904676994 345.7753843985948V382.0H39.027436818372465V316.7973154362416H56.91217311372691V333.7709592268771H53.815051023752076Q56.92576650325082 325.10813365142616 62.65384636181311 320.2685930290478Q68.38192622037539 315.4290524066695 77.26697940698403 315.4290524066695Q84.240440993341 315.4290524066695 89.37392971371642 318.4335570469799Q94.50741843409185 321.43806168729026 97.33226760761849 327.1803435664849Q100.15711678114512 332.9226254456795 100.15711678114512 341.1618927616401V382.0H81.99205969484058V344.50342452286077Q81.99205969484058 337.9447968553377 78.86463983522964 334.53705620477666Q75.73721997561869 331.1293155542156 69.98993337746433 331.1293155542156Q66.23579871670509 331.1293155542156 63.346093586147205 332.6766593369862Q60.45638845558933 334.22400311975673 58.824441180133164 337.46317933357807Q57.192493904676994 340.70235554739935 57.192493904676994 345.7753843985948Z"/>
<path fill="#E9362D" d="M110.22425217596475 362.1723586933725V347.4995100802223L150.71427518089345 290.0H162.60738304189385V308.14044050178273H156.03111228872055L128.52152353581164 347.2947362972821V347.4253889864723H186.01109201316063V362.1723586933725ZM156.11192110816904 382.0V357.72185206061243V351.1325214974832V290.0H174.0003770252202V382.0Z"/>
<path fill="#96C800" d="M223.16309937342697 383.5819019701657Q214.71891745752933 383.5819019701657 208.12150510237518 380.9805994225828Q201.52409274722103 378.379296875 197.55452717006602 373.43415404454174Q193.58496159291104 368.48901121408346 193.01938312709729 361.521703773857H210.92758657980283Q211.41660942743286 365.7587071361158 214.48968964647122 368.1624664921088Q217.5627698655096 370.5662258481019 222.84943765729864 370.5662258481019Q227.9409967819316 370.5662258481019 230.8282334705327 368.64283283412857Q233.7154701591338 366.71943982015523 233.7154701591338 363.6975882511011Q233.7154701591338 361.12648172058516 231.49880551331793 359.53714050702604Q229.28214086750208 357.94779929346686 225.2649984270134 357.1599253814492L213.8348082267198 354.9568541251573Q204.35820705746642 353.0958486262584 199.4297346895973 348.2982715171455Q194.50126232172818 343.5006944080327 194.50126232172818 335.9665912397756Q194.50126232172818 329.77606668152265 197.8626433711724 325.1513822619547Q201.2240244206166 320.52669784238674 207.4318280725671 317.9710784297662Q213.63963172451759 315.41545901714557 222.11715456559352 315.41545901714557Q230.57614713323193 315.41545901714557 236.87903667680365 318.11123882524123Q243.1819262203754 320.80701863333684 246.74521263173762 325.73302255924915Q250.3084990430998 330.65902648516146 250.49373394242866 337.47565721345427H233.64256632760066Q233.5808213611577 333.5560351890206 230.5312082994704 330.96024423893664Q227.4815952377831 328.36445328885276 222.65060936844586 328.36445328885276Q217.96164370543204 328.36445328885276 215.2806406315541 330.34959126926907Q212.59963755767615 332.3347292496854 212.59963755767615 335.2330908858536Q212.59963755767615 337.7708564911913 214.69960896536804 339.3910701879719Q216.79958037305997 341.0112838847525 220.5253109925545 341.789284028943L232.88904709783975 344.1924008363045Q242.77439587484267 346.14849222682466 247.44168635630763 350.49657547713923Q252.10897683777262 354.84465872745386 252.10897683777262 362.05028952784187Q252.10897683777262 368.56806919174704 248.43640251415684 373.407001183017Q244.7638281905411 378.2459331742869 238.23062924378667 380.9139175722263Q231.69743029703227 383.5819019701657 223.16309937342697 383.5819019701657Z"/>
</svg>
