<svg xmlns="http://www.w3.org/2000/svg" xmlns:xlink="http://www.w3.org/1999/xlink" width="1275.17" height="312.00" viewBox="0 0 1275.1718 312.0000">
<defs><defs
     id="defs1">
    <clipPath
       clipPathUnits="userSpaceOnUse"
       id="nirs4all_web_clip">
      <path
         d="M 75.196094,-0.47997507 H 381.42019 V 303.18425 H 75.196094 Z"
         id="path1" />
    </clipPath>
  </defs></defs><g transform="translate(28.0,28.0) scale(0.8331102485382658) translate(0,0)"><g
     id="g8"
     transform="translate(-0.25127103,1.1057433)">
    <g
       id="g9">
      <path
         style="fill:#FF6400;fill-opacity:1;fill-rule:evenodd;stroke:none"
         d="M 1.5315373,35.750606 C 1.5315373,16.791591 16.89074,1.4323885 35.849755,1.4323885 H 269.47762 c 18.91901,0 34.27821,15.3592025 34.27821,34.3182175 V 269.53846 c 0,18.91902 -15.3592,34.27822 -34.27821,34.27822 H 35.849755 c -18.959015,0 -34.3182177,-15.3592 -34.3182177,-34.27822 z"
         id="path2"
         transform="matrix(1.0163665,0,0,1.019436,-1.1937273,-2.5659717)" />
      <path
         style="fill:none;stroke:#ffffff;stroke-width:19.359px;stroke-linecap:butt;stroke-linejoin:miter;stroke-miterlimit:8;stroke-dasharray:none;stroke-opacity:1"
         clip-path="url(#nirs4all_web_clip)"
         d="m 78.350886,215.76355 c 4.917688,0.027 13.251861,-0.0312 22.323884,-1.53468 6.67965,-1.47992 11.15942,-3.51981 16.79913,-8.67955 5.6797,-5.15973 10.19947,-8.15957 17.11911,-22.35883 6.95964,-14.15927 19.159,-49.59743 24.47873,-62.67675 5.27972,-13.11932 3.63981,-9.91948 7.31962,-15.83918 3.67981,-5.959687 11.4794,-8.59955 16.51914,-6.839641 5.03974,1.759908 9.39951,4.999741 13.71929,17.319101 4.35977,12.35936 6.23967,27.03859 9.4795,37.67804 3.27983,10.67945 4.39978,18.47904 10.11948,26.35863 5.6797,7.87959 12.48129,8.96263 20.43894,4.99974 6.87614,-5.69367 24.35873,-49.63742 26.59862,-51.67731 2.23988,-2.0399 14.71923,-18.23906 34.23822,6.47966 8.91953,11.39941 25.55867,37.55805 38.79798,52.55727"
         id="path3"
         transform="translate(-78.046472,1.0051295)" />
      <path
         style="fill:#ffffff;fill-opacity:1;fill-rule:evenodd;stroke:none"
         d="m 245.65157,200.51477 c 0,-13.5593 10.99943,-24.55873 24.55873,-24.55873 13.59929,0 24.55872,10.99943 24.55872,24.55873 0,13.59929 -10.95943,24.55872 -24.55872,24.55872 -13.5593,0 -24.55873,-10.95943 -24.55873,-24.55872 z"
         id="path4" />
    </g>
  </g></g>
<path fill="#FFFFFF" d="M352.85830307518876 167.71123472892197V215.0H332.8381672084732V131.37046979865772H352.51301564466235V152.64210704829068H348.59763773463715Q352.6302318188968 141.45981936870805 359.9699896281197 135.56618046088505Q367.3097474373427 129.67254155306208 378.20688804268036 129.67254155306208Q386.9943115234375 129.67254155306208 393.7068588768876 133.46912751677854Q400.4194062303377 137.26571348049498 404.2207630131869 144.63081415163592Q408.02211979603607 151.99591482277685 408.02211979603607 162.7632330772861V215.0H388.0019839293205V165.93726339660236Q388.0019839293205 156.71260666815226 383.5987305506764 151.96406585898174Q379.1954771720323 147.21552504981122 371.1397436359585 147.21552504981122Q365.8970242698721 147.21552504981122 361.7630297360004 149.35696062945678Q357.62903520212876 151.49839620910234 355.2436691386588 156.02360757917364Q352.85830307518876 160.54881894924495 352.85830307518876 167.71123472892197Z M425.733469221896 215.0V131.37046979865772H445.75360508861155V215.0ZM435.71502824821727 118.93358719588926Q430.60227624265934 118.93358719588926 427.1826816635644 115.6599563642797Q423.76308708446936 112.38632553267013 423.76308708446936 107.55806576790289Q423.76308708446936 102.72416123767826 427.1826816635644 99.47562010080222Q430.60227624265934 96.22707896392616 435.67812201247085 96.22707896392616Q440.8196348517647 96.22707896392616 444.24330213186494 99.47256557504829Q447.66696941196517 102.71805218617044 447.66696941196517 107.59497305416396Q447.66696941196517 112.40799601510066 444.23827390133334 115.67079160549497Q440.8095783907015 118.93358719588926 435.71502824821727 118.93358719588926Z M463.430113517198 215.0V131.37046979865772H482.70265670878774V145.25801010643875H482.96241741820467Q485.2590617135067 138.0513276989828 490.19130564440013 134.30541295813234Q495.1235495752936 130.55949821728188 503.24890710203437 130.55949821728188Q505.24143705432044 130.55949821728188 506.8997679844798 130.66086966495385Q508.55809891463923 130.76224111262582 509.74916992187497 130.8636125602978V148.60303586409395Q508.6436256357487 148.45097869258598 505.9589450503355 148.222892935324Q503.27426446492234 147.99480717806208 500.315554215604 147.99480717806208Q495.608229996854 147.99480717806208 491.7625340813758 150.16157111865562Q487.9168381658976 152.32833505924916 485.6835437749056 156.68563003027998Q483.45024938391356 161.04292500131083 483.45024938391356 167.62877254614094V215.0Z M554.0127814990561 216.98619786204907Q543.8093963008598 216.98619786204907 535.7394953170879 213.7851619029205Q527.6695943333158 210.58412594379195 522.7706301285916 204.36260560310927Q517.8716659238673 198.1410852624266 517.203267879614 189.147738340237H536.9509788564387Q537.6067127202181 195.25211501153524 541.8975062427904 198.62741396091127Q546.1882997653628 202.00271291028733 553.6389851614932 202.00271291028733Q560.8964402986052 202.00271291028733 565.0415232408766 199.14375483365666Q569.186606183148 196.28479675702602 569.186606183148 191.8530199703754Q569.186606183148 188.0706449572672 566.1296760303062 185.7613074795512Q563.0727458774643 183.45197000183515 557.7635250629194 182.35590935009438L543.5021884175754 179.416195371487Q531.5184707948824 176.90096345427852 525.3112049077181 170.8188216036598Q519.1039390205536 164.7366797530411 519.1039390205536 155.25868141123112Q519.1039390205536 147.58949539901425 523.2584765952705 141.80037948301174Q527.4130141699874 136.01126356700922 535.004581323406 132.7832944729184Q542.5961484768246 129.5553253788276 552.8280425820574 129.5553253788276Q562.9648973298553 129.5553253788276 570.6641680211828 132.95593818818162Q578.3634387125104 136.35655099753563 582.769814633363 142.57490529309982Q587.1761905542155 148.793259588664 587.413774446833 157.39378490063967H568.6227021287751Q568.5435074979026 151.82477437473784 564.3255765159657 148.1532834456271Q560.1076455340288 144.48179251651635 553.2841850946413 144.48179251651635Q546.7141532744337 144.48179251651635 542.890605173815 147.4199452240195Q539.0670570731962 150.35809793152265 539.0670570731962 154.63148545642827Q539.0670570731962 158.3853515625 542.0242060514104 160.73428635565227Q544.9813550296245 163.0832211488045 550.1733886718749 164.22363543414428L565.2329747142408 167.33440285497062Q577.6981922124055 169.9573383100881 583.563336714162 175.56273660339764Q589.4284812159185 181.16813489670722 589.4284812159185 190.33886735135277Q589.4284812159185 198.49906587536702 584.889058895239 204.4845780955065Q580.3496365745596 210.47009031564596 572.3478418132602 213.7281440888475Q564.3460470519609 216.98619786204907 554.0127814990561 216.98619786204907Z"/>
<path fill="#E9362D" d="M598.6723082267198 188.54257419253355V172.08929025534815L652.116135892932 96.99999999999999H665.1894080654886V117.84382963244546H657.8767345715536L619.7030360279467 171.54461888818278V171.7091328256082H694.1238702351615V188.54257419253355ZM657.9986283884753 215.0V183.57554726824665V176.09331742869128V96.99999999999999H677.8350466324979V215.0Z"/>
<path fill="#FFFFFF" d="M733.0656548212038 216.3526408150692Q724.7217096725566 216.3526408150692 718.2055731242135 213.5586519177328Q711.6894365758703 210.7646630203964 707.9197692461462 205.17351918060507Q704.1501019164219 199.58237534081377 704.1501019164219 191.26693909920303Q704.1501019164219 184.11724550388004 706.8332212307308 179.47486146248428Q709.5163405450397 174.8324774210885 714.1143854538066 172.05908956847736Q718.7124303625733 169.2857017158662 724.6488616328911 167.83961181640626Q730.5852929032088 166.3935219169463 737.012722184354 165.71561123636744Q744.7833086461828 164.83495766044462 749.3338338762321 164.18081406970953Q753.8843591062814 163.5266704789744 755.8388820161755 162.20253857094167Q757.7934049260696 160.87840666290896 757.7934049260696 158.02421940541106V157.4033265389052Q757.7934049260696 153.80784969457844 755.9719139150325 151.0676835642565Q754.1504229039953 148.32751743393456 750.7339363661388 146.76419685927013Q747.3174498282822 145.2008762846057 742.5118767040688 145.2008762846057Q737.6999714896182 145.2008762846057 734.0237242423448 146.75627449598886Q730.3474769950712 148.31167270737205 728.1933627339818 151.05341460976825Q726.0392484728922 153.79515651216443 725.7224699494022 157.36527599360318H706.5195797504194Q707.0295885329277 149.02769193713297 711.5278377660968 142.82042604996855Q716.0260869992659 136.6131601628041 724.019973898254 133.14285085793307Q732.0138607972419 129.67254155306208 742.9680192166526 129.67254155306208Q751.1091924680159 129.67254155306208 757.5508617017092 131.63815287135589Q763.9925309354026 133.60376418964972 768.4638470336095 137.30373502385694Q772.9351631318162 141.00370585806417 775.2666484243917 146.2289612226038Q777.5981337169673 151.45421658714343 777.5981337169673 157.97350467963506V215.0H757.9644583682885V203.1778231832005H757.6476798447986Q755.6868393456375 206.8999418322672 752.5285667470637 209.89191730678482Q749.3702941484898 212.88389278130242 744.6201920682151 214.6182667981858Q739.8700899879403 216.3526408150692 733.0656548212038 216.3526408150692ZM737.9882701080116 201.54969293991192Q744.4854683895238 201.54969293991192 748.9346511738411 199.17858132996014Q753.3838339581584 196.80746972000838 755.645637256187 192.8540412646812Q757.9074405542156 188.90061280935402 757.9074405542156 184.06337923395554V174.97811549653943Q756.9729497103083 175.5768315462458 755.1593810625524 176.12486187211618Q753.3458124147965 176.67289219798658 750.8527428134175 177.18132520842073Q748.3596732120385 177.68975821885488 745.4484536394975 178.17284836737102Q742.5372340669567 178.65593851588716 739.4581270973154 179.10259739408556Q735.1974327548237 179.70764553402893 731.5940480481856 181.09514184734164Q727.9906633415477 182.48263816065435 725.8112062185402 184.88066840459834Q723.6317490955327 187.27869864854236 723.6317490955327 191.0895825686871Q723.6317490955327 194.3429235266359 725.4025543827338 196.69819041002518Q727.1733596699349 199.05345729341443 730.3981917208473 200.30157511666317Q733.6230237717596 201.54969293991192 737.9882701080116 201.54969293991192Z M815.2757527396183 96.99999999999999V215.0H795.2556168729026V96.99999999999999Z M852.9723970349203 96.99999999999999V215.0H832.9522611682046V96.99999999999999Z M923.9341118524537 159.60180893456376V176.32121467334312H870.987802799916V159.60180893456376Z"/>
<path fill="#FF6400" d="M960.3542454252306 215.0 934.492442127202 131.37046979865772H955.4882419253355L964.1110310599307 163.09921088506712Q966.4520289888317 171.91514327286075 968.6092947940697 181.2838478037175Q970.7665605993078 190.65255233457424 972.9491692664639 199.71873279545932H970.2217398214659Q972.518384116768 190.65255233457424 974.8292828655882 181.2838478037175Q977.1401816144084 171.91514327286075 979.5667062644189 163.09921088506712L988.4397434721056 131.37046979865772H1006.8760447252516L1015.6477104852663 163.09921088506712Q1018.0742351352767 171.91514327286075 1020.359791022179 181.2838478037175Q1022.6453469090812 190.65255233457424 1024.9419912043834 199.71873279545932H1022.1195224019505Q1024.324307885906 190.65255233457424 1026.4894960544252 181.29810225723574Q1028.6546842229445 171.94365217989724 1030.9386643377725 163.09921088506712L1039.5994750157297 131.37046979865772H1060.8233460701551L1034.9615427721267 215.0H1014.1938142302852L1004.0410277501048 180.1795747692953Q1002.5996796678376 175.01923058016988 1001.1979289010067 169.68624267578124Q999.7961781341756 164.3532547713926 998.434024682781 158.93790619101298Q997.0718712313862 153.52255761063338 995.630523149119 148.248177793362H999.7359507720741Q998.3231115968434 153.52255761063338 996.9213608300124 158.93790619101298Q995.5196100631815 164.3532547713926 994.1321137498688 169.68624267578124Q992.7446174365562 175.01923058016988 991.2240747234164 180.1795747692953L980.9192310717281 215.0Z M1108.0426323602662 216.9006711409396Q1095.5108844117028 216.9006711409396 1086.3401664580274 211.29210680251154Q1077.1694485043517 205.68354246408347 1072.191289668755 195.80955646694105Q1067.2131308331584 185.93557046979865 1067.2131308331584 173.28660634700083Q1067.2131308331584 160.50776186949454 1072.3290923867448 150.6226874639524Q1077.4450539403313 140.73761305841023 1086.4684710406616 135.1037058580642Q1095.491888140992 129.46979865771812 1107.2063324179423 129.46979865771812Q1116.2598486983536 129.46979865771812 1123.6249348685246 132.6233294390992Q1130.9900210386954 135.77686022048027 1136.2928807610633 141.59449954448928Q1141.5957404834312 147.41213886849832 1144.448322966915 155.37912163446413Q1147.3009054503984 163.34610440042994 1147.3009054503984 172.97300836959943V178.40569044279573H1075.1388970087037V164.6195795865667H1137.2971406053375L1128.3514438705956 168.3163988766254Q1128.3514438705956 161.2458419082949 1125.8013564551436 156.0902250353922Q1123.2512690396916 150.9346081624895 1118.591420996749 148.13109212785758Q1113.9315729538066 145.32757609322567 1107.5199303953439 145.32757609322567Q1101.1874824677536 145.32757609322567 1096.5387228332108 148.13109212785758Q1091.889963198668 150.9346081624895 1089.339875783216 156.0902250353922Q1086.7897883677642 161.2458419082949 1086.7897883677642 168.3163988766254V177.01184753827602Q1086.7897883677642 184.1901080445155 1089.331953419935 189.6450829422714Q1091.8741184721057 195.10005784002726 1096.7351191373477 198.13482567703966Q1101.59611980259 201.16959351405202 1108.4987748728502 201.16959351405202Q1113.5260871631185 201.16959351405202 1117.398730714529 199.66488102650482Q1121.2713742659396 198.16016853895763 1123.856302678665 195.44693554359793Q1126.4412310913904 192.73370254823826 1127.5658006501676 189.147738340237H1146.2745267932046Q1144.7191430827913 197.34595840761324 1139.3592655463506 203.58965556509543Q1133.9993880099098 209.8333527225776 1125.916808344694 213.3670119317586Q1117.8342286794777 216.9006711409396 1108.0426323602662 216.9006711409396Z M1205.9904300152054 216.69792824559565Q1200.5481773018037 216.69792824559565 1195.7521458158558 215.11086958302747Q1190.9561143299077 213.5238109204593 1187.1088281413852 210.299007871487Q1183.2615419528627 207.07420482251467 1180.6512706782194 202.2148234322567H1180.5213903235108V215.0H1160.8180329802851V96.99999999999999H1180.8381688470008V143.2116718881082H1180.9680492017092Q1183.6606666513737 138.6247153877412 1187.443012662542 135.63590595834205Q1191.2253586737102 132.64709652894294 1195.9722947088662 131.1598190410025Q1200.7192307440225 129.67254155306208 1206.1044656433514 129.67254155306208Q1216.8907801685716 129.67254155306208 1225.0050637878826 135.1654799902999Q1233.1193474071938 140.65841842753775 1237.6619502739618 150.45320979380767Q1242.2045531407298 160.2480011600776 1242.2045531407298 173.12821708525587Q1242.2045531407298 186.1288007288171 1237.7047136345163 195.93784654860528Q1233.2048741283031 205.74689236839345 1225.0763360554738 211.22241030699456Q1216.9477979826447 216.69792824559565 1205.9904300152054 216.69792824559565ZM1201.280041258127 199.99121568923027Q1207.5111177380452 199.99121568923027 1212.1424568739512 196.86934535903418Q1216.7737960098573 193.7474750288381 1219.3714031040267 187.74765035130034Q1221.9690101981962 181.74782567376258 1221.9690101981962 173.12821708525587Q1221.9690101981962 164.45792277291315 1219.3714031040267 158.48660700241192Q1216.7737960098573 152.51529123191065 1212.1424568739512 149.39342090171453Q1207.5111177380452 146.27155057151845 1201.280041258127 146.27155057151845Q1194.7733593422295 146.27155057151845 1189.9123586769872 149.59616379705852Q1185.051358011745 152.92077702259857 1182.3904010132655 158.94277851693582Q1179.729444014786 164.96478001127306 1179.729444014786 173.12821708525587Q1179.729444014786 181.2409684354027 1182.3904010132655 187.29147883677643Q1185.051358011745 193.34198923815018 1189.9123586769872 196.66660246369023Q1194.7733593422295 199.99121568923027 1201.280041258127 199.99121568923027Z"/>
</svg>
