<svg xmlns="http://www.w3.org/2000/svg" xmlns:xlink="http://www.w3.org/1999/xlink" width="308.56" height="406.00" viewBox="0 0 308.5638 406.0000">
<defs><defs
     id="defs1">
    <clipPath
       clipPathUnits="userSpaceOnUse"
       id="nirs4all_web_clip">
      <path
         d="M 75.196094,-0.47997507 H 381.42019 V 303.18425 H 75.196094 Z"
         id="path1" />
    </clipPath>
  </defs></defs><g transform="translate(34.281879194630875,24.0) scale(0.7810408580046241) translate(0,0)"><g
     id="g8"
     transform="translate(-0.25127103,1.1057433)">
    <g
       id="g9">
      <path
         style="fill:#FF6400;fill-opacity:1;fill-rule:evenodd;stroke:none"
         d="M 1.5315373,35.750606 C 1.5315373,16.791591 16.89074,1.4323885 35.849755,1.4323885 H 269.47762 c 18.91901,0 34.27821,15.3592025 34.27821,34.3182175 V 269.53846 c 0,18.91902 -15.3592,34.27822 -34.27821,34.27822 H 35.849755 c -18.959015,0 -34.3182177,-15.3592 -34.3182177,-34.27822 z"
         id="path2"
         transform="matrix(1.0163665,0,0,1.019436,-1.1937273,-2.5659717)" />
      <path
         style="fill:none;stroke:#ffffff;stroke-width:19.359px;stroke-linecap:butt;stroke-linejoin:miter;stroke-miterlimit:8;stroke-dasharray:none;stroke-opacity:1"
         clip-path="url(#nirs4all_web_clip)"
         d="m 78.350886,215.76355 c 4.917688,0.027 13.251861,-0.0312 22.323884,-1.53468 6.67965,-1.47992 11.15942,-3.51981 16.79913,-8.67955 5.6797,-5.15973 10.19947,-8.15957 17.11911,-22.35883 6.95964,-14.15927 19.159,-49.59743 24.47873,-62.67675 5.27972,-13.11932 3.63981,-9.91948 7.31962,-15.83918 3.67981,-5.959687 11.4794,-8.59955 16.51914,-6.839641 5.03974,1.759908 9.39951,4.999741 13.71929,17.319101 4.35977,12.35936 6.23967,27.03859 9.4795,37.67804 3.27983,10.67945 4.39978,18.47904 10.11948,26.35863 5.6797,7.87959 12.48129,8.96263 20.43894,4.99974 6.87614,-5.69367 24.35873,-49.63742 26.59862,-51.67731 2.23988,-2.0399 14.71923,-18.23906 34.23822,6.47966 8.91953,11.39941 25.55867,37.55805 38.79798,52.55727"
         id="path3"
         transform="translate(-78.046472,1.0051295)" />
      <path
         style="fill:#ffffff;fill-opacity:1;fill-rule:evenodd;stroke:none"
         d="m 245.65157,200.51477 c 0,-13.5593 10.99943,-24.55873 24.55873,-24.55873 13.59929,0 24.55872,10.99943 24.55872,24.55873 0,13.59929 -10.95943,24.55872 -24.55872,24.55872 -13.5593,0 -24.55873,-10.95943 -24.55873,-24.55872 z"
         id="path4" />
    </g>
  </g></g>
<path fill="#FFFFFF" d="M48.61128585098574 345.7753843985948V382.0H30.44622876468121V316.7973154362416H48.33096506003565V333.7709592268771H45.23384297006082Q48.344558449559564 325.10813365142616 54.07263830812185 320.2685930290478Q59.80071816668414 315.4290524066695 68.68577135329278 315.4290524066695Q75.65923293964974 315.4290524066695 80.79272166002517 318.4335570469799Q85.92621038040059 321.43806168729026 88.75105955392723 327.1803435664849Q91.57590872745386 332.9226254456795 91.57590872745386 341.1618927616401V382.0H73.41085164114932V344.50342452286077Q73.41085164114932 337.9447968553377 70.28343178153838 334.53705620477666Q67.15601192192743 331.1293155542156 61.40872532377307 331.1293155542156Q57.65459066301384 331.1293155542156 54.764885532455956 332.6766593369862Q51.87518040189807 334.22400311975673 50.24323312644191 337.46317933357807Q48.61128585098574 340.70235554739935 48.61128585098574 345.7753843985948Z"/>
<path fill="#E9362D" d="M101.6430441222735 362.1723586933725V347.4995100802223L142.1330671272022 290.0H154.0261749882026V308.14044050178273H147.4499042350293L119.94031548212038 347.2947362972821V347.4253889864723H177.42988395946938V362.1723586933725ZM147.53071305447776 382.0V357.72185206061243V351.1325214974832V290.0H165.41916897152896V382.0Z"/>
<path fill="#FF6400" d="M201.91693746067537 382.0 181.79795216809987 316.7973154362416H200.85706008808728L206.8352986380558 339.57897703439596Q208.61602889707427 346.5857795459312 210.2590672025745 354.0846819781617Q211.9021055080747 361.5835844103922 213.55934583420725 368.85217743944H211.1105798094065Q212.90118383625213 361.5835844103922 214.7084583256869 354.0846819781617Q216.51573281512168 346.5857795459312 218.39648584967495 339.57897703439596L224.63651491715606 316.7973154362416H241.0110358116611L247.19425679661288 339.57897703439596Q249.07500983116614 346.5857795459312 250.86808229996856 354.0846819781617Q252.66115476877098 361.5835844103922 254.45175879561663 368.85217743944H251.9844624973784Q253.63676593959735 361.5835844103922 255.25819689859483 354.1013524407508Q256.8796278575923 346.61912047110945 258.5936762662542 339.57897703439596L264.5237632393037 316.7973154362416H283.8495985607173L263.73061326814184 382.0H244.93823274958055L237.35591016935825 356.096599727349Q236.28771546639055 352.28443972184357 235.2503932466443 348.33211932086306Q234.2130710268981 344.37979891988255 233.20662129037333 340.3465946479132Q232.2001715538486 336.3133903759438 231.1319768508809 332.36786666972523H234.54397791920096Q233.50912414141152 336.3133903759438 232.4718019216653 340.3465946479132Q231.43447970191906 344.37979891988255 230.41382794476198 348.33211932086306Q229.3931761876049 352.28443972184357 228.26323651819422 356.096599727349L220.5957018141779 382.0Z"/>
</svg>
