<svg xmlns="http://www.w3.org/2000/svg" xmlns:xlink="http://www.w3.org/1999/xlink" width="288.00" height="407.37" viewBox="0 0 288.0000 407.3683">
<defs><defs
     id="defs1">
    <clipPath
       clipPathUnits="userSpaceOnUse"
       id="nirs4all_ui_clip">
      <path
         d="M 75.196094,-0.47997507 H 381.42019 V 303.18425 H 75.196094 Z"
         id="path1" />
    </clipPath>
  </defs></defs><g transform="translate(24.0,24.0) scale(0.7810408580046241) translate(0,0)"><g
     id="g8"
     transform="translate(-0.25127103,1.1057433)">
    <g
       id="g9">
      <path
         style="fill:#2563EB;fill-opacity:1;fill-rule:evenodd;stroke:none"
         d="M 1.5315373,35.750606 C 1.5315373,16.791591 16.89074,1.4323885 35.849755,1.4323885 H 269.47762 c 18.91901,0 34.27821,15.3592025 34.27821,34.3182175 V 269.53846 c 0,18.91902 -15.3592,34.27822 -34.27821,34.27822 H 35.849755 c -18.959015,0 -34.3182177,-15.3592 -34.3182177,-34.27822 z"
         id="path2"
         transform="matrix(1.0163665,0,0,1.019436,-1.1937273,-2.5659717)" />
      <path
         style="fill:none;stroke:#ffffff;stroke-width:19.359px;stroke-linecap:butt;stroke-linejoin:miter;stroke-miterlimit:8;stroke-dasharray:none;stroke-opacity:1"
         clip-path="url(#nirs4all_ui_clip)"
         d="m 78.350886,215.76355 c 4.917688,0.027 13.251861,-0.0312 22.323884,-1.53468 6.67965,-1.47992 11.15942,-3.51981 16.79913,-8.67955 5.6797,-5.15973 10.19947,-8.15957 17.11911,-22.35883 6.95964,-14.15927 19.159,-49.59743 24.47873,-62.67675 5.27972,-13.11932 3.63981,-9.91948 7.31962,-15.83918 3.67981,-5.959687 11.4794,-8.59955 16.51914,-6.839641 5.03974,1.759908 9.39951,4.999741 13.71929,17.319101 4.35977,12.35936 6.23967,27.03859 9.4795,37.67804 3.27983,10.67945 4.39978,18.47904 10.11948,26.35863 5.6797,7.87959 12.48129,8.96263 20.43894,4.99974 6.87614,-5.69367 24.35873,-49.63742 26.59862,-51.67731 2.23988,-2.0399 14.71923,-18.23906 34.23822,6.47966 8.91953,11.39941 25.55867,37.55805 38.79798,52.55727"
         id="path3"
         transform="translate(-78.046472,1.0051295)" />
      <path
         style="fill:#ffffff;fill-opacity:1;fill-rule:evenodd;stroke:none"
         d="m 245.65157,200.51477 c 0,-13.5593 10.99943,-24.55873 24.55873,-24.55873 13.59929,0 24.55872,10.99943 24.55872,24.55873 0,13.59929 -10.95943,24.55872 -24.55872,24.55872 -13.5593,0 -24.55873,-10.95943 -24.55873,-24.55872 z"
         id="path4" />
    </g>
  </g></g>
<path fill="#000000" d="M53.05558115299915 345.7753843985948V382.0H34.890524066694624V316.7973154362416H52.77526036204907V333.7709592268771H49.678138272074236Q52.78885375157298 325.10813365142616 58.51693361013527 320.2685930290478Q64.24501346869755 315.4290524066695 73.1300666553062 315.4290524066695Q80.10352824166316 315.4290524066695 85.23701696203858 318.4335570469799Q90.370505682414 321.43806168729026 93.19535485594065 327.1803435664849Q96.02020402946728 332.9226254456795 96.02020402946728 341.1618927616401V382.0H77.85514694316274V344.50342452286077Q77.85514694316274 337.9447968553377 74.7277270835518 334.53705620477666Q71.60030722394085 331.1293155542156 65.85302062578648 331.1293155542156Q62.09888596502726 331.1293155542156 59.20918083446937 332.6766593369862Q56.319475703911486 334.22400311975673 54.68752842845532 337.46317933357807Q53.05558115299915 340.70235554739935 53.05558115299915 345.7753843985948Z"/>
<path fill="#E9362D" d="M106.08733942428691 362.1723586933725V347.4995100802223L146.5773624292156 290.0H158.470470290216V308.14044050178273H151.8941995370427L124.3846107841338 347.2947362972821V347.4253889864723H181.8741792614828V362.1723586933725ZM151.97500835649117 382.0V357.72185206061243V351.1325214974832V290.0H169.86346427354238V382.0Z"/>
<path fill="#2563EB" d="M214.85985607172822 383.3682630295721Q207.9481394518142 383.3682630295721 202.7837782482173 380.36375838926176Q197.6194170446204 377.35925374895135 194.79456787109376 371.60276984912434Q191.96971869756712 365.8462859492974 191.96971869756712 357.6354226746015V316.7973154362416H210.13477578387165V354.2938909133809Q210.13477578387165 360.8191776557257 213.29306812670407 364.24358876887584Q216.4513604695365 367.667999882026 222.13690210124793 367.667999882026Q225.89103676200716 367.667999882026 228.78074189256503 366.1206560992554Q231.6704470231229 364.5733123164849 233.3023942985791 361.31993408203124Q234.93434157403524 358.0665558475776 234.93434157403524 353.0219310376468V316.7973154362416H253.09939866033977V382.0H235.21466236498534V365.0263562093645H238.31178445496016Q235.20106897546142 373.66077774355074 229.48965957948826 378.51452038656146Q223.77825018351513 383.3682630295721 214.85985607172822 383.3682630295721Z"/>
</svg>
