<svg xmlns="http://www.w3.org/2000/svg" xmlns:xlink="http://www.w3.org/1999/xlink" width="288.00" height="406.00" viewBox="0 0 288.0000 406.0000">
<g transform="translate(24.0,24.0) scale(2.9164084430024424) translate(-87.13875,-102.255)"><g><path style="fill:#058E96;fill-rule:evenodd" d="m 87.13875,111.60073 c 0,-5.15479 4.189687,-9.34448 9.344479,-9.34448 h 63.617391 c 5.1548,0 9.33313,4.18969 9.33313,9.34448 v 63.61739 c 0,5.1548 -4.17833,9.33313 -9.33313,9.33313 H 96.483229 c -5.154792,0 -9.344479,-4.17833 -9.344479,-9.33313 z"/><path fill="#FFFFFF" d="M109.03609819921874 177.608165625Q104.16449605078124 177.43165830078127 101.67574277929687 174.8546513671875Q99.1869895078125 172.27764443359376 99.1869895078125 166.48820419921876V155.156433984375Q99.1869895078125 146.22516337890625 93.2563434140625 145.30732529296876V142.8009212890625Q99.1869895078125 141.9536861328125 99.1869895078125 133.58723896484375V121.65534384765625Q99.1869895078125 116.00710947265625 101.58748911718749 113.359499609375Q103.98798872656249 110.71188974609376 109.03609819921874 110.50008095703126V113.78311718750001Q105.6824590390625 113.99492597656251 104.32335264257812 115.97180800781251Q102.96424624609374 117.94869003906251 102.96424624609374 122.71438779296875V133.86965068359376Q102.96424624609374 142.34200224609376 97.38661480078125 144.03647255859374V144.17767841796876Q102.96424624609374 145.94275166015626 102.96424624609374 154.83872080078126V165.35855732421876Q102.96424624609374 170.1948580078125 104.32335264257812 172.1893907714844Q105.6824590390625 174.18392353515625 109.03609819921874 174.32512939453125Z"/><path fill="#FFFFFF" d="M164.683227578125 145.30731529296875Q158.75258148437499 146.22515337890624 158.75258148437499 155.156423984375V166.48819419921875Q158.75258148437499 172.101127109375 156.4050340722656 174.74873697265625Q154.05748666015626 177.3963468359375 148.9387742578125 177.608155625V174.32511939453124Q152.3277148828125 174.18391353515625 153.65151981445314 172.13642857421877Q154.97532474609375 170.08894361328126 154.97532474609375 165.35854732421876V154.83871080078126Q154.97532474609375 145.94274166015626 160.55295619140625 144.17766841796876V144.03646255859374Q154.97532474609375 142.27138931640624 154.97532474609375 133.86964068359376V122.71437779296875Q154.97532474609375 119.572547421875 154.37519984375 117.6662683203125Q153.77507494140625 115.75998921875001 152.55717440429686 114.85980186523437Q151.3392738671875 113.95961451171875 148.9387742578125 113.78310718750001V110.50007095703126Q154.092788125 110.71187974609376 156.4226848046875 113.39479107421876Q158.75258148437499 116.07770240234376 158.75258148437499 121.65533384765625V133.58722896484375Q158.75258148437499 141.9536761328125 164.683227578125 142.8009112890625Z"/><path style="fill:#ffffff;fill-rule:evenodd" d="m 120.74708,143.40375 c 0,-4.46219 3.70146,-8.08417 8.26584,-8.08417 4.57573,0 8.26583,3.62198 8.26583,8.08417 0,4.47354 -3.6901,8.08417 -8.26583,8.08417 -4.56438,0 -8.26584,-3.61063 -8.26584,-8.08417 z"/></g></g>
<path fill="#FFFFFF" d="M82.48094687237835 382.0H58.70920262688759V365.9860751363255H81.47327987363676Q90.77054106994161 365.9860751363255 96.82056188157841 362.51905796127835Q102.8705826932152 359.05204078623115 105.82757830523806 352.33536499842705Q108.78457391726091 345.6186892106229 108.78457391726091 335.9477857737929Q108.78457391726091 326.2676946243184 105.82264142132446 319.5936248984113Q102.86070892538801 312.9195551725042 96.84117692912787 309.46674001808935Q90.82164493286774 306.0139248636745 81.64126959679112 306.0139248636745H58.28192474570051V290.0H82.84898214660235Q96.68107189204069 290.0 106.79783074593911 295.59532478895767Q116.91458959983754 301.1906495779153 122.4075397598076 311.50452741584525Q127.90048991977768 321.81840525377515 127.90048991977768 335.9481288013842Q127.90048991977768 350.1013195063444 122.41384441196519 360.42693092294985Q116.92719890415269 370.75254233955536 106.77499678142053 376.3762711697777Q96.62279465868838 382.0 82.48094687237835 382.0ZM68.9932217386745 290.0V382.0H50.01066943687081V290.0Z"/>
<path fill="#058E96" d="M138.67644124895133 382.0V290.0H166.3734868196833L181.5778983916212 332.86155882969797Q182.51394665609268 335.7709436608641 183.7920606779572 339.9899236282246Q185.07017469982173 344.2089035955851 186.42670415071834 348.82489759201974Q187.78323360161494 353.4408915884543 188.9495912692691 357.6172654939178Q190.11594893692325 361.7936393993813 190.83342137688757 364.6178121067534H186.10137669096056Q186.81884913092492 361.7936393993813 187.97100477794675 357.6172654939178Q189.12316042496855 353.4408915884543 190.46301941327602 348.82489759201974Q191.80287840158346 344.2089035955851 193.06432196085882 339.9899236282246Q194.3257655201342 335.7709436608641 195.233409743341 332.86155882969797L210.2007152173343 290.0H237.95950575450922V382.0H219.32889297792576V338.25453544463085Q219.32889297792576 335.1907542798343 219.42644731150378 330.9279170708368Q219.5240016450818 326.66507986183933 219.66663048251363 321.81691665137373Q219.80925931994545 316.96875344090813 219.93521769478815 312.0088338762322Q220.06117606963085 307.0489143115562 220.08958011089555 302.5909684354027H222.36670462589134Q220.95644416553063 307.44657088926175 219.44122404572147 312.5719778176122Q217.9260039259123 317.69738474596267 216.49846437185403 322.5288774938391Q215.0709248177957 327.3603702417156 213.82615172110945 331.41017714122796Q212.58137862442322 335.4599840407403 211.65026724386536 338.25453544463085L196.0544889104446 382.0H180.64813994337248L164.89553075188758 338.25453544463085Q163.96441937132968 335.4599840407403 162.67210332883283 331.41017714122796Q161.37978728633598 327.3603702417156 159.9213752490562 322.5288774938391Q158.4629632117764 317.69738474596267 156.90266858811344 312.5719778176122Q155.3423739644505 307.44657088926175 153.84196449638213 302.5909684354027H156.57477093382968Q156.63157901635904 307.0489143115562 156.7433353705694 312.0088338762322Q156.85509172477978 316.96875344090813 156.9977205622116 321.81691665137373Q157.14034939964344 326.66507986183933 157.23790373322146 330.9279170708368Q157.33545806679948 335.1907542798343 157.33545806679948 338.25453544463085V382.0Z"/>
</svg>
