<svg xmlns="http://www.w3.org/2000/svg" xmlns:xlink="http://www.w3.org/1999/xlink" width="1468.57" height="312.00" viewBox="0 0 1468.5651 312.0000">
<defs><defs
     id="defs1">
    <clipPath
       clipPathUnits="userSpaceOnUse"
       id="nirs4all_papers_clip">
      <path
         d="M 75.196094,-0.47997507 H 381.42019 V 303.18425 H 75.196094 Z"
         id="path1" />
    </clipPath>
  </defs></defs><g transform="translate(28.0,28.0) scale(0.8331102485382658) translate(0,0)"><g
     id="g8"
     transform="translate(-0.25127103,1.1057433)">
    <g
       id="g9">
      <path
         style="fill:#C2255C;fill-opacity:1;fill-rule:evenodd;stroke:none"
         d="M 1.5315373,35.750606 C 1.5315373,16.791591 16.89074,1.4323885 35.849755,1.4323885 H 269.47762 c 18.91901,0 34.27821,15.3592025 34.27821,34.3182175 V 269.53846 c 0,18.91902 -15.3592,34.27822 -34.27821,34.27822 H 35.849755 c -18.959015,0 -34.3182177,-15.3592 -34.3182177,-34.27822 z"
         id="path2"
         transform="matrix(1.0163665,0,0,1.019436,-1.1937273,-2.5659717)" />
      <path
         style="fill:none;stroke:#ffffff;stroke-width:19.359px;stroke-linecap:butt;stroke-linejoin:miter;stroke-miterlimit:8;stroke-dasharray:none;stroke-opacity:1"
         clip-path="url(#nirs4all_papers_clip)"
         d="m 78.350886,215.76355 c 4.917688,0.027 13.251861,-0.0312 22.323884,-1.53468 6.67965,-1.47992 11.15942,-3.51981 16.79913,-8.67955 5.6797,-5.15973 10.19947,-8.15957 17.11911,-22.35883 6.95964,-14.15927 19.159,-49.59743 24.47873,-62.67675 5.27972,-13.11932 3.63981,-9.91948 7.31962,-15.83918 3.67981,-5.959687 11.4794,-8.59955 16.51914,-6.839641 5.03974,1.759908 9.39951,4.999741 13.71929,17.319101 4.35977,12.35936 6.23967,27.03859 9.4795,37.67804 3.27983,10.67945 4.39978,18.47904 10.11948,26.35863 5.6797,7.87959 12.48129,8.96263 20.43894,4.99974 6.87614,-5.69367 24.35873,-49.63742 26.59862,-51.67731 2.23988,-2.0399 14.71923,-18.23906 34.23822,6.47966 8.91953,11.39941 25.55867,37.55805 38.79798,52.55727"
         id="path3"
         transform="translate(-78.046472,1.0051295)" />
      <path
         style="fill:#ffffff;fill-opacity:1;fill-rule:evenodd;stroke:none"
         d="m 245.65157,200.51477 c 0,-13.5593 10.99943,-24.55873 24.55873,-24.55873 13.59929,0 24.55872,10.99943 24.55872,24.55873 0,13.59929 -10.95943,24.55872 -24.55872,24.55872 -13.5593,0 -24.55873,-10.95943 -24.55873,-24.55872 z"
         id="path4" />
    </g>
  </g></g>
<path fill="#FFFFFF" d="M352.85830307518876 167.71123472892197V215.0H332.8381672084732V131.37046979865772H352.51301564466235V152.64210704829068H348.59763773463715Q352.6302318188968 141.45981936870805 359.9699896281197 135.56618046088505Q367.3097474373427 129.67254155306208 378.20688804268036 129.67254155306208Q386.9943115234375 129.67254155306208 393.7068588768876 133.46912751677854Q400.4194062303377 137.26571348049498 404.2207630131869 144.63081415163592Q408.02211979603607 151.99591482277685 408.02211979603607 162.7632330772861V215.0H388.0019839293205V165.93726339660236Q388.0019839293205 156.71260666815226 383.5987305506764 151.96406585898174Q379.1954771720323 147.21552504981122 371.1397436359585 147.21552504981122Q365.8970242698721 147.21552504981122 361.7630297360004 149.35696062945678Q357.62903520212876 151.49839620910234 355.2436691386588 156.02360757917364Q352.85830307518876 160.54881894924495 352.85830307518876 167.71123472892197Z M425.733469221896 215.0V131.37046979865772H445.75360508861155V215.0ZM435.71502824821727 118.93358719588926Q430.60227624265934 118.93358719588926 427.1826816635644 115.6599563642797Q423.76308708446936 112.38632553267013 423.76308708446936 107.55806576790289Q423.76308708446936 102.72416123767826 427.1826816635644 99.47562010080222Q430.60227624265934 96.22707896392616 435.67812201247085 96.22707896392616Q440.8196348517647 96.22707896392616 444.24330213186494 99.47256557504829Q447.66696941196517 102.71805218617044 447.66696941196517 107.59497305416396Q447.66696941196517 112.40799601510066 444.23827390133334 115.67079160549497Q440.8095783907015 118.93358719588926 435.71502824821727 118.93358719588926Z M463.430113517198 215.0V131.37046979865772H482.70265670878774V145.25801010643875H482.96241741820467Q485.2590617135067 138.0513276989828 490.19130564440013 134.30541295813234Q495.1235495752936 130.55949821728188 503.24890710203437 130.55949821728188Q505.24143705432044 130.55949821728188 506.8997679844798 130.66086966495385Q508.55809891463923 130.76224111262582 509.74916992187497 130.8636125602978V148.60303586409395Q508.6436256357487 148.45097869258598 505.9589450503355 148.222892935324Q503.27426446492234 147.99480717806208 500.315554215604 147.99480717806208Q495.608229996854 147.99480717806208 491.7625340813758 150.16157111865562Q487.9168381658976 152.32833505924916 485.6835437749056 156.68563003027998Q483.45024938391356 161.04292500131083 483.45024938391356 167.62877254614094V215.0Z M554.0127814990561 216.98619786204907Q543.8093963008598 216.98619786204907 535.7394953170879 213.7851619029205Q527.6695943333158 210.58412594379195 522.7706301285916 204.36260560310927Q517.8716659238673 198.1410852624266 517.203267879614 189.147738340237H536.9509788564387Q537.6067127202181 195.25211501153524 541.8975062427904 198.62741396091127Q546.1882997653628 202.00271291028733 553.6389851614932 202.00271291028733Q560.8964402986052 202.00271291028733 565.0415232408766 199.14375483365666Q569.186606183148 196.28479675702602 569.186606183148 191.8530199703754Q569.186606183148 188.0706449572672 566.1296760303062 185.7613074795512Q563.0727458774643 183.45197000183515 557.7635250629194 182.35590935009438L543.5021884175754 179.416195371487Q531.5184707948824 176.90096345427852 525.3112049077181 170.8188216036598Q519.1039390205536 164.7366797530411 519.1039390205536 155.25868141123112Q519.1039390205536 147.58949539901425 523.2584765952705 141.80037948301174Q527.4130141699874 136.01126356700922 535.004581323406 132.7832944729184Q542.5961484768246 129.5553253788276 552.8280425820574 129.5553253788276Q562.9648973298553 129.5553253788276 570.6641680211828 132.95593818818162Q578.3634387125104 136.35655099753563 582.769814633363 142.57490529309982Q587.1761905542155 148.793259588664 587.413774446833 157.39378490063967H568.6227021287751Q568.5435074979026 151.82477437473784 564.3255765159657 148.1532834456271Q560.1076455340288 144.48179251651635 553.2841850946413 144.48179251651635Q546.7141532744337 144.48179251651635 542.890605173815 147.4199452240195Q539.0670570731962 150.35809793152265 539.0670570731962 154.63148545642827Q539.0670570731962 158.3853515625 542.0242060514104 160.73428635565227Q544.9813550296245 163.0832211488045 550.1733886718749 164.22363543414428L565.2329747142408 167.33440285497062Q577.6981922124055 169.9573383100881 583.563336714162 175.56273660339764Q589.4284812159185 181.16813489670722 589.4284812159185 190.33886735135277Q589.4284812159185 198.49906587536702 584.889058895239 204.4845780955065Q580.3496365745596 210.47009031564596 572.3478418132602 213.7281440888475Q564.3460470519609 216.98619786204907 554.0127814990561 216.98619786204907Z"/>
<path fill="#E9362D" d="M598.6723082267198 188.54257419253355V172.08929025534815L652.116135892932 96.99999999999999H665.1894080654886V117.84382963244546H657.8767345715536L619.7030360279467 171.54461888818278V171.7091328256082H694.1238702351615V188.54257419253355ZM657.9986283884753 215.0V183.57554726824665V176.09331742869128V96.99999999999999H677.8350466324979V215.0Z"/>
<path fill="#FFFFFF" d="M733.0656548212038 216.3526408150692Q724.7217096725566 216.3526408150692 718.2055731242135 213.5586519177328Q711.6894365758703 210.7646630203964 707.9197692461462 205.17351918060507Q704.1501019164219 199.58237534081377 704.1501019164219 191.26693909920303Q704.1501019164219 184.11724550388004 706.8332212307308 179.47486146248428Q709.5163405450397 174.8324774210885 714.1143854538066 172.05908956847736Q718.7124303625733 169.2857017158662 724.6488616328911 167.83961181640626Q730.5852929032088 166.3935219169463 737.012722184354 165.71561123636744Q744.7833086461828 164.83495766044462 749.3338338762321 164.18081406970953Q753.8843591062814 163.5266704789744 755.8388820161755 162.20253857094167Q757.7934049260696 160.87840666290896 757.7934049260696 158.02421940541106V157.4033265389052Q757.7934049260696 153.80784969457844 755.9719139150325 151.0676835642565Q754.1504229039953 148.32751743393456 750.7339363661388 146.76419685927013Q747.3174498282822 145.2008762846057 742.5118767040688 145.2008762846057Q737.6999714896182 145.2008762846057 734.0237242423448 146.75627449598886Q730.3474769950712 148.31167270737205 728.1933627339818 151.05341460976825Q726.0392484728922 153.79515651216443 725.7224699494022 157.36527599360318H706.5195797504194Q707.0295885329277 149.02769193713297 711.5278377660968 142.82042604996855Q716.0260869992659 136.6131601628041 724.019973898254 133.14285085793307Q732.0138607972419 129.67254155306208 742.9680192166526 129.67254155306208Q751.1091924680159 129.67254155306208 757.5508617017092 131.63815287135589Q763.9925309354026 133.60376418964972 768.4638470336095 137.30373502385694Q772.9351631318162 141.00370585806417 775.2666484243917 146.2289612226038Q777.5981337169673 151.45421658714343 777.5981337169673 157.97350467963506V215.0H757.9644583682885V203.1778231832005H757.6476798447986Q755.6868393456375 206.8999418322672 752.5285667470637 209.89191730678482Q749.3702941484898 212.88389278130242 744.6201920682151 214.6182667981858Q739.8700899879403 216.3526408150692 733.0656548212038 216.3526408150692ZM737.9882701080116 201.54969293991192Q744.4854683895238 201.54969293991192 748.9346511738411 199.17858132996014Q753.3838339581584 196.80746972000838 755.645637256187 192.8540412646812Q757.9074405542156 188.90061280935402 757.9074405542156 184.06337923395554V174.97811549653943Q756.9729497103083 175.5768315462458 755.1593810625524 176.12486187211618Q753.3458124147965 176.67289219798658 750.8527428134175 177.18132520842073Q748.3596732120385 177.68975821885488 745.4484536394975 178.17284836737102Q742.5372340669567 178.65593851588716 739.4581270973154 179.10259739408556Q735.1974327548237 179.70764553402893 731.5940480481856 181.09514184734164Q727.9906633415477 182.48263816065435 725.8112062185402 184.88066840459834Q723.6317490955327 187.27869864854236 723.6317490955327 191.0895825686871Q723.6317490955327 194.3429235266359 725.4025543827338 196.69819041002518Q727.1733596699349 199.05345729341443 730.3981917208473 200.30157511666317Q733.6230237717596 201.54969293991192 737.9882701080116 201.54969293991192Z M815.2757527396183 96.99999999999999V215.0H795.2556168729026V96.99999999999999Z M852.9723970349203 96.99999999999999V215.0H832.9522611682046V96.99999999999999Z M923.9341118524537 159.60180893456376V176.32121467334312H870.987802799916V159.60180893456376Z"/>
<path fill="#C2255C" d="M941.9240732487415 248.103355704698V131.37046979865772H961.6274305919671V143.04061844588927H961.8713465748216Q964.4784373033766 138.5676975736682 968.325723491899 135.60739705130555Q972.1730096804215 132.64709652894294 976.9991403464502 131.1598190410025Q981.8252710124789 129.67254155306208 987.2105059118078 129.67254155306208Q997.996820437028 129.67254155306208 1006.111104056339 135.1654799902999Q1014.22538767565 140.65841842753775 1018.7679905424181 150.45320979380767Q1023.3105934091861 160.2480011600776 1023.3105934091861 173.12821708525587Q1023.3105934091861 186.1288007288171 1018.8107539029729 195.93784654860528Q1014.3109143967596 205.74689236839345 1006.1823763239303 211.22241030699456Q998.053838251101 216.69792824559565 987.0964702836618 216.69792824559565Q981.65421757026 216.69792824559565 976.965889622221 215.11086958302747Q972.2775616741819 213.5238109204593 968.5237245700503 210.35602568555998Q964.7698874659185 207.18824045066066 962.1596161912751 202.44289468854865H961.9442091154572V248.103355704698ZM982.3860815265833 199.99121568923027Q988.6171580065015 199.99121568923027 993.2484971424076 196.86934535903418Q997.8798362783136 193.7474750288381 1000.4774433724831 187.74765035130034Q1003.0750504666526 181.74782567376258 1003.0750504666526 173.12821708525587Q1003.0750504666526 164.45792277291315 1000.4774433724831 158.48660700241192Q997.8798362783136 152.51529123191065 993.2484971424076 149.39342090171453Q988.6171580065015 146.27155057151845 982.3860815265833 146.27155057151845Q975.8793996106857 146.27155057151845 971.0183989454436 149.59616379705852Q966.1573982802013 152.92077702259857 963.4964412817218 158.94277851693582Q960.8354842832423 164.96478001127306 960.8354842832423 173.12821708525587Q960.8354842832423 181.2409684354027 963.4964412817218 187.29147883677643Q966.1573982802013 193.34198923815018 971.0183989454436 196.66660246369023Q975.8793996106857 199.99121568923027 982.3860815265833 199.99121568923027Z M1062.673708512479 216.3526408150692Q1054.3297633638317 216.3526408150692 1047.8136268154885 213.5586519177328Q1041.2974902671456 210.7646630203964 1037.5278229374212 205.17351918060507Q1033.758155607697 199.58237534081377 1033.758155607697 191.26693909920303Q1033.758155607697 184.11724550388004 1036.441274922006 179.47486146248428Q1039.124394236315 174.8324774210885 1043.7224391450818 172.05908956847736Q1048.3204840538485 169.2857017158662 1054.2569153241661 167.83961181640626Q1060.193346594484 166.3935219169463 1066.6207758756293 165.71561123636744Q1074.391362337458 164.83495766044462 1078.9418875675074 164.18081406970953Q1083.4924127975567 163.5266704789744 1085.4469357074508 162.20253857094167Q1087.4014586173448 160.87840666290896 1087.4014586173448 158.02421940541106V157.4033265389052Q1087.4014586173448 153.80784969457844 1085.5799676063077 151.0676835642565Q1083.7584765952706 148.32751743393456 1080.341990057414 146.76419685927013Q1076.9255035195574 145.2008762846057 1072.119930395344 145.2008762846057Q1067.3080251808935 145.2008762846057 1063.63177793362 146.75627449598886Q1059.9555306863465 148.31167270737205 1057.8014164252568 151.05341460976825Q1055.6473021641673 153.79515651216443 1055.3305236406775 157.36527599360318H1036.1276334416946Q1036.637642224203 149.02769193713297 1041.135891457372 142.82042604996855Q1045.634140690541 136.6131601628041 1053.6280275895292 133.14285085793307Q1061.6219144885172 129.67254155306208 1072.576072907928 129.67254155306208Q1080.717246159291 129.67254155306208 1087.1589153929845 131.63815287135589Q1093.6005846266778 133.60376418964972 1098.0719007248845 137.30373502385694Q1102.5432168230914 141.00370585806417 1104.8747021156669 146.2289612226038Q1107.2061874082424 151.45421658714343 1107.2061874082424 157.97350467963506V215.0H1087.5725120595637V203.1778231832005H1087.2557335360739Q1085.2948930369128 206.8999418322672 1082.136620438339 209.89191730678482Q1078.978347839765 212.88389278130242 1074.2282457594904 214.6182667981858Q1069.4781436792157 216.3526408150692 1062.673708512479 216.3526408150692ZM1067.596323799287 201.54969293991192Q1074.0935220807992 201.54969293991192 1078.5427048651163 199.17858132996014Q1082.9918876494337 196.80746972000838 1085.2536909474622 192.8540412646812Q1087.5154942454908 188.90061280935402 1087.5154942454908 184.06337923395554V174.97811549653943Q1086.5810034015835 175.5768315462458 1084.7674347538277 176.12486187211618Q1082.9538661060717 176.67289219798658 1080.4607965046928 177.18132520842073Q1077.9677269033139 177.68975821885488 1075.056507330773 178.17284836737102Q1072.145287758232 178.65593851588716 1069.0661807885906 179.10259739408556Q1064.805486446099 179.70764553402893 1061.2021017394609 181.09514184734164Q1057.598717032823 182.48263816065435 1055.4192599098155 184.88066840459834Q1053.2398027868078 187.27869864854236 1053.2398027868078 191.0895825686871Q1053.2398027868078 194.3429235266359 1055.0106080740088 196.69819041002518Q1056.78141336121 199.05345729341443 1060.0062454121226 200.30157511666317Q1063.2310774630348 201.54969293991192 1067.596323799287 201.54969293991192Z M1124.863670564178 248.103355704698V131.37046979865772H1144.5670279074036V143.04061844588927H1144.8109438902582Q1147.418034618813 138.5676975736682 1151.2653208073355 135.60739705130555Q1155.112606995858 132.64709652894294 1159.9387376618865 131.1598190410025Q1164.7648683279153 129.67254155306208 1170.1501032272442 129.67254155306208Q1180.9364177524644 129.67254155306208 1189.0507013717756 135.1654799902999Q1197.1649849910866 140.65841842753775 1201.7075878578546 150.45320979380767Q1206.2501907246226 160.2480011600776 1206.2501907246226 173.12821708525587Q1206.2501907246226 186.1288007288171 1201.7503512184094 195.93784654860528Q1197.250511712196 205.74689236839345 1189.1219736393668 211.22241030699456Q1180.9934355665375 216.69792824559565 1170.0360675990983 216.69792824559565Q1164.5938148856965 216.69792824559565 1159.9054869376573 215.11086958302747Q1155.2171589896184 213.5238109204593 1151.4633218854867 210.35602568555998Q1147.709484781355 207.18824045066066 1145.0992135067115 202.44289468854865H1144.8838064308936V248.103355704698ZM1165.32567884202 199.99121568923027Q1171.556755321938 199.99121568923027 1176.188094457844 196.86934535903418Q1180.81943359375 193.7474750288381 1183.4170406879196 187.74765035130034Q1186.014647782089 181.74782567376258 1186.014647782089 173.12821708525587Q1186.014647782089 164.45792277291315 1183.4170406879196 158.48660700241192Q1180.81943359375 152.51529123191065 1176.188094457844 149.39342090171453Q1171.556755321938 146.27155057151845 1165.32567884202 146.27155057151845Q1158.8189969261223 146.27155057151845 1153.95799626088 149.59616379705852Q1149.0969955956377 152.92077702259857 1146.4360385971581 158.94277851693582Q1143.7750815986788 164.96478001127306 1143.7750815986788 173.12821708525587Q1143.7750815986788 181.2409684354027 1146.4360385971581 187.29147883677643Q1149.0969955956377 193.34198923815018 1153.95799626088 196.66660246369023Q1158.8189969261223 199.99121568923027 1165.32567884202 199.99121568923027Z M1257.0077330314075 216.9006711409396Q1244.475985082844 216.9006711409396 1235.3052671291684 211.29210680251154Q1226.134549175493 205.68354246408347 1221.1563903398965 195.80955646694105Q1216.1782315042997 185.93557046979865 1216.1782315042997 173.28660634700083Q1216.1782315042997 160.50776186949454 1221.294193057886 150.6226874639524Q1226.4101546114725 140.73761305841023 1235.4335717118029 135.1037058580642Q1244.4569888121332 129.46979865771812 1256.1714330890836 129.46979865771812Q1265.2249493694949 129.46979865771812 1272.5900355396657 132.6233294390992Q1279.9551217098367 135.77686022048027 1285.2579814322046 141.59449954448928Q1290.5608411545725 147.41213886849832 1293.413423638056 155.37912163446413Q1296.2660061215397 163.34610440042994 1296.2660061215397 172.97300836959943V178.40569044279573H1224.103997679845V164.6195795865667H1286.2622412764788L1277.316544541737 168.3163988766254Q1277.316544541737 161.2458419082949 1274.7664571262849 156.0902250353922Q1272.2163697108329 150.9346081624895 1267.5565216678904 148.13109212785758Q1262.8966736249479 145.32757609322567 1256.4850310664851 145.32757609322567Q1250.152583138895 145.32757609322567 1245.503823504352 148.13109212785758Q1240.8550638698093 150.9346081624895 1238.3049764543575 156.0902250353922Q1235.7548890389055 161.2458419082949 1235.7548890389055 168.3163988766254V177.01184753827602Q1235.7548890389055 184.1901080445155 1238.2970540910762 189.6450829422714Q1240.839219143247 195.10005784002726 1245.7002198084892 198.13482567703966Q1250.5612204737313 201.16959351405202 1257.4638755439914 201.16959351405202Q1262.4911878342598 201.16959351405202 1266.3638313856704 199.66488102650482Q1270.2364749370809 198.16016853895763 1272.8214033498061 195.44693554359793Q1275.4063317625316 192.73370254823826 1276.5309013213089 189.147738340237H1295.2396274643459Q1293.6842437539326 197.34595840761324 1288.3243662174918 203.58965556509543Q1282.964488681051 209.8333527225776 1274.881909015835 213.3670119317586Q1266.799329350619 216.9006711409396 1257.0077330314075 216.9006711409396Z M1309.7831336514264 215.0V131.37046979865772H1329.0556768430163V145.25801010643875H1329.3154375524332Q1331.6120818477352 138.0513276989828 1336.5443257786287 134.30541295813234Q1341.476569709522 130.55949821728188 1349.6019272362628 130.55949821728188Q1351.5944571885489 130.55949821728188 1353.2527881187084 130.66086966495385Q1354.9111190488677 130.76224111262582 1356.1021900561034 130.8636125602978V148.60303586409395Q1354.9966457699772 148.45097869258598 1352.311965184564 148.222892935324Q1349.627284599151 147.99480717806208 1346.6685743498324 147.99480717806208Q1341.9612501310826 147.99480717806208 1338.1155542156043 150.16157111865562Q1334.269858300126 152.32833505924916 1332.0365639091342 156.68563003027998Q1329.803269518142 161.04292500131083 1329.803269518142 167.62877254614094V215.0Z M1400.3658016332847 216.98619786204907Q1390.1624164350885 216.98619786204907 1382.0925154513166 213.7851619029205Q1374.0226144675444 210.58412594379195 1369.1236502628203 204.36260560310927Q1364.224686058096 198.1410852624266 1363.5562880138425 189.147738340237H1383.3039989906672Q1383.9597328544467 195.25211501153524 1388.250526377019 198.62741396091127Q1392.5413198995914 202.00271291028733 1399.9920052957218 202.00271291028733Q1407.2494604328338 202.00271291028733 1411.394543375105 199.14375483365666Q1415.5396263173766 196.28479675702602 1415.5396263173766 191.8530199703754Q1415.5396263173766 188.0706449572672 1412.4826961645347 185.7613074795512Q1409.4257660116928 183.45197000183515 1404.116545197148 182.35590935009438L1389.855208551804 179.416195371487Q1377.8714909291111 176.90096345427852 1371.6642250419468 170.8188216036598Q1365.4569591547822 164.7366797530411 1365.4569591547822 155.25868141123112Q1365.4569591547822 147.58949539901425 1369.611496729499 141.80037948301174Q1373.766034304216 136.01126356700922 1381.3576014576347 132.7832944729184Q1388.9491686110532 129.5553253788276 1399.181062716286 129.5553253788276Q1409.3179174640838 129.5553253788276 1417.0171881554115 132.95593818818162Q1424.716458846739 136.35655099753563 1429.1228347675915 142.57490529309982Q1433.5292106884442 148.793259588664 1433.7667945810615 157.39378490063967H1414.9757222630037Q1414.8965276321312 151.82477437473784 1410.6785966501943 148.1532834456271Q1406.4606656682574 144.48179251651635 1399.6372052288698 144.48179251651635Q1393.0671734086623 144.48179251651635 1389.2436253080436 147.4199452240195Q1385.4200772074248 150.35809793152265 1385.4200772074248 154.63148545642827Q1385.4200772074248 158.3853515625 1388.3772261856388 160.73428635565227Q1391.334375163853 163.0832211488045 1396.5264088061035 164.22363543414428L1411.5859948484692 167.33440285497062Q1424.0512123466342 169.9573383100881 1429.9163568483907 175.56273660339764Q1435.7815013501472 181.16813489670722 1435.7815013501472 190.33886735135277Q1435.7815013501472 198.49906587536702 1431.2420790294677 204.4845780955065Q1426.702656708788 210.47009031564596 1418.7008619474886 213.7281440888475Q1410.6990671861895 216.98619786204907 1400.3658016332847 216.98619786204907Z"/>
</svg>
