<svg xmlns="http://www.w3.org/2000/svg" xmlns:xlink="http://www.w3.org/1999/xlink" width="1610.80" height="312.00" viewBox="0 0 1610.7987 312.0000">
<defs><defs
     id="defs1">
    <clipPath
       clipPathUnits="userSpaceOnUse"
       id="nirs4all_methods_clip">
      <path
         d="M 75.196094,-0.47997507 H 381.42019 V 303.18425 H 75.196094 Z"
         id="path1" />
    </clipPath>
  </defs></defs><g transform="translate(28.0,28.0) scale(0.8331102485382658) translate(0,0)"><g
     id="g8"
     transform="translate(-0.25127103,1.1057433)">
    <g
       id="g9">
      <path
         style="fill:#00A5D2;fill-opacity:1;fill-rule:evenodd;stroke:none"
         d="M 1.5315373,35.750606 C 1.5315373,16.791591 16.89074,1.4323885 35.849755,1.4323885 H 269.47762 c 18.91901,0 34.27821,15.3592025 34.27821,34.3182175 V 269.53846 c 0,18.91902 -15.3592,34.27822 -34.27821,34.27822 H 35.849755 c -18.959015,0 -34.3182177,-15.3592 -34.3182177,-34.27822 z"
         id="path2"
         transform="matrix(1.0163665,0,0,1.019436,-1.1937273,-2.5659717)" />
      <path
         style="fill:none;stroke:#ffffff;stroke-width:19.359px;stroke-linecap:butt;stroke-linejoin:miter;stroke-miterlimit:8;stroke-dasharray:none;stroke-opacity:1"
         clip-path="url(#nirs4all_methods_clip)"
         d="m 78.350886,215.76355 c 4.917688,0.027 13.251861,-0.0312 22.323884,-1.53468 6.67965,-1.47992 11.15942,-3.51981 16.79913,-8.67955 5.6797,-5.15973 10.19947,-8.15957 17.11911,-22.35883 6.95964,-14.15927 19.159,-49.59743 24.47873,-62.67675 5.27972,-13.11932 3.63981,-9.91948 7.31962,-15.83918 3.67981,-5.959687 11.4794,-8.59955 16.51914,-6.839641 5.03974,1.759908 9.39951,4.999741 13.71929,17.319101 4.35977,12.35936 6.23967,27.03859 9.4795,37.67804 3.27983,10.67945 4.39978,18.47904 10.11948,26.35863 5.6797,7.87959 12.48129,8.96263 20.43894,4.99974 6.87614,-5.69367 24.35873,-49.63742 26.59862,-51.67731 2.23988,-2.0399 14.71923,-18.23906 34.23822,6.47966 8.91953,11.39941 25.55867,37.55805 38.79798,52.55727"
         id="path3"
         transform="translate(-78.046472,1.0051295)" />
      <path
         style="fill:#ffffff;fill-opacity:1;fill-rule:evenodd;stroke:none"
         d="m 245.65157,200.51477 c 0,-13.5593 10.99943,-24.55873 24.55873,-24.55873 13.59929,0 24.55872,10.99943 24.55872,24.55873 0,13.59929 -10.95943,24.55872 -24.55872,24.55872 -13.5593,0 -24.55873,-10.95943 -24.55873,-24.55872 z"
         id="path4" />
    </g>
  </g></g>
<path fill="#000000" d="M352.85830307518876 167.71123472892197V215.0H332.8381672084732V131.37046979865772H352.51301564466235V152.64210704829068H348.59763773463715Q352.6302318188968 141.45981936870805 359.9699896281197 135.56618046088505Q367.3097474373427 129.67254155306208 378.20688804268036 129.67254155306208Q386.9943115234375 129.67254155306208 393.7068588768876 133.46912751677854Q400.4194062303377 137.26571348049498 404.2207630131869 144.63081415163592Q408.02211979603607 151.99591482277685 408.02211979603607 162.7632330772861V215.0H388.0019839293205V165.93726339660236Q388.0019839293205 156.71260666815226 383.5987305506764 151.96406585898174Q379.1954771720323 147.21552504981122 371.1397436359585 147.21552504981122Q365.8970242698721 147.21552504981122 361.7630297360004 149.35696062945678Q357.62903520212876 151.49839620910234 355.2436691386588 156.02360757917364Q352.85830307518876 160.54881894924495 352.85830307518876 167.71123472892197Z M425.733469221896 215.0V131.37046979865772H445.75360508861155V215.0ZM435.71502824821727 118.93358719588926Q430.60227624265934 118.93358719588926 427.1826816635644 115.6599563642797Q423.76308708446936 112.38632553267013 423.76308708446936 107.55806576790289Q423.76308708446936 102.72416123767826 427.1826816635644 99.47562010080222Q430.60227624265934 96.22707896392616 435.67812201247085 96.22707896392616Q440.8196348517647 96.22707896392616 444.24330213186494 99.47256557504829Q447.66696941196517 102.71805218617044 447.66696941196517 107.59497305416396Q447.66696941196517 112.40799601510066 444.23827390133334 115.67079160549497Q440.8095783907015 118.93358719588926 435.71502824821727 118.93358719588926Z M463.430113517198 215.0V131.37046979865772H482.70265670878774V145.25801010643875H482.96241741820467Q485.2590617135067 138.0513276989828 490.19130564440013 134.30541295813234Q495.1235495752936 130.55949821728188 503.24890710203437 130.55949821728188Q505.24143705432044 130.55949821728188 506.8997679844798 130.66086966495385Q508.55809891463923 130.76224111262582 509.74916992187497 130.8636125602978V148.60303586409395Q508.6436256357487 148.45097869258598 505.9589450503355 148.222892935324Q503.27426446492234 147.99480717806208 500.315554215604 147.99480717806208Q495.608229996854 147.99480717806208 491.7625340813758 150.16157111865562Q487.9168381658976 152.32833505924916 485.6835437749056 156.68563003027998Q483.45024938391356 161.04292500131083 483.45024938391356 167.62877254614094V215.0Z M554.0127814990561 216.98619786204907Q543.8093963008598 216.98619786204907 535.7394953170879 213.7851619029205Q527.6695943333158 210.58412594379195 522.7706301285916 204.36260560310927Q517.8716659238673 198.1410852624266 517.203267879614 189.147738340237H536.9509788564387Q537.6067127202181 195.25211501153524 541.8975062427904 198.62741396091127Q546.1882997653628 202.00271291028733 553.6389851614932 202.00271291028733Q560.8964402986052 202.00271291028733 565.0415232408766 199.14375483365666Q569.186606183148 196.28479675702602 569.186606183148 191.8530199703754Q569.186606183148 188.0706449572672 566.1296760303062 185.7613074795512Q563.0727458774643 183.45197000183515 557.7635250629194 182.35590935009438L543.5021884175754 179.416195371487Q531.5184707948824 176.90096345427852 525.3112049077181 170.8188216036598Q519.1039390205536 164.7366797530411 519.1039390205536 155.25868141123112Q519.1039390205536 147.58949539901425 523.2584765952705 141.80037948301174Q527.4130141699874 136.01126356700922 535.004581323406 132.7832944729184Q542.5961484768246 129.5553253788276 552.8280425820574 129.5553253788276Q562.9648973298553 129.5553253788276 570.6641680211828 132.95593818818162Q578.3634387125104 136.35655099753563 582.769814633363 142.57490529309982Q587.1761905542155 148.793259588664 587.413774446833 157.39378490063967H568.6227021287751Q568.5435074979026 151.82477437473784 564.3255765159657 148.1532834456271Q560.1076455340288 144.48179251651635 553.2841850946413 144.48179251651635Q546.7141532744337 144.48179251651635 542.890605173815 147.4199452240195Q539.0670570731962 150.35809793152265 539.0670570731962 154.63148545642827Q539.0670570731962 158.3853515625 542.0242060514104 160.73428635565227Q544.9813550296245 163.0832211488045 550.1733886718749 164.22363543414428L565.2329747142408 167.33440285497062Q577.6981922124055 169.9573383100881 583.563336714162 175.56273660339764Q589.4284812159185 181.16813489670722 589.4284812159185 190.33886735135277Q589.4284812159185 198.49906587536702 584.889058895239 204.4845780955065Q580.3496365745596 210.47009031564596 572.3478418132602 213.7281440888475Q564.3460470519609 216.98619786204907 554.0127814990561 216.98619786204907Z"/>
<path fill="#E9362D" d="M598.6723082267198 188.54257419253355V172.08929025534815L652.116135892932 96.99999999999999H665.1894080654886V117.84382963244546H657.8767345715536L619.7030360279467 171.54461888818278V171.7091328256082H694.1238702351615V188.54257419253355ZM657.9986283884753 215.0V183.57554726824665V176.09331742869128V96.99999999999999H677.8350466324979V215.0Z"/>
<path fill="#000000" d="M733.0656548212038 216.3526408150692Q724.7217096725566 216.3526408150692 718.2055731242135 213.5586519177328Q711.6894365758703 210.7646630203964 707.9197692461462 205.17351918060507Q704.1501019164219 199.58237534081377 704.1501019164219 191.26693909920303Q704.1501019164219 184.11724550388004 706.8332212307308 179.47486146248428Q709.5163405450397 174.8324774210885 714.1143854538066 172.05908956847736Q718.7124303625733 169.2857017158662 724.6488616328911 167.83961181640626Q730.5852929032088 166.3935219169463 737.012722184354 165.71561123636744Q744.7833086461828 164.83495766044462 749.3338338762321 164.18081406970953Q753.8843591062814 163.5266704789744 755.8388820161755 162.20253857094167Q757.7934049260696 160.87840666290896 757.7934049260696 158.02421940541106V157.4033265389052Q757.7934049260696 153.80784969457844 755.9719139150325 151.0676835642565Q754.1504229039953 148.32751743393456 750.7339363661388 146.76419685927013Q747.3174498282822 145.2008762846057 742.5118767040688 145.2008762846057Q737.6999714896182 145.2008762846057 734.0237242423448 146.75627449598886Q730.3474769950712 148.31167270737205 728.1933627339818 151.05341460976825Q726.0392484728922 153.79515651216443 725.7224699494022 157.36527599360318H706.5195797504194Q707.0295885329277 149.02769193713297 711.5278377660968 142.82042604996855Q716.0260869992659 136.6131601628041 724.019973898254 133.14285085793307Q732.0138607972419 129.67254155306208 742.9680192166526 129.67254155306208Q751.1091924680159 129.67254155306208 757.5508617017092 131.63815287135589Q763.9925309354026 133.60376418964972 768.4638470336095 137.30373502385694Q772.9351631318162 141.00370585806417 775.2666484243917 146.2289612226038Q777.5981337169673 151.45421658714343 777.5981337169673 157.97350467963506V215.0H757.9644583682885V203.1778231832005H757.6476798447986Q755.6868393456375 206.8999418322672 752.5285667470637 209.89191730678482Q749.3702941484898 212.88389278130242 744.6201920682151 214.6182667981858Q739.8700899879403 216.3526408150692 733.0656548212038 216.3526408150692ZM737.9882701080116 201.54969293991192Q744.4854683895238 201.54969293991192 748.9346511738411 199.17858132996014Q753.3838339581584 196.80746972000838 755.645637256187 192.8540412646812Q757.9074405542156 188.90061280935402 757.9074405542156 184.06337923395554V174.97811549653943Q756.9729497103083 175.5768315462458 755.1593810625524 176.12486187211618Q753.3458124147965 176.67289219798658 750.8527428134175 177.18132520842073Q748.3596732120385 177.68975821885488 745.4484536394975 178.17284836737102Q742.5372340669567 178.65593851588716 739.4581270973154 179.10259739408556Q735.1974327548237 179.70764553402893 731.5940480481856 181.09514184734164Q727.9906633415477 182.48263816065435 725.8112062185402 184.88066840459834Q723.6317490955327 187.27869864854236 723.6317490955327 191.0895825686871Q723.6317490955327 194.3429235266359 725.4025543827338 196.69819041002518Q727.1733596699349 199.05345729341443 730.3981917208473 200.30157511666317Q733.6230237717596 201.54969293991192 737.9882701080116 201.54969293991192Z M815.2757527396183 96.99999999999999V215.0H795.2556168729026V96.99999999999999Z M852.9723970349203 96.99999999999999V215.0H832.9522611682046V96.99999999999999Z M923.9341118524537 159.60180893456376V176.32121467334312H870.987802799916V159.60180893456376Z"/>
<path fill="#00A5D2" d="M941.9240732487415 215.0V131.37046979865772H961.2853237075293V149.6168663485738H959.7932899014261Q962.0772700162541 142.94870163066275 966.0908533288327 138.52014889301068Q970.1044366414114 134.09159615535862 975.3661232762688 131.88206885421033Q980.6278099111262 129.67254155306208 986.4438589620909 129.67254155306208Q996.0929397480598 129.67254155306208 1003.0858198537121 135.2129996690174Q1010.0786999593644 140.75345778497274 1011.6277515795406 149.6168663485738H1009.0555018482592Q1010.7059249161073 143.6424570378041 1014.700497457005 139.16321857631607Q1018.6950699979026 134.68398011482802 1024.471521733431 132.17826083394505Q1030.2479734689596 129.67254155306208 1037.1377684915242 129.67254155306208Q1045.058808622285 129.67254155306208 1051.4085216261726 133.11275167785234Q1057.7582346300603 136.5529618026426 1061.4544317484929 143.2559965197672Q1065.1506288669252 149.95903123689178 1065.1506288669252 159.7981907377307V215.0H1045.1304930002098V162.64908144138002Q1045.1304930002098 154.39271802686312 1040.586057707031 150.51903246797224Q1036.041622413852 146.64534690908135 1029.6462508848049 146.64534690908135Q1024.6148264058809 146.64534690908135 1020.9476345071421 148.81025757816366Q1017.2804426084033 150.975168247246 1015.2713862646148 154.80359089251516Q1013.2623299208262 158.63201353778433 1013.2623299208262 163.66279591809985V215.0H993.8123721948405V161.73673841233222Q993.8123721948405 154.86895334128565 989.5532536244232 150.7571501251835Q985.2941350540058 146.64534690908135 978.6305153795187 146.64534690908135Q974.1492210320221 146.64534690908135 970.3417980979374 148.75827358169042Q966.5343751638527 150.87120025429948 964.2392921396549 154.98106857382612Q961.9442091154572 159.09093689335276 961.9442091154572 165.08199618550753V215.0Z M1119.7634377293937 216.9006711409396Q1107.2316897808303 216.9006711409396 1098.0609718271548 211.29210680251154Q1088.8902538734792 205.68354246408347 1083.9120950378824 195.80955646694105Q1078.9339362022858 185.93557046979865 1078.9339362022858 173.28660634700083Q1078.9339362022858 160.50776186949454 1084.0498977558723 150.6226874639524Q1089.1658593094587 140.73761305841023 1098.189276409789 135.1037058580642Q1107.2126935101194 129.46979865771812 1118.9271377870698 129.46979865771812Q1127.980654067481 129.46979865771812 1135.345740237652 132.6233294390992Q1142.7108264078229 135.77686022048027 1148.0136861301908 141.59449954448928Q1153.3165458525586 147.41213886849832 1156.1691283360424 155.37912163446413Q1159.0217108195259 163.34610440042994 1159.0217108195259 172.97300836959943V178.40569044279573H1086.8597023778311V164.6195795865667H1149.017945974465L1140.072249239723 168.3163988766254Q1140.072249239723 161.2458419082949 1137.522161824271 156.0902250353922Q1134.972074408819 150.9346081624895 1130.3122263658765 148.13109212785758Q1125.652378322934 145.32757609322567 1119.2407357644713 145.32757609322567Q1112.908287836881 145.32757609322567 1108.2595282023383 148.13109212785758Q1103.6107685677955 150.9346081624895 1101.0606811523435 156.0902250353922Q1098.5105937368917 161.2458419082949 1098.5105937368917 168.3163988766254V177.01184753827602Q1098.5105937368917 184.1901080445155 1101.0527587890624 189.6450829422714Q1103.5949238412331 195.10005784002726 1108.4559245064752 198.13482567703966Q1113.3169251717175 201.16959351405202 1120.2195802419776 201.16959351405202Q1125.246892532246 201.16959351405202 1129.1195360836564 199.66488102650482Q1132.992179635067 198.16016853895763 1135.5771080477925 195.44693554359793Q1138.1620364605178 192.73370254823826 1139.286606019295 189.147738340237H1157.995332162332Q1156.4399484519188 197.34595840761324 1151.080070915478 203.58965556509543Q1145.7201933790373 209.8333527225776 1137.6376137138213 213.3670119317586Q1129.5550340486052 216.9006711409396 1119.7634377293937 216.9006711409396Z M1216.716459174444 131.37046979865772V147.4372932178062H1165.0311351392093V131.37046979865772ZM1179.634636672871 108.56241610738255H1199.6547725395867V191.02001658190017Q1199.6547725395867 195.45176436661075 1201.4746732775795 197.19247047373113Q1203.2945740155724 198.93317658085152 1208.157135951919 198.93317658085152Q1210.092648090132 198.93317658085152 1212.6189394138 198.93317658085152Q1215.1452307374684 198.93317658085152 1216.716459174444 198.93317658085152V215.0Q1214.628889864723 215.0 1211.2758257360265 215.0Q1207.92276160733 215.0 1204.6663271091127 215.0Q1191.8432160038274 215.0 1185.7389263383493 209.83177695050335Q1179.634636672871 204.6635539010067 1179.634636672871 193.92798310350253Z M1249.2623299208262 167.71123472892197V215.0H1229.2421940541105V96.99999999999999H1249.2623299208262V152.64210704829068H1245.0016645802746Q1249.0342586645343 141.45981936870805 1256.3740164737571 135.56618046088505Q1263.71377428298 129.67254155306208 1274.610914888318 129.67254155306208Q1283.398338369075 129.67254155306208 1290.110885722525 133.46912751677854Q1296.8234330759751 137.26571348049498 1300.6247898588244 144.63081415163592Q1304.4261466416735 151.99591482277685 1304.4261466416735 162.7632330772861V215.0H1284.4060107749578V165.93726339660236Q1284.4060107749578 156.71260666815226 1280.0027573963139 151.96406585898174Q1275.5995040176697 147.21552504981122 1267.5437704815959 147.21552504981122Q1262.3010511155094 147.21552504981122 1258.1670565816378 149.35696062945678Q1254.0330620477662 151.49839620910234 1251.6476959842962 156.02360757917364Q1249.2623299208262 160.54881894924495 1249.2623299208262 167.71123472892197Z M1359.5172458315856 216.9006711409396Q1347.2421070482906 216.9006711409396 1337.9351766496695 211.40297638553903Q1328.6282462510485 205.90528163013843 1323.4441784749893 196.0851474019505Q1318.2601106989302 186.26501317376258 1318.2601106989302 173.28660634700083Q1318.2601106989302 160.2575137964031 1323.4441784749893 150.40094829789743Q1328.6282462510485 140.54438279939177 1337.9351766496695 135.00709072855494Q1347.2421070482906 129.46979865771812 1359.5172458315856 129.46979865771812Q1371.8715792457529 129.46979865771812 1381.1389123289377 135.00709072855494Q1390.4062454121224 140.54438279939177 1395.5903131881814 150.40094829789743Q1400.7743809642407 160.2575137964031 1400.7743809642407 173.28660634700083Q1400.7743809642407 186.26501317376258 1395.5903131881814 196.0851474019505Q1390.4062454121224 205.90528163013843 1381.1389123289377 211.40297638553903Q1371.8715792457529 216.9006711409396 1359.5172458315856 216.9006711409396ZM1359.5172458315856 200.20029067481124Q1365.9542457529362 200.20029067481124 1370.6647795197146 196.94694971686243Q1375.375313286493 193.6936087589136 1377.9570756541002 187.6320099491401Q1380.538838021707 181.5704111393666 1380.538838021707 173.28660634700083Q1380.538838021707 164.8729211999266 1377.9570756541002 158.82557684367134Q1375.375313286493 152.77823248741612 1370.6647795197146 149.4742058056313Q1365.9542457529362 146.17017912384648 1359.5172458315856 146.17017912384648Q1353.1594405411074 146.17017912384648 1348.4093094588925 149.4488629437133Q1343.6591783766778 152.7275467635801 1341.077416009071 158.80023398175337Q1338.4956536414638 164.8729211999266 1338.4956536414638 173.28660634700083Q1338.4956536414638 181.62109686320258 1341.077416009071 187.6573528110581Q1343.6591783766778 193.6936087589136 1348.3839665969745 196.94694971686243Q1353.1087548172713 200.20029067481124 1359.5172458315856 200.20029067481124Z M1446.8943680526424 216.69792824559565Q1436.0161947160757 216.69792824559565 1427.8480593278102 211.22241030699456Q1419.6799239395448 205.74689236839345 1415.1800844333316 195.93784654860528Q1410.680244927118 186.1288007288171 1410.680244927118 173.12821708525587Q1410.680244927118 160.2480011600776 1415.222847793886 150.45320979380767Q1419.7654506606543 140.65841842753775 1427.9193315954017 135.1654799902999Q1436.0732125301488 129.67254155306208 1446.7803324244965 129.67254155306208Q1452.2447619546979 129.67254155306208 1456.952100674418 131.1598190410025Q1461.659439394138 132.64709652894294 1465.4560398588244 135.63590595834205Q1469.2526403235108 138.6247153877412 1471.9167488661387 143.2116718881082H1472.046629220847V96.99999999999999H1492.0667650875628V215.0H1472.363407744337V202.2148234322567H1472.2335273896288Q1469.6232561149852 207.07420482251467 1465.7759699264627 210.299007871487Q1461.9286837379402 213.5238109204593 1457.1579951139101 215.11086958302747Q1452.3873064898803 216.69792824559565 1446.8943680526424 216.69792824559565ZM1451.604756809721 199.99121568923027Q1458.139947632655 199.99121568923027 1462.986693844379 196.66660246369023Q1467.833440056103 193.34198923815018 1470.4943970545824 187.29147883677643Q1473.155354053062 181.2409684354027 1473.155354053062 173.12821708525587Q1473.155354053062 164.96478001127306 1470.4943970545824 158.94277851693582Q1467.833440056103 152.92077702259857 1462.986693844379 149.59616379705852Q1458.139947632655 146.27155057151845 1451.604756809721 146.27155057151845Q1445.4528749606752 146.27155057151845 1440.781938509333 149.39342090171453Q1436.1110020579906 152.51529123191065 1433.5133949638212 158.48660700241192Q1430.9157878696517 164.45792277291315 1430.9157878696517 173.12821708525587Q1430.9157878696517 181.74782567376258 1433.5133949638212 187.74765035130034Q1436.1110020579906 193.7474750288381 1440.781938509333 196.86934535903418Q1445.4528749606752 199.99121568923027 1451.604756809721 199.99121568923027Z M1542.5993586802642 216.98619786204907Q1532.395973482068 216.98619786204907 1524.326072498296 213.7851619029205Q1516.2561715145239 210.58412594379195 1511.3572073097998 204.36260560310927Q1506.4582431050756 198.1410852624266 1505.789845060822 189.147738340237H1525.5375560376467Q1526.1932899014262 195.25211501153524 1530.4840834239985 198.62741396091127Q1534.7748769465709 202.00271291028733 1542.2255623427013 202.00271291028733Q1549.4830174798133 202.00271291028733 1553.6281004220846 199.14375483365666Q1557.773183364356 196.28479675702602 1557.773183364356 191.8530199703754Q1557.773183364356 188.0706449572672 1554.7162532115142 185.7613074795512Q1551.6593230586723 183.45197000183515 1546.3501022441276 182.35590935009438L1532.0887655987835 179.416195371487Q1520.1050479760906 176.90096345427852 1513.8977820889263 170.8188216036598Q1507.6905162017617 164.7366797530411 1507.6905162017617 155.25868141123112Q1507.6905162017617 147.58949539901425 1511.8450537764786 141.80037948301174Q1515.9995913511955 136.01126356700922 1523.5911585046142 132.7832944729184Q1531.1827256580327 129.5553253788276 1541.4146197632656 129.5553253788276Q1551.5514745110634 129.5553253788276 1559.250745202391 132.95593818818162Q1566.9500158937185 136.35655099753563 1571.356391814571 142.57490529309982Q1575.7627677354237 148.793259588664 1576.000351628041 157.39378490063967H1557.2092793099832Q1557.1300846791107 151.82477437473784 1552.9121536971738 148.1532834456271Q1548.694222715237 144.48179251651635 1541.8707622758493 144.48179251651635Q1535.3007304556418 144.48179251651635 1531.4771823550232 147.4199452240195Q1527.6536342544043 150.35809793152265 1527.6536342544043 154.63148545642827Q1527.6536342544043 158.3853515625 1530.6107832326184 160.73428635565227Q1533.5679322108326 163.0832211488045 1538.759965853083 164.22363543414428L1553.8195518954487 167.33440285497062Q1566.2847693936137 169.9573383100881 1572.1499138953702 175.56273660339764Q1578.0150583971267 181.16813489670722 1578.0150583971267 190.33886735135277Q1578.0150583971267 198.49906587536702 1573.4756360764472 204.4845780955065Q1568.9362137557675 210.47009031564596 1560.9344189944682 213.7281440888475Q1552.932624233169 216.98619786204907 1542.5993586802642 216.98619786204907Z"/>
</svg>
