<svg xmlns="http://www.w3.org/2000/svg" xmlns:xlink="http://www.w3.org/1999/xlink" width="316.84" height="406.00" viewBox="0 0 316.8376 406.0000">
<defs><defs
     id="defs1">
    <clipPath
       clipPathUnits="userSpaceOnUse"
       id="nirs4all_methods_clip">
      <path
         d="M 75.196094,-0.47997507 H 381.42019 V 303.18425 H 75.196094 Z"
         id="path1" />
    </clipPath>
  </defs></defs><g transform="translate(38.418791946308744,24.0) scale(0.7810408580046241) translate(0,0)"><g
     id="g8"
     transform="translate(-0.25127103,1.1057433)">
    <g
       id="g9">
      <path
         style="fill:#00A5D2;fill-opacity:1;fill-rule:evenodd;stroke:none"
         d="M 1.5315373,35.750606 C 1.5315373,16.791591 16.89074,1.4323885 35.849755,1.4323885 H 269.47762 c 18.91901,0 34.27821,15.3592025 34.27821,34.3182175 V 269.53846 c 0,18.91902 -15.3592,34.27822 -34.27821,34.27822 H 35.849755 c -18.959015,0 -34.3182177,-15.3592 -34.3182177,-34.27822 z"
         id="path2"
         transform="matrix(1.0163665,0,0,1.019436,-1.1937273,-2.5659717)" />
      <path
         style="fill:none;stroke:#ffffff;stroke-width:19.359px;stroke-linecap:butt;stroke-linejoin:miter;stroke-miterlimit:8;stroke-dasharray:none;stroke-opacity:1"
         clip-path="url(#nirs4all_methods_clip)"
         d="m 78.350886,215.76355 c 4.917688,0.027 13.251861,-0.0312 22.323884,-1.53468 6.67965,-1.47992 11.15942,-3.51981 16.79913,-8.67955 5.6797,-5.15973 10.19947,-8.15957 17.11911,-22.35883 6.95964,-14.15927 19.159,-49.59743 24.47873,-62.67675 5.27972,-13.11932 3.63981,-9.91948 7.31962,-15.83918 3.67981,-5.959687 11.4794,-8.59955 16.51914,-6.839641 5.03974,1.759908 9.39951,4.999741 13.71929,17.319101 4.35977,12.35936 6.23967,27.03859 9.4795,37.67804 3.27983,10.67945 4.39978,18.47904 10.11948,26.35863 5.6797,7.87959 12.48129,8.96263 20.43894,4.99974 6.87614,-5.69367 24.35873,-49.63742 26.59862,-51.67731 2.23988,-2.0399 14.71923,-18.23906 34.23822,6.47966 8.91953,11.39941 25.55867,37.55805 38.79798,52.55727"
         id="path3"
         transform="translate(-78.046472,1.0051295)" />
      <path
         style="fill:#ffffff;fill-opacity:1;fill-rule:evenodd;stroke:none"
         d="m 245.65157,200.51477 c 0,-13.5593 10.99943,-24.55873 24.55873,-24.55873 13.59929,0 24.55872,10.99943 24.55872,24.55873 0,13.59929 -10.95943,24.55872 -24.55872,24.55872 -13.5593,0 -24.55873,-10.95943 -24.55873,-24.55872 z"
         id="path4" />
    </g>
  </g></g>
<path fill="#FFFFFF" d="M48.61128585098574 345.7753843985948V382.0H30.44622876468121V316.7973154362416H48.33096506003565V333.7709592268771H45.23384297006082Q48.344558449559564 325.10813365142616 54.07263830812185 320.2685930290478Q59.80071816668414 315.4290524066695 68.68577135329278 315.4290524066695Q75.65923293964974 315.4290524066695 80.79272166002517 318.4335570469799Q85.92621038040059 321.43806168729026 88.75105955392723 327.1803435664849Q91.57590872745386 332.9226254456795 91.57590872745386 341.1618927616401V382.0H73.41085164114932V344.50342452286077Q73.41085164114932 337.9447968553377 70.28343178153838 334.53705620477666Q67.15601192192743 331.1293155542156 61.40872532377307 331.1293155542156Q57.65459066301384 331.1293155542156 54.764885532455956 332.6766593369862Q51.87518040189807 334.22400311975673 50.24323312644191 337.46317933357807Q48.61128585098574 340.70235554739935 48.61128585098574 345.7753843985948Z"/>
<path fill="#E9362D" d="M101.6430441222735 362.1723586933725V347.4995100802223L142.1330671272022 290.0H154.0261749882026V308.14044050178273H147.4499042350293L119.94031548212038 347.2947362972821V347.4253889864723H177.42988395946938V362.1723586933725ZM147.53071305447776 382.0V357.72185206061243V351.1325214974832V290.0H165.41916897152896V382.0Z"/>
<path fill="#00A5D2" d="M187.5254233955537 382.0V316.7973154362416H205.04340951394718V331.4678651950503H203.9468107697148Q205.6608591783767 326.0466842753775 208.79565044633497 322.4883347479289Q211.93044171429324 318.92998522048026 216.07722823379828 317.1795188135749Q220.2240147533033 315.4290524066695 224.803016037909 315.4290524066695Q232.25934632576553 315.4290524066695 237.76699054897233 319.73206115313025Q243.27463477217913 324.035069899591 244.43791536676807 331.4678651950503H242.51022801751262Q243.7303166946309 326.4875555460885 246.88918375104868 322.9008019773752Q250.04805080746647 319.3140484086619 254.59617960885072 317.3715504076657Q259.14430841023494 315.4290524066695 264.4604447954684 315.4290524066695Q270.73619377464706 315.4290524066695 275.69793111431954 318.1557046979866Q280.659668453992 320.8823569893037 283.5192219747414 326.09733821177645Q286.3787754954908 331.31231943424916 286.3787754954908 338.8057102689807V382.0H268.2137184091863V342.1398027868079Q268.2137184091863 336.2694338187745 265.0262359022819 333.36596543471234Q261.8387533953774 330.4624970506502 257.17482713532934 330.4624970506502Q253.66322635325395 330.4624970506502 251.09857129387694 332.0059161620718Q248.53391623449994 333.5493352734934 247.11756748569587 336.3008206901672Q245.7012187368918 339.052306106841 245.7012187368918 342.7078836121015V382.0H228.2029801541527V341.6285300440436Q228.2029801541527 336.52959951106334 225.18237976483852 333.49604828085677Q222.16177937552436 330.4624970506502 217.34427870223843 330.4624970506502Q214.13934287889913 330.4624970506502 211.4875824313487 331.97649990824243Q208.83582198379827 333.4905027658347 207.26315123282825 336.40029537362255Q205.69048048185823 339.3100879814104 205.69048048185823 343.5031967675126V382.0Z"/>
</svg>
