<svg xmlns="http://www.w3.org/2000/svg" xmlns:xlink="http://www.w3.org/1999/xlink" width="1466.03" height="312.00" viewBox="0 0 1466.0309 312.0000">
<defs><defs
     id="defs1">
    <clipPath
       clipPathUnits="userSpaceOnUse"
       id="nirs4all_cluster_clip">
      <path
         d="M 75.196094,-0.47997507 H 381.42019 V 303.18425 H 75.196094 Z"
         id="path1" />
    </clipPath>
  </defs></defs><g transform="translate(28.0,28.0) scale(0.8331102485382658) translate(0,0)"><g
     id="g8"
     transform="translate(-0.25127103,1.1057433)">
    <g
       id="g9">
      <path
         style="fill:#1B5789;fill-opacity:1;fill-rule:evenodd;stroke:none"
         d="M 1.5315373,35.750606 C 1.5315373,16.791591 16.89074,1.4323885 35.849755,1.4323885 H 269.47762 c 18.91901,0 34.27821,15.3592025 34.27821,34.3182175 V 269.53846 c 0,18.91902 -15.3592,34.27822 -34.27821,34.27822 H 35.849755 c -18.959015,0 -34.3182177,-15.3592 -34.3182177,-34.27822 z"
         id="path2"
         transform="matrix(1.0163665,0,0,1.019436,-1.1937273,-2.5659717)" />
      <path
         style="fill:none;stroke:#ffffff;stroke-width:19.359px;stroke-linecap:butt;stroke-linejoin:miter;stroke-miterlimit:8;stroke-dasharray:none;stroke-opacity:1"
         clip-path="url(#nirs4all_cluster_clip)"
         d="m 78.350886,215.76355 c 4.917688,0.027 13.251861,-0.0312 22.323884,-1.53468 6.67965,-1.47992 11.15942,-3.51981 16.79913,-8.67955 5.6797,-5.15973 10.19947,-8.15957 17.11911,-22.35883 6.95964,-14.15927 19.159,-49.59743 24.47873,-62.67675 5.27972,-13.11932 3.63981,-9.91948 7.31962,-15.83918 3.67981,-5.959687 11.4794,-8.59955 16.51914,-6.839641 5.03974,1.759908 9.39951,4.999741 13.71929,17.319101 4.35977,12.35936 6.23967,27.03859 9.4795,37.67804 3.27983,10.67945 4.39978,18.47904 10.11948,26.35863 5.6797,7.87959 12.48129,8.96263 20.43894,4.99974 6.87614,-5.69367 24.35873,-49.63742 26.59862,-51.67731 2.23988,-2.0399 14.71923,-18.23906 34.23822,6.47966 8.91953,11.39941 25.55867,37.55805 38.79798,52.55727"
         id="path3"
         transform="translate(-78.046472,1.0051295)" />
      <path
         style="fill:#ffffff;fill-opacity:1;fill-rule:evenodd;stroke:none"
         d="m 245.65157,200.51477 c 0,-13.5593 10.99943,-24.55873 24.55873,-24.55873 13.59929,0 24.55872,10.99943 24.55872,24.55873 0,13.59929 -10.95943,24.55872 -24.55872,24.55872 -13.5593,0 -24.55873,-10.95943 -24.55873,-24.55872 z"
         id="path4" />
    </g>
  </g></g>
<path fill="#000000" d="M352.85830307518876 167.71123472892197V215.0H332.8381672084732V131.37046979865772H352.51301564466235V152.64210704829068H348.59763773463715Q352.6302318188968 141.45981936870805 359.9699896281197 135.56618046088505Q367.3097474373427 129.67254155306208 378.20688804268036 129.67254155306208Q386.9943115234375 129.67254155306208 393.7068588768876 133.46912751677854Q400.4194062303377 137.26571348049498 404.2207630131869 144.63081415163592Q408.02211979603607 151.99591482277685 408.02211979603607 162.7632330772861V215.0H388.0019839293205V165.93726339660236Q388.0019839293205 156.71260666815226 383.5987305506764 151.96406585898174Q379.1954771720323 147.21552504981122 371.1397436359585 147.21552504981122Q365.8970242698721 147.21552504981122 361.7630297360004 149.35696062945678Q357.62903520212876 151.49839620910234 355.2436691386588 156.02360757917364Q352.85830307518876 160.54881894924495 352.85830307518876 167.71123472892197Z M425.733469221896 215.0V131.37046979865772H445.75360508861155V215.0ZM435.71502824821727 118.93358719588926Q430.60227624265934 118.93358719588926 427.1826816635644 115.6599563642797Q423.76308708446936 112.38632553267013 423.76308708446936 107.55806576790289Q423.76308708446936 102.72416123767826 427.1826816635644 99.47562010080222Q430.60227624265934 96.22707896392616 435.67812201247085 96.22707896392616Q440.8196348517647 96.22707896392616 444.24330213186494 99.47256557504829Q447.66696941196517 102.71805218617044 447.66696941196517 107.59497305416396Q447.66696941196517 112.40799601510066 444.23827390133334 115.67079160549497Q440.8095783907015 118.93358719588926 435.71502824821727 118.93358719588926Z M463.430113517198 215.0V131.37046979865772H482.70265670878774V145.25801010643875H482.96241741820467Q485.2590617135067 138.0513276989828 490.19130564440013 134.30541295813234Q495.1235495752936 130.55949821728188 503.24890710203437 130.55949821728188Q505.24143705432044 130.55949821728188 506.8997679844798 130.66086966495385Q508.55809891463923 130.76224111262582 509.74916992187497 130.8636125602978V148.60303586409395Q508.6436256357487 148.45097869258598 505.9589450503355 148.222892935324Q503.27426446492234 147.99480717806208 500.315554215604 147.99480717806208Q495.608229996854 147.99480717806208 491.7625340813758 150.16157111865562Q487.9168381658976 152.32833505924916 485.6835437749056 156.68563003027998Q483.45024938391356 161.04292500131083 483.45024938391356 167.62877254614094V215.0Z M554.0127814990561 216.98619786204907Q543.8093963008598 216.98619786204907 535.7394953170879 213.7851619029205Q527.6695943333158 210.58412594379195 522.7706301285916 204.36260560310927Q517.8716659238673 198.1410852624266 517.203267879614 189.147738340237H536.9509788564387Q537.6067127202181 195.25211501153524 541.8975062427904 198.62741396091127Q546.1882997653628 202.00271291028733 553.6389851614932 202.00271291028733Q560.8964402986052 202.00271291028733 565.0415232408766 199.14375483365666Q569.186606183148 196.28479675702602 569.186606183148 191.8530199703754Q569.186606183148 188.0706449572672 566.1296760303062 185.7613074795512Q563.0727458774643 183.45197000183515 557.7635250629194 182.35590935009438L543.5021884175754 179.416195371487Q531.5184707948824 176.90096345427852 525.3112049077181 170.8188216036598Q519.1039390205536 164.7366797530411 519.1039390205536 155.25868141123112Q519.1039390205536 147.58949539901425 523.2584765952705 141.80037948301174Q527.4130141699874 136.01126356700922 535.004581323406 132.7832944729184Q542.5961484768246 129.5553253788276 552.8280425820574 129.5553253788276Q562.9648973298553 129.5553253788276 570.6641680211828 132.95593818818162Q578.3634387125104 136.35655099753563 582.769814633363 142.57490529309982Q587.1761905542155 148.793259588664 587.413774446833 157.39378490063967H568.6227021287751Q568.5435074979026 151.82477437473784 564.3255765159657 148.1532834456271Q560.1076455340288 144.48179251651635 553.2841850946413 144.48179251651635Q546.7141532744337 144.48179251651635 542.890605173815 147.4199452240195Q539.0670570731962 150.35809793152265 539.0670570731962 154.63148545642827Q539.0670570731962 158.3853515625 542.0242060514104 160.73428635565227Q544.9813550296245 163.0832211488045 550.1733886718749 164.22363543414428L565.2329747142408 167.33440285497062Q577.6981922124055 169.9573383100881 583.563336714162 175.56273660339764Q589.4284812159185 181.16813489670722 589.4284812159185 190.33886735135277Q589.4284812159185 198.49906587536702 584.889058895239 204.4845780955065Q580.3496365745596 210.47009031564596 572.3478418132602 213.7281440888475Q564.3460470519609 216.98619786204907 554.0127814990561 216.98619786204907Z"/>
<path fill="#E9362D" d="M598.6723082267198 188.54257419253355V172.08929025534815L652.116135892932 96.99999999999999H665.1894080654886V117.84382963244546H657.8767345715536L619.7030360279467 171.54461888818278V171.7091328256082H694.1238702351615V188.54257419253355ZM657.9986283884753 215.0V183.57554726824665V176.09331742869128V96.99999999999999H677.8350466324979V215.0Z"/>
<path fill="#000000" d="M733.0656548212038 216.3526408150692Q724.7217096725566 216.3526408150692 718.2055731242135 213.5586519177328Q711.6894365758703 210.7646630203964 707.9197692461462 205.17351918060507Q704.1501019164219 199.58237534081377 704.1501019164219 191.26693909920303Q704.1501019164219 184.11724550388004 706.8332212307308 179.47486146248428Q709.5163405450397 174.8324774210885 714.1143854538066 172.05908956847736Q718.7124303625733 169.2857017158662 724.6488616328911 167.83961181640626Q730.5852929032088 166.3935219169463 737.012722184354 165.71561123636744Q744.7833086461828 164.83495766044462 749.3338338762321 164.18081406970953Q753.8843591062814 163.5266704789744 755.8388820161755 162.20253857094167Q757.7934049260696 160.87840666290896 757.7934049260696 158.02421940541106V157.4033265389052Q757.7934049260696 153.80784969457844 755.9719139150325 151.0676835642565Q754.1504229039953 148.32751743393456 750.7339363661388 146.76419685927013Q747.3174498282822 145.2008762846057 742.5118767040688 145.2008762846057Q737.6999714896182 145.2008762846057 734.0237242423448 146.75627449598886Q730.3474769950712 148.31167270737205 728.1933627339818 151.05341460976825Q726.0392484728922 153.79515651216443 725.7224699494022 157.36527599360318H706.5195797504194Q707.0295885329277 149.02769193713297 711.5278377660968 142.82042604996855Q716.0260869992659 136.6131601628041 724.019973898254 133.14285085793307Q732.0138607972419 129.67254155306208 742.9680192166526 129.67254155306208Q751.1091924680159 129.67254155306208 757.5508617017092 131.63815287135589Q763.9925309354026 133.60376418964972 768.4638470336095 137.30373502385694Q772.9351631318162 141.00370585806417 775.2666484243917 146.2289612226038Q777.5981337169673 151.45421658714343 777.5981337169673 157.97350467963506V215.0H757.9644583682885V203.1778231832005H757.6476798447986Q755.6868393456375 206.8999418322672 752.5285667470637 209.89191730678482Q749.3702941484898 212.88389278130242 744.6201920682151 214.6182667981858Q739.8700899879403 216.3526408150692 733.0656548212038 216.3526408150692ZM737.9882701080116 201.54969293991192Q744.4854683895238 201.54969293991192 748.9346511738411 199.17858132996014Q753.3838339581584 196.80746972000838 755.645637256187 192.8540412646812Q757.9074405542156 188.90061280935402 757.9074405542156 184.06337923395554V174.97811549653943Q756.9729497103083 175.5768315462458 755.1593810625524 176.12486187211618Q753.3458124147965 176.67289219798658 750.8527428134175 177.18132520842073Q748.3596732120385 177.68975821885488 745.4484536394975 178.17284836737102Q742.5372340669567 178.65593851588716 739.4581270973154 179.10259739408556Q735.1974327548237 179.70764553402893 731.5940480481856 181.09514184734164Q727.9906633415477 182.48263816065435 725.8112062185402 184.88066840459834Q723.6317490955327 187.27869864854236 723.6317490955327 191.0895825686871Q723.6317490955327 194.3429235266359 725.4025543827338 196.69819041002518Q727.1733596699349 199.05345729341443 730.3981917208473 200.30157511666317Q733.6230237717596 201.54969293991192 737.9882701080116 201.54969293991192Z M815.2757527396183 96.99999999999999V215.0H795.2556168729026V96.99999999999999Z M852.9723970349203 96.99999999999999V215.0H832.9522611682046V96.99999999999999Z M923.9341118524537 159.60180893456376V176.32121467334312H870.987802799916V159.60180893456376Z"/>
<path fill="#1B5789" d="M978.9617161283556 216.9006711409396Q966.7435951591337 216.9006711409396 957.5221914816223 211.36021302498426Q948.3007878041107 205.81975490902894 943.1737378421244 195.98536622732277Q938.0466878801383 186.1509775456166 938.0466878801383 173.28660634700083Q938.0466878801383 160.37154942454907 943.1737378421244 150.48647501900692Q948.3007878041107 140.60140061346476 957.5221914816223 135.03559963559144Q966.7435951591337 129.46979865771812 978.9617161283556 129.46979865771812Q986.8304644898279 129.46979865771812 993.4875407993393 131.81870444893036Q1000.1446171088505 134.1676102401426 1005.1481188063652 138.42985135276845Q1010.1516205038799 142.6920924653943 1013.1958574743078 148.4970386069893Q1016.2400944447356 154.30198474858432 1016.9116730350775 161.2932600802223H997.3033260473468Q996.7616278117134 157.9132193136535 995.3186894564019 155.1382266870281Q993.8757511010905 152.36323406040268 991.5711699415372 150.34851279034712Q989.266588781984 148.33379152029153 986.1795594490613 147.2234764150325Q983.0925301161387 146.1131613097735 979.1897873846475 146.1131613097735Q972.6609286519504 146.1131613097735 967.9678153838086 149.4488629437133Q963.2747021156669 152.7845645776531 960.7784664691694 158.88576070286283Q958.2822308226719 164.98695682807255 958.2822308226719 173.28660634700083Q958.2822308226719 181.50706123505663 960.7784664691694 187.57182608994862Q963.2747021156669 193.6365909448406 967.9567269754089 196.94694971686243Q972.6387518351509 200.25730848888423 979.1897873846475 200.25730848888423Q983.0925301161387 200.25730848888423 986.1288737252253 199.18342465394295Q989.1652173343119 198.10954081900167 991.3684270461932 196.09481954894608Q993.5716367580745 194.08009827889052 995.014575113386 191.2512538833106Q996.4575134686975 188.4224094877307 997.1512688758388 184.96317409028944H1016.9116730350775Q1016.3541300728816 191.85307797425546 1013.3526564630085 197.6722785693687Q1010.3511828531354 203.49147916448197 1005.3080838401845 207.8075720460623Q1000.2649848272335 212.1236649276426 993.5651451571675 214.5121680342911Q986.8653054871014 216.9006711409396 978.9617161283556 216.9006711409396Z M1050.246222538276 96.99999999999999V215.0H1030.2260866715603V96.99999999999999Z M1097.737962720218 216.69792824559565Q1089.0297338703335 216.69792824559565 1082.2775892014472 212.90134228187918Q1075.5254445325609 209.10475631816274 1071.7240877497115 201.7143127851038Q1067.9227309668624 194.3238692520449 1067.9227309668624 183.60723672137163V131.37046979865772H1087.9428668335781V180.43320640205536Q1087.9428668335781 189.62935422346897 1092.3857175276585 194.39214948615773Q1096.8285682217388 199.15494474884648 1104.8051071269401 199.15494474884648Q1110.0478264930266 199.15494474884648 1114.1818210268982 197.01350916920092Q1118.3158155607698 194.87207358955536 1120.7011816242398 190.32151935756605Q1123.0865476877098 185.77096512557677 1123.0865476877098 178.65923506973573V131.37046979865772H1143.1066835544254V215.0H1123.4318351182362V193.72836275036704H1127.3472130282614Q1123.3146189440017 204.8599647061137 1115.989115588297 210.77894647585467Q1108.6636122325924 216.69792824559565 1097.737962720218 216.69792824559565Z M1193.6678150561033 216.98619786204907Q1183.4644298579071 216.98619786204907 1175.3945288741352 213.7851619029205Q1167.324627890363 210.58412594379195 1162.425663685639 204.36260560310927Q1157.5266994809147 198.1410852624266 1156.8583014366611 189.147738340237H1176.6060124134858Q1177.2617462772653 195.25211501153524 1181.5525397998376 198.62741396091127Q1185.84333332241 202.00271291028733 1193.2940187185404 202.00271291028733Q1200.5514738556524 202.00271291028733 1204.6965567979237 199.14375483365666Q1208.8416397401952 196.28479675702602 1208.8416397401952 191.8530199703754Q1208.8416397401952 188.0706449572672 1205.7847095873533 185.7613074795512Q1202.7277794345114 183.45197000183515 1197.4185586199667 182.35590935009438L1183.1572219746226 179.416195371487Q1171.1735043519298 176.90096345427852 1164.9662384647654 170.8188216036598Q1158.7589725776008 164.7366797530411 1158.7589725776008 155.25868141123112Q1158.7589725776008 147.58949539901425 1162.9135101523177 141.80037948301174Q1167.0680477270346 136.01126356700922 1174.6596148804533 132.7832944729184Q1182.2511820338718 129.5553253788276 1192.4830761391047 129.5553253788276Q1202.6199308869025 129.5553253788276 1210.3192015782301 132.95593818818162Q1218.0184722695576 136.35655099753563 1222.42484819041 142.57490529309982Q1226.8312241112628 148.793259588664 1227.0688080038801 157.39378490063967H1208.2777356858223Q1208.1985410549498 151.82477437473784 1203.980610073013 148.1532834456271Q1199.762679091076 144.48179251651635 1192.9392186516884 144.48179251651635Q1186.3691868314809 144.48179251651635 1182.5456387308623 147.4199452240195Q1178.7220906302434 150.35809793152265 1178.7220906302434 154.63148545642827Q1178.7220906302434 158.3853515625 1181.6792396084575 160.73428635565227Q1184.6363885866717 163.0832211488045 1189.8284222289221 164.22363543414428L1204.8880082712878 167.33440285497062Q1217.3532257694528 169.9573383100881 1223.2183702712093 175.56273660339764Q1229.0835147729658 181.16813489670722 1229.0835147729658 190.33886735135277Q1229.0835147729658 198.49906587536702 1224.5440924522863 204.4845780955065Q1220.0046701316066 210.47009031564596 1212.0028753703073 213.7281440888475Q1204.001080609008 216.98619786204907 1193.6678150561033 216.98619786204907Z M1286.8829021274644 131.37046979865772V147.4372932178062H1235.1975780922296V131.37046979865772ZM1249.8010796258914 108.56241610738255H1269.821215492607V191.02001658190017Q1269.821215492607 195.45176436661075 1271.6411162306 197.19247047373113Q1273.4610169685927 198.93317658085152 1278.3235789049393 198.93317658085152Q1280.2590910431522 198.93317658085152 1282.7853823668206 198.93317658085152Q1285.3116736904888 198.93317658085152 1286.8829021274644 198.93317658085152V215.0Q1284.7953328177434 215.0 1281.4422686890468 215.0Q1278.0892045603503 215.0 1274.832770062133 215.0Q1262.0096589568477 215.0 1255.9053692913694 209.83177695050335Q1249.8010796258914 204.6635539010067 1249.8010796258914 193.92798310350253Z M1336.3607531656355 216.9006711409396Q1323.829005217072 216.9006711409396 1314.6582872633967 211.29210680251154Q1305.487569309721 205.68354246408347 1300.5094104741243 195.80955646694105Q1295.5312516385277 185.93557046979865 1295.5312516385277 173.28660634700083Q1295.5312516385277 160.50776186949454 1300.6472131921141 150.6226874639524Q1305.7631747457006 140.73761305841023 1314.786591846031 135.1037058580642Q1323.8100089463612 129.46979865771812 1335.5244532233116 129.46979865771812Q1344.577969503723 129.46979865771812 1351.943055673894 132.6233294390992Q1359.3081418440647 135.77686022048027 1364.6110015664326 141.59449954448928Q1369.9138612888005 147.41213886849832 1372.7664437722842 155.37912163446413Q1375.6190262557677 163.34610440042994 1375.6190262557677 172.97300836959943V178.40569044279573H1303.457017814073V164.6195795865667H1365.6152614107068L1356.669564675965 168.3163988766254Q1356.669564675965 161.2458419082949 1354.119477260513 156.0902250353922Q1351.5693898450609 150.9346081624895 1346.9095418021184 148.13109212785758Q1342.249693759176 145.32757609322567 1335.8380512007132 145.32757609322567Q1329.505603273123 145.32757609322567 1324.8568436385801 148.13109212785758Q1320.2080840040373 150.9346081624895 1317.6579965885853 156.0902250353922Q1315.1079091731335 161.2458419082949 1315.1079091731335 168.3163988766254V177.01184753827602Q1315.1079091731335 184.1901080445155 1317.6500742253043 189.6450829422714Q1320.192239277475 195.10005784002726 1325.053239942717 198.13482567703966Q1329.9142406079593 201.16959351405202 1336.8168956782195 201.16959351405202Q1341.8442079684878 201.16959351405202 1345.7168515198982 199.66488102650482Q1349.5894950713089 198.16016853895763 1352.1744234840344 195.44693554359793Q1354.7593518967597 192.73370254823826 1355.883921455537 189.147738340237H1374.5926475985739Q1373.0372638881606 197.34595840761324 1367.6773863517199 203.58965556509543Q1362.317508815279 209.8333527225776 1354.2349291500632 213.3670119317586Q1346.152349484847 216.9006711409396 1336.3607531656355 216.9006711409396Z M1389.1361537856544 215.0V131.37046979865772H1408.4086969772443V145.25801010643875H1408.6684576866612Q1410.9651019819632 138.0513276989828 1415.8973459128565 134.30541295813234Q1420.82958984375 130.55949821728188 1428.9549473704908 130.55949821728188Q1430.9474773227769 130.55949821728188 1432.6058082529362 130.66086966495385Q1434.2641391830957 130.76224111262582 1435.4552101903314 130.8636125602978V148.60303586409395Q1434.3496659042053 148.45097869258598 1431.664985318792 148.222892935324Q1428.980304733379 147.99480717806208 1426.0215944840604 147.99480717806208Q1421.3142702653106 147.99480717806208 1417.4685743498324 150.16157111865562Q1413.622878434354 152.32833505924916 1411.389584043362 156.68563003027998Q1409.15628965237 161.04292500131083 1409.15628965237 167.62877254614094V215.0Z"/>
</svg>
