<svg xmlns="http://www.w3.org/2000/svg" xmlns:xlink="http://www.w3.org/1999/xlink" width="288.00" height="407.48" viewBox="0 0 288.0000 407.4819">
<defs><defs
     id="defs1">
    <clipPath
       clipPathUnits="userSpaceOnUse"
       id="nirs4all_cluster_clip">
      <path
         d="M 75.196094,-0.47997507 H 381.42019 V 303.18425 H 75.196094 Z"
         id="path1" />
    </clipPath>
  </defs></defs><g transform="translate(24.0,24.0) scale(0.7810408580046241) translate(0,0)"><g
     id="g8"
     transform="translate(-0.25127103,1.1057433)">
    <g
       id="g9">
      <path
         style="fill:#1B5789;fill-opacity:1;fill-rule:evenodd;stroke:none"
         d="M 1.5315373,35.750606 C 1.5315373,16.791591 16.89074,1.4323885 35.849755,1.4323885 H 269.47762 c 18.91901,0 34.27821,15.3592025 34.27821,34.3182175 V 269.53846 c 0,18.91902 -15.3592,34.27822 -34.27821,34.27822 H 35.849755 c -18.959015,0 -34.3182177,-15.3592 -34.3182177,-34.27822 z"
         id="path2"
         transform="matrix(1.0163665,0,0,1.019436,-1.1937273,-2.5659717)" />
      <path
         style="fill:none;stroke:#ffffff;stroke-width:19.359px;stroke-linecap:butt;stroke-linejoin:miter;stroke-miterlimit:8;stroke-dasharray:none;stroke-opacity:1"
         clip-path="url(#nirs4all_cluster_clip)"
         d="m 78.350886,215.76355 c 4.917688,0.027 13.251861,-0.0312 22.323884,-1.53468 6.67965,-1.47992 11.15942,-3.51981 16.79913,-8.67955 5.6797,-5.15973 10.19947,-8.15957 17.11911,-22.35883 6.95964,-14.15927 19.159,-49.59743 24.47873,-62.67675 5.27972,-13.11932 3.63981,-9.91948 7.31962,-15.83918 3.67981,-5.959687 11.4794,-8.59955 16.51914,-6.839641 5.03974,1.759908 9.39951,4.999741 13.71929,17.319101 4.35977,12.35936 6.23967,27.03859 9.4795,37.67804 3.27983,10.67945 4.39978,18.47904 10.11948,26.35863 5.6797,7.87959 12.48129,8.96263 20.43894,4.99974 6.87614,-5.69367 24.35873,-49.63742 26.59862,-51.67731 2.23988,-2.0399 14.71923,-18.23906 34.23822,6.47966 8.91953,11.39941 25.55867,37.55805 38.79798,52.55727"
         id="path3"
         transform="translate(-78.046472,1.0051295)" />
      <path
         style="fill:#ffffff;fill-opacity:1;fill-rule:evenodd;stroke:none"
         d="m 245.65157,200.51477 c 0,-13.5593 10.99943,-24.55873 24.55873,-24.55873 13.59929,0 24.55872,10.99943 24.55872,24.55873 0,13.59929 -10.95943,24.55872 -24.55872,24.55872 -13.5593,0 -24.55873,-10.95943 -24.55873,-24.55872 z"
         id="path4" />
    </g>
  </g></g>
<path fill="#000000" d="M54.969675112730684 345.7753843985948V382.0H36.804618026426155V316.7973154362416H54.6893543217806V333.7709592268771H51.59223223180577Q54.70294771130451 325.10813365142616 60.4310275698668 320.2685930290478Q66.15910742842908 315.4290524066695 75.04416061503773 315.4290524066695Q82.01762220139469 315.4290524066695 87.15111092177011 318.4335570469799Q92.28459964214554 321.43806168729026 95.10944881567218 327.1803435664849Q97.93429798919881 332.9226254456795 97.93429798919881 341.1618927616401V382.0H79.76924090289427V344.50342452286077Q79.76924090289427 337.9447968553377 76.64182104328333 334.53705620477666Q73.51440118367238 331.1293155542156 67.76711458551802 331.1293155542156Q64.01297992475878 331.1293155542156 61.123274794200896 332.6766593369862Q58.23356966364302 334.22400311975673 56.601622388186854 337.46317933357807Q54.969675112730684 340.70235554739935 54.969675112730684 345.7753843985948Z"/>
<path fill="#E9362D" d="M108.00143338401844 362.1723586933725V347.4995100802223L148.49145638894714 290.0H160.38456424994754V308.14044050178273H153.80829349677424L126.29870474386533 347.2947362972821V347.4253889864723H183.78827322121433V362.1723586933725ZM153.8891023162227 382.0V357.72185206061243V351.1325214974832V290.0H171.7775582332739V382.0Z"/>
<path fill="#1B5789" d="M223.7386194421141 383.4818791946309Q213.9570130623427 383.4818791946309 206.58406900495493 379.1788704481701Q199.21112494756713 374.8758617017093 195.11374118472105 367.202815400194Q191.016357421875 359.5297690986787 191.016357421875 349.4554658006502Q191.016357421875 339.352758461357 195.11374118472105 331.651308118577Q199.21112494756713 323.949857775797 206.58406900495493 319.6326470087039Q213.9570130623427 315.31543624161077 223.7386194421141 315.31543624161077Q230.16253047661493 315.31543624161077 235.58617983824456 317.21346836986163Q241.00982919987416 319.11150049811243 245.05534176410444 322.5679674391779Q249.10085432833472 326.0244343802433 251.5187817874371 330.7448133225409Q253.93670924653944 335.4651922648385 254.38251740116402 341.171630859375H236.760788885539Q236.40512973862207 338.6697085386955 235.39682019124893 336.6284050243813Q234.38851064387583 334.5871015100671 232.75842317926805 333.11076783045826Q231.12833571466024 331.6344341508494 228.93821529926072 330.8298897762427Q226.74809488386117 330.0253454016359 224.00534684354028 330.0253454016359Q219.42627772388843 330.0253454016359 216.14510407927852 332.3982322744075Q212.86393043466862 334.7711191471791 211.1177583630453 339.1278928206271Q209.37158629142198 343.4846664940751 209.37158629142198 349.4554658006502Q209.37158629142198 355.3645201407823 211.1177583630453 359.7095602355547Q212.86393043466862 364.05460033032716 216.1475725212353 366.41328518246644Q219.43121460780202 368.7719700346057 224.00534684354028 368.7719700346057Q226.74809488386117 368.7719700346057 228.909811257996 367.97915923867447Q231.07152763213088 367.1863484427433 232.64480701420933 365.71001476313444Q234.21808639628776 364.2336810835256 235.22639594366086 362.1448346234008Q236.234705491034 360.055988163276 236.67557676174496 357.49232087615354H254.38251740116402Q254.07007294725253 363.14195138816063 251.70215687591758 367.8790007930474Q249.33424080458263 372.61605019793416 245.25785575713087 376.12006008481023Q241.1814707096791 379.62406997168625 235.70780996028208 381.5529745831586Q230.23414921088508 383.4818791946309 223.7386194421141 383.4818791946309Z"/>
</svg>
