<svg xmlns="http://www.w3.org/2000/svg" xmlns:xlink="http://www.w3.org/1999/xlink" width="1535.09" height="312.00" viewBox="0 0 1535.0886 312.0000">
<defs><defs
     id="defs1">
    <clipPath
       clipPathUnits="userSpaceOnUse"
       id="nirs4all_formats_clip">
      <path
         d="M 75.196094,-0.47997507 H 381.42019 V 303.18425 H 75.196094 Z"
         id="path1" />
    </clipPath>
  </defs></defs><g transform="translate(28.0,28.0) scale(0.8331102485382658) translate(0,0)"><g
     id="g8"
     transform="translate(-0.25127103,1.1057433)">
    <g
       id="g9">
      <path
         style="fill:#6732B9;fill-opacity:1;fill-rule:evenodd;stroke:none"
         d="M 1.5315373,35.750606 C 1.5315373,16.791591 16.89074,1.4323885 35.849755,1.4323885 H 269.47762 c 18.91901,0 34.27821,15.3592025 34.27821,34.3182175 V 269.53846 c 0,18.91902 -15.3592,34.27822 -34.27821,34.27822 H 35.849755 c -18.959015,0 -34.3182177,-15.3592 -34.3182177,-34.27822 z"
         id="path2"
         transform="matrix(1.0163665,0,0,1.019436,-1.1937273,-2.5659717)" />
      <path
         style="fill:none;stroke:#ffffff;stroke-width:19.359px;stroke-linecap:butt;stroke-linejoin:miter;stroke-miterlimit:8;stroke-dasharray:none;stroke-opacity:1"
         clip-path="url(#nirs4all_formats_clip)"
         d="m 78.350886,215.76355 c 4.917688,0.027 13.251861,-0.0312 22.323884,-1.53468 6.67965,-1.47992 11.15942,-3.51981 16.79913,-8.67955 5.6797,-5.15973 10.19947,-8.15957 17.11911,-22.35883 6.95964,-14.15927 19.159,-49.59743 24.47873,-62.67675 5.27972,-13.11932 3.63981,-9.91948 7.31962,-15.83918 3.67981,-5.959687 11.4794,-8.59955 16.51914,-6.839641 5.03974,1.759908 9.39951,4.999741 13.71929,17.319101 4.35977,12.35936 6.23967,27.03859 9.4795,37.67804 3.27983,10.67945 4.39978,18.47904 10.11948,26.35863 5.6797,7.87959 12.48129,8.96263 20.43894,4.99974 6.87614,-5.69367 24.35873,-49.63742 26.59862,-51.67731 2.23988,-2.0399 14.71923,-18.23906 34.23822,6.47966 8.91953,11.39941 25.55867,37.55805 38.79798,52.55727"
         id="path3"
         transform="translate(-78.046472,1.0051295)" />
      <path
         style="fill:#ffffff;fill-opacity:1;fill-rule:evenodd;stroke:none"
         d="m 245.65157,200.51477 c 0,-13.5593 10.99943,-24.55873 24.55873,-24.55873 13.59929,0 24.55872,10.99943 24.55872,24.55873 0,13.59929 -10.95943,24.55872 -24.55872,24.55872 -13.5593,0 -24.55873,-10.95943 -24.55873,-24.55872 z"
         id="path4" />
    </g>
  </g></g>
<path fill="#FFFFFF" d="M352.85830307518876 167.71123472892197V215.0H332.8381672084732V131.37046979865772H352.51301564466235V152.64210704829068H348.59763773463715Q352.6302318188968 141.45981936870805 359.9699896281197 135.56618046088505Q367.3097474373427 129.67254155306208 378.20688804268036 129.67254155306208Q386.9943115234375 129.67254155306208 393.7068588768876 133.46912751677854Q400.4194062303377 137.26571348049498 404.2207630131869 144.63081415163592Q408.02211979603607 151.99591482277685 408.02211979603607 162.7632330772861V215.0H388.0019839293205V165.93726339660236Q388.0019839293205 156.71260666815226 383.5987305506764 151.96406585898174Q379.1954771720323 147.21552504981122 371.1397436359585 147.21552504981122Q365.8970242698721 147.21552504981122 361.7630297360004 149.35696062945678Q357.62903520212876 151.49839620910234 355.2436691386588 156.02360757917364Q352.85830307518876 160.54881894924495 352.85830307518876 167.71123472892197Z M425.733469221896 215.0V131.37046979865772H445.75360508861155V215.0ZM435.71502824821727 118.93358719588926Q430.60227624265934 118.93358719588926 427.1826816635644 115.6599563642797Q423.76308708446936 112.38632553267013 423.76308708446936 107.55806576790289Q423.76308708446936 102.72416123767826 427.1826816635644 99.47562010080222Q430.60227624265934 96.22707896392616 435.67812201247085 96.22707896392616Q440.8196348517647 96.22707896392616 444.24330213186494 99.47256557504829Q447.66696941196517 102.71805218617044 447.66696941196517 107.59497305416396Q447.66696941196517 112.40799601510066 444.23827390133334 115.67079160549497Q440.8095783907015 118.93358719588926 435.71502824821727 118.93358719588926Z M463.430113517198 215.0V131.37046979865772H482.70265670878774V145.25801010643875H482.96241741820467Q485.2590617135067 138.0513276989828 490.19130564440013 134.30541295813234Q495.1235495752936 130.55949821728188 503.24890710203437 130.55949821728188Q505.24143705432044 130.55949821728188 506.8997679844798 130.66086966495385Q508.55809891463923 130.76224111262582 509.74916992187497 130.8636125602978V148.60303586409395Q508.6436256357487 148.45097869258598 505.9589450503355 148.222892935324Q503.27426446492234 147.99480717806208 500.315554215604 147.99480717806208Q495.608229996854 147.99480717806208 491.7625340813758 150.16157111865562Q487.9168381658976 152.32833505924916 485.6835437749056 156.68563003027998Q483.45024938391356 161.04292500131083 483.45024938391356 167.62877254614094V215.0Z M554.0127814990561 216.98619786204907Q543.8093963008598 216.98619786204907 535.7394953170879 213.7851619029205Q527.6695943333158 210.58412594379195 522.7706301285916 204.36260560310927Q517.8716659238673 198.1410852624266 517.203267879614 189.147738340237H536.9509788564387Q537.6067127202181 195.25211501153524 541.8975062427904 198.62741396091127Q546.1882997653628 202.00271291028733 553.6389851614932 202.00271291028733Q560.8964402986052 202.00271291028733 565.0415232408766 199.14375483365666Q569.186606183148 196.28479675702602 569.186606183148 191.8530199703754Q569.186606183148 188.0706449572672 566.1296760303062 185.7613074795512Q563.0727458774643 183.45197000183515 557.7635250629194 182.35590935009438L543.5021884175754 179.416195371487Q531.5184707948824 176.90096345427852 525.3112049077181 170.8188216036598Q519.1039390205536 164.7366797530411 519.1039390205536 155.25868141123112Q519.1039390205536 147.58949539901425 523.2584765952705 141.80037948301174Q527.4130141699874 136.01126356700922 535.004581323406 132.7832944729184Q542.5961484768246 129.5553253788276 552.8280425820574 129.5553253788276Q562.9648973298553 129.5553253788276 570.6641680211828 132.95593818818162Q578.3634387125104 136.35655099753563 582.769814633363 142.57490529309982Q587.1761905542155 148.793259588664 587.413774446833 157.39378490063967H568.6227021287751Q568.5435074979026 151.82477437473784 564.3255765159657 148.1532834456271Q560.1076455340288 144.48179251651635 553.2841850946413 144.48179251651635Q546.7141532744337 144.48179251651635 542.890605173815 147.4199452240195Q539.0670570731962 150.35809793152265 539.0670570731962 154.63148545642827Q539.0670570731962 158.3853515625 542.0242060514104 160.73428635565227Q544.9813550296245 163.0832211488045 550.1733886718749 164.22363543414428L565.2329747142408 167.33440285497062Q577.6981922124055 169.9573383100881 583.563336714162 175.56273660339764Q589.4284812159185 181.16813489670722 589.4284812159185 190.33886735135277Q589.4284812159185 198.49906587536702 584.889058895239 204.4845780955065Q580.3496365745596 210.47009031564596 572.3478418132602 213.7281440888475Q564.3460470519609 216.98619786204907 554.0127814990561 216.98619786204907Z"/>
<path fill="#E9362D" d="M598.6723082267198 188.54257419253355V172.08929025534815L652.116135892932 96.99999999999999H665.1894080654886V117.84382963244546H657.8767345715536L619.7030360279467 171.54461888818278V171.7091328256082H694.1238702351615V188.54257419253355ZM657.9986283884753 215.0V183.57554726824665V176.09331742869128V96.99999999999999H677.8350466324979V215.0Z"/>
<path fill="#FFFFFF" d="M733.0656548212038 216.3526408150692Q724.7217096725566 216.3526408150692 718.2055731242135 213.5586519177328Q711.6894365758703 210.7646630203964 707.9197692461462 205.17351918060507Q704.1501019164219 199.58237534081377 704.1501019164219 191.26693909920303Q704.1501019164219 184.11724550388004 706.8332212307308 179.47486146248428Q709.5163405450397 174.8324774210885 714.1143854538066 172.05908956847736Q718.7124303625733 169.2857017158662 724.6488616328911 167.83961181640626Q730.5852929032088 166.3935219169463 737.012722184354 165.71561123636744Q744.7833086461828 164.83495766044462 749.3338338762321 164.18081406970953Q753.8843591062814 163.5266704789744 755.8388820161755 162.20253857094167Q757.7934049260696 160.87840666290896 757.7934049260696 158.02421940541106V157.4033265389052Q757.7934049260696 153.80784969457844 755.9719139150325 151.0676835642565Q754.1504229039953 148.32751743393456 750.7339363661388 146.76419685927013Q747.3174498282822 145.2008762846057 742.5118767040688 145.2008762846057Q737.6999714896182 145.2008762846057 734.0237242423448 146.75627449598886Q730.3474769950712 148.31167270737205 728.1933627339818 151.05341460976825Q726.0392484728922 153.79515651216443 725.7224699494022 157.36527599360318H706.5195797504194Q707.0295885329277 149.02769193713297 711.5278377660968 142.82042604996855Q716.0260869992659 136.6131601628041 724.019973898254 133.14285085793307Q732.0138607972419 129.67254155306208 742.9680192166526 129.67254155306208Q751.1091924680159 129.67254155306208 757.5508617017092 131.63815287135589Q763.9925309354026 133.60376418964972 768.4638470336095 137.30373502385694Q772.9351631318162 141.00370585806417 775.2666484243917 146.2289612226038Q777.5981337169673 151.45421658714343 777.5981337169673 157.97350467963506V215.0H757.9644583682885V203.1778231832005H757.6476798447986Q755.6868393456375 206.8999418322672 752.5285667470637 209.89191730678482Q749.3702941484898 212.88389278130242 744.6201920682151 214.6182667981858Q739.8700899879403 216.3526408150692 733.0656548212038 216.3526408150692ZM737.9882701080116 201.54969293991192Q744.4854683895238 201.54969293991192 748.9346511738411 199.17858132996014Q753.3838339581584 196.80746972000838 755.645637256187 192.8540412646812Q757.9074405542156 188.90061280935402 757.9074405542156 184.06337923395554V174.97811549653943Q756.9729497103083 175.5768315462458 755.1593810625524 176.12486187211618Q753.3458124147965 176.67289219798658 750.8527428134175 177.18132520842073Q748.3596732120385 177.68975821885488 745.4484536394975 178.17284836737102Q742.5372340669567 178.65593851588716 739.4581270973154 179.10259739408556Q735.1974327548237 179.70764553402893 731.5940480481856 181.09514184734164Q727.9906633415477 182.48263816065435 725.8112062185402 184.88066840459834Q723.6317490955327 187.27869864854236 723.6317490955327 191.0895825686871Q723.6317490955327 194.3429235266359 725.4025543827338 196.69819041002518Q727.1733596699349 199.05345729341443 730.3981917208473 200.30157511666317Q733.6230237717596 201.54969293991192 737.9882701080116 201.54969293991192Z M815.2757527396183 96.99999999999999V215.0H795.2556168729026V96.99999999999999Z M852.9723970349203 96.99999999999999V215.0H832.9522611682046V96.99999999999999Z M923.9341118524537 159.60180893456376V176.32121467334312H870.987802799916V159.60180893456376Z"/>
<path fill="#6732B9" d="M986.5578365863569 131.37046979865772V147.4372932178062H934.416370038538V131.37046979865772ZM949.4760140847839 215.0V119.16171645606124Q949.4760140847839 111.9455504142198 952.3967027907402 107.01966757550335Q955.3173914966966 102.0937847367869 960.9940330556574 99.54689236839344Q966.6706746146182 96.99999999999999 974.9131903117134 96.99999999999999Q978.6257963244545 96.99999999999999 981.9788604531511 96.99999999999999Q985.3319245818476 96.99999999999999 986.5578365863569 96.99999999999999V113.06682341914848Q985.6455225592491 113.06682341914848 983.0938738726929 113.06682341914848Q980.5422251861366 113.06682341914848 978.8601416671036 113.06682341914848Q973.7821726549391 113.06682341914848 971.6391613032192 115.22092317926803Q969.4961499514994 117.37502293938758 969.4961499514994 122.47516876835151V215.0Z M1035.927984086619 216.9006711409396Q1023.652845303324 216.9006711409396 1014.345914904703 211.40297638553903Q1005.0389845060821 205.90528163013843 999.854916730023 196.0851474019505Q994.6708489539637 186.26501317376258 994.6708489539637 173.28660634700083Q994.6708489539637 160.2575137964031 999.854916730023 150.40094829789743Q1005.0389845060821 140.54438279939177 1014.345914904703 135.00709072855494Q1023.652845303324 129.46979865771812 1035.927984086619 129.46979865771812Q1048.2823175007863 129.46979865771812 1057.549650583971 135.00709072855494Q1066.816983667156 140.54438279939177 1072.0010514432151 150.40094829789743Q1077.1851192192742 160.2575137964031 1077.1851192192742 173.28660634700083Q1077.1851192192742 186.26501317376258 1072.0010514432151 196.0851474019505Q1066.816983667156 205.90528163013843 1057.549650583971 211.40297638553903Q1048.2823175007863 216.9006711409396 1035.927984086619 216.9006711409396ZM1035.927984086619 200.20029067481124Q1042.3649840079697 200.20029067481124 1047.0755177747483 196.94694971686243Q1051.7860515415266 193.6936087589136 1054.3678139091335 187.6320099491401Q1056.9495762767406 181.5704111393666 1056.9495762767406 173.28660634700083Q1056.9495762767406 164.8729211999266 1054.3678139091335 158.82557684367134Q1051.7860515415266 152.77823248741612 1047.0755177747483 149.4742058056313Q1042.3649840079697 146.17017912384648 1035.927984086619 146.17017912384648Q1029.570178796141 146.17017912384648 1024.8200477139262 149.4488629437133Q1020.0699166317113 152.7275467635801 1017.4881542641043 158.80023398175337Q1014.9063918964973 164.8729211999266 1014.9063918964973 173.28660634700083Q1014.9063918964973 181.62109686320258 1017.4881542641043 187.6573528110581Q1020.0699166317113 193.6936087589136 1024.7947048520082 196.94694971686243Q1029.5194930723048 200.20029067481124 1035.927984086619 200.20029067481124Z M1090.9683685507548 215.0V131.37046979865772H1110.2409117423447V145.25801010643875H1110.5006724517616Q1112.7973167470636 138.0513276989828 1117.7295606779571 134.30541295813234Q1122.6618046088504 130.55949821728188 1130.7871621355912 130.55949821728188Q1132.7796920878773 130.55949821728188 1134.4380230180368 130.66086966495385Q1136.096353948196 130.76224111262582 1137.2874249554318 130.8636125602978V148.60303586409395Q1136.1818806693057 148.45097869258598 1133.4972000838925 148.222892935324Q1130.8125194984793 147.99480717806208 1127.8538092491608 147.99480717806208Q1123.146485030411 147.99480717806208 1119.3007891149327 150.16157111865562Q1115.4550931994545 152.32833505924916 1113.2217988084626 156.68563003027998Q1110.9885044174705 161.04292500131083 1110.9885044174705 167.62877254614094V215.0Z M1148.7012544567951 215.0V131.37046979865772H1168.0625049155828V149.6168663485738H1166.5704711094797Q1168.8544512243077 142.94870163066275 1172.8680345368864 138.52014889301068Q1176.881617849465 134.09159615535862 1182.1433044843225 131.88206885421033Q1187.4049911191798 129.67254155306208 1193.2210401701445 129.67254155306208Q1202.8701209561136 129.67254155306208 1209.8630010617658 135.2129996690174Q1216.8558811674181 140.75345778497274 1218.4049327875941 149.6168663485738H1215.8326830563128Q1217.483106124161 143.6424570378041 1221.4776786650586 139.16321857631607Q1225.4722512059564 134.68398011482802 1231.2487029414847 132.17826083394505Q1237.0251546770132 129.67254155306208 1243.9149496995778 129.67254155306208Q1251.8359898303386 129.67254155306208 1258.1857028342263 133.11275167785234Q1264.535415838114 136.5529618026426 1268.2316129565465 143.2559965197672Q1271.9278100749789 149.95903123689178 1271.9278100749789 159.7981907377307V215.0H1251.9076742082634V162.64908144138002Q1251.9076742082634 154.39271802686312 1247.3632389150846 150.51903246797224Q1242.8188036219058 146.64534690908135 1236.4234320928585 146.64534690908135Q1231.3920076139345 146.64534690908135 1227.7248157151957 148.81025757816366Q1224.057623816457 150.975168247246 1222.0485674726683 154.80359089251516Q1220.03951112888 158.63201353778433 1220.03951112888 163.66279591809985V215.0H1200.5895534028941V161.73673841233222Q1200.5895534028941 154.86895334128565 1196.3304348324768 150.7571501251835Q1192.0713162620596 146.64534690908135 1185.4076965875722 146.64534690908135Q1180.9264022400757 146.64534690908135 1177.1189793059912 148.75827358169042Q1173.3115563719064 150.87120025429948 1171.0164733477086 154.98106857382612Q1168.7213903235108 159.09093689335276 1168.7213903235108 165.08199618550753V215.0Z M1315.1461917339552 216.3526408150692Q1306.802246585308 216.3526408150692 1300.286110036965 213.5586519177328Q1293.7699734886219 210.7646630203964 1290.0003061588977 205.17351918060507Q1286.2306388291734 199.58237534081377 1286.2306388291734 191.26693909920303Q1286.2306388291734 184.11724550388004 1288.9137581434825 179.47486146248428Q1291.5968774577914 174.8324774210885 1296.194922366558 172.05908956847736Q1300.7929672753248 169.2857017158662 1306.7293985456427 167.83961181640626Q1312.6658298159603 166.3935219169463 1319.0932590971056 165.71561123636744Q1326.8638455589344 164.83495766044462 1331.4143707889837 164.18081406970953Q1335.964896019033 163.5266704789744 1337.919418928927 162.20253857094167Q1339.873941838821 160.87840666290896 1339.873941838821 158.02421940541106V157.4033265389052Q1339.873941838821 153.80784969457844 1338.052450827784 151.0676835642565Q1336.230959816747 148.32751743393456 1332.8144732788903 146.76419685927013Q1329.3979867410337 145.2008762846057 1324.5924136168203 145.2008762846057Q1319.7805084023698 145.2008762846057 1316.1042611550963 146.75627449598886Q1312.4280139078228 148.31167270737205 1310.2738996467333 151.05341460976825Q1308.1197853856436 153.79515651216443 1307.8030068621538 157.36527599360318H1288.6001166631709Q1289.1101254456794 149.02769193713297 1293.6083746788483 142.82042604996855Q1298.1066239120173 136.6131601628041 1306.1005108110053 133.14285085793307Q1314.0943977099935 129.67254155306208 1325.0485561294042 129.67254155306208Q1333.1897293807674 129.67254155306208 1339.6313986144607 131.63815287135589Q1346.073067848154 133.60376418964972 1350.544383946361 137.30373502385694Q1355.0157000445677 141.00370585806417 1357.3471853371432 146.2289612226038Q1359.6786706297187 151.45421658714343 1359.6786706297187 157.97350467963506V215.0H1340.04499528104V203.1778231832005H1339.7282167575502Q1337.767376258389 206.8999418322672 1334.6091036598152 209.89191730678482Q1331.4508310612414 212.88389278130242 1326.7007289809667 214.6182667981858Q1321.950626900692 216.3526408150692 1315.1461917339552 216.3526408150692ZM1320.0688070207632 201.54969293991192Q1326.5660053022755 201.54969293991192 1331.0151880865928 199.17858132996014Q1335.46437087091 196.80746972000838 1337.7261741689385 192.8540412646812Q1339.987977466967 188.90061280935402 1339.987977466967 184.06337923395554V174.97811549653943Q1339.0534866230598 175.5768315462458 1337.2399179753038 176.12486187211618Q1335.426349327548 176.67289219798658 1332.933279726169 177.18132520842073Q1330.4402101247902 177.68975821885488 1327.528990552249 178.17284836737102Q1324.6177709797082 178.65593851588716 1321.538664010067 179.10259739408556Q1317.2779696675752 179.70764553402893 1313.6745849609374 181.09514184734164Q1310.0712002542994 182.48263816065435 1307.8917431312916 184.88066840459834Q1305.712286008284 187.27869864854236 1305.712286008284 191.0895825686871Q1305.712286008284 194.3429235266359 1307.4830912954853 196.69819041002518Q1309.2538965826864 199.05345729341443 1312.4787286335986 200.30157511666317Q1315.703560684511 201.54969293991192 1320.0688070207632 201.54969293991192Z M1421.5137746106857 131.37046979865772V147.4372932178062H1369.828450575451V131.37046979865772ZM1384.4319521091127 108.56241610738255H1404.4520879758284V191.02001658190017Q1404.4520879758284 195.45176436661075 1406.2719887138212 197.19247047373113Q1408.091889451814 198.93317658085152 1412.9544513881606 198.93317658085152Q1414.8899635263735 198.93317658085152 1417.4162548500417 198.93317658085152Q1419.94254617371 198.93317658085152 1421.5137746106857 198.93317658085152V215.0Q1419.4262053009647 215.0 1416.0731411722682 215.0Q1412.7200770435716 215.0 1409.4636425453543 215.0Q1396.640531440069 215.0 1390.536241774591 209.83177695050335Q1384.4319521091127 204.6635539010067 1384.4319521091127 193.92798310350253Z M1466.8892915661702 216.98619786204907Q1456.685906367974 216.98619786204907 1448.6160053842018 213.7851619029205Q1440.5461044004298 210.58412594379195 1435.6471401957056 204.36260560310927Q1430.7481759909815 198.1410852624266 1430.079777946728 189.147738340237H1449.8274889235527Q1450.4832227873321 195.25211501153524 1454.7740163099045 198.62741396091127Q1459.0648098324768 202.00271291028733 1466.5154952286073 202.00271291028733Q1473.7729503657192 202.00271291028733 1477.9180333079908 199.14375483365666Q1482.063116250262 196.28479675702602 1482.063116250262 191.8530199703754Q1482.063116250262 188.0706449572672 1479.0061860974201 185.7613074795512Q1475.9492559445782 183.45197000183515 1470.6400351300335 182.35590935009438L1456.3786984846895 179.416195371487Q1444.3949808619966 176.90096345427852 1438.187714974832 170.8188216036598Q1431.9804490876677 164.7366797530411 1431.9804490876677 155.25868141123112Q1431.9804490876677 147.58949539901425 1436.1349866623846 141.80037948301174Q1440.2895242371014 136.01126356700922 1447.88109139052 132.7832944729184Q1455.4726585439387 129.5553253788276 1465.7045526491715 129.5553253788276Q1475.8414073969693 129.5553253788276 1483.5406780882968 132.95593818818162Q1491.2399487796245 136.35655099753563 1495.6463247004772 142.57490529309982Q1500.0527006213297 148.793259588664 1500.290284513947 157.39378490063967H1481.4992121958892Q1481.4200175650167 151.82477437473784 1477.2020865830798 148.1532834456271Q1472.984155601143 144.48179251651635 1466.1606951617553 144.48179251651635Q1459.5906633415477 144.48179251651635 1455.767115240929 147.4199452240195Q1451.9435671403103 150.35809793152265 1451.9435671403103 154.63148545642827Q1451.9435671403103 158.3853515625 1454.9007161185245 160.73428635565227Q1457.8578650967386 163.0832211488045 1463.049898738989 164.22363543414428L1478.1094847813547 167.33440285497062Q1490.5747022795197 169.9573383100881 1496.4398467812762 175.56273660339764Q1502.3049912830327 181.16813489670722 1502.3049912830327 190.33886735135277Q1502.3049912830327 198.49906587536702 1497.765568962353 204.4845780955065Q1493.2261466416735 210.47009031564596 1485.2243518803743 213.7281440888475Q1477.222557119075 216.98619786204907 1466.8892915661702 216.98619786204907Z"/>
</svg>
