<svg xmlns="http://www.w3.org/2000/svg" xmlns:xlink="http://www.w3.org/1999/xlink" width="288.00" height="406.00" viewBox="0 0 288.0000 406.0000">
<defs><defs
     id="defs1">
    <clipPath
       clipPathUnits="userSpaceOnUse"
       id="nirs4all_formats_clip">
      <path
         d="M 75.196094,-0.47997507 H 381.42019 V 303.18425 H 75.196094 Z"
         id="path1" />
    </clipPath>
  </defs></defs><g transform="translate(24.0,24.0) scale(0.7810408580046241) translate(0,0)"><g
     id="g8"
     transform="translate(-0.25127103,1.1057433)">
    <g
       id="g9">
      <path
         style="fill:#6732B9;fill-opacity:1;fill-rule:evenodd;stroke:none"
         d="M 1.5315373,35.750606 C 1.5315373,16.791591 16.89074,1.4323885 35.849755,1.4323885 H 269.47762 c 18.91901,0 34.27821,15.3592025 34.27821,34.3182175 V 269.53846 c 0,18.91902 -15.3592,34.27822 -34.27821,34.27822 H 35.849755 c -18.959015,0 -34.3182177,-15.3592 -34.3182177,-34.27822 z"
         id="path2"
         transform="matrix(1.0163665,0,0,1.019436,-1.1937273,-2.5659717)" />
      <path
         style="fill:none;stroke:#ffffff;stroke-width:19.359px;stroke-linecap:butt;stroke-linejoin:miter;stroke-miterlimit:8;stroke-dasharray:none;stroke-opacity:1"
         clip-path="url(#nirs4all_formats_clip)"
         d="m 78.350886,215.76355 c 4.917688,0.027 13.251861,-0.0312 22.323884,-1.53468 6.67965,-1.47992 11.15942,-3.51981 16.79913,-8.67955 5.6797,-5.15973 10.19947,-8.15957 17.11911,-22.35883 6.95964,-14.15927 19.159,-49.59743 24.47873,-62.67675 5.27972,-13.11932 3.63981,-9.91948 7.31962,-15.83918 3.67981,-5.959687 11.4794,-8.59955 16.51914,-6.839641 5.03974,1.759908 9.39951,4.999741 13.71929,17.319101 4.35977,12.35936 6.23967,27.03859 9.4795,37.67804 3.27983,10.67945 4.39978,18.47904 10.11948,26.35863 5.6797,7.87959 12.48129,8.96263 20.43894,4.99974 6.87614,-5.69367 24.35873,-49.63742 26.59862,-51.67731 2.23988,-2.0399 14.71923,-18.23906 34.23822,6.47966 8.91953,11.39941 25.55867,37.55805 38.79798,52.55727"
         id="path3"
         transform="translate(-78.046472,1.0051295)" />
      <path
         style="fill:#ffffff;fill-opacity:1;fill-rule:evenodd;stroke:none"
         d="m 245.65157,200.51477 c 0,-13.5593 10.99943,-24.55873 24.55873,-24.55873 13.59929,0 24.55872,10.99943 24.55872,24.55873 0,13.59929 -10.95943,24.55872 -24.55872,24.55872 -13.5593,0 -24.55873,-10.95943 -24.55873,-24.55872 z"
         id="path4" />
    </g>
  </g></g>
<path fill="#000000" d="M66.63947377044882 345.7753843985948V382.0H48.47441668414429V316.7973154362416H66.35915297949873V333.7709592268771H63.2620308895239Q66.37274636902265 325.10813365142616 72.10082622758493 320.2685930290478Q77.82890608614721 315.4290524066695 86.71395927275586 315.4290524066695Q93.68742085911282 315.4290524066695 98.82090957948824 318.4335570469799Q103.95439829986367 321.43806168729026 106.77924747339031 327.1803435664849Q109.60409664691694 332.9226254456795 109.60409664691694 341.1618927616401V382.0H91.4390395606124V344.50342452286077Q91.4390395606124 337.9447968553377 88.31161970100146 334.53705620477666Q85.18419984139051 331.1293155542156 79.43691324323615 331.1293155542156Q75.68277858247691 331.1293155542156 72.79307345191903 332.6766593369862Q69.90336832136114 334.22400311975673 68.27142104590499 337.46317933357807Q66.63947377044882 340.70235554739935 66.63947377044882 345.7753843985948Z"/>
<path fill="#E9362D" d="M119.67123204173657 362.1723586933725V347.4995100802223L160.16125504666527 290.0H172.05436290766568V308.14044050178273H165.47809215449237L137.96850340158346 347.2947362972821V347.4253889864723H195.45807187893246V362.1723586933725ZM165.55890097394087 382.0V357.72185206061243V351.1325214974832V290.0H183.447356890992V382.0Z"/>
<path fill="#6732B9" d="M243.52020452102556 316.7973154362416V331.0799467150797H200.20026167287122V316.7973154362416ZM212.008360915216 382.0V308.323308711724Q212.008360915216 302.23037240457217 214.3744171757026 298.16758074664426Q216.74047343618918 294.1047890887164 221.44972743091967 292.0523945443582Q226.15898142565015 290.0 233.17437260774958 290.0Q236.4356969641359 290.0 239.400030066983 290.0Q242.3643631698301 290.0 243.52020452102556 290.0V304.2826312788381Q242.7311133467911 304.2826312788381 240.71946505348154 304.2826312788381Q238.70781676017197 304.2826312788381 237.29633903759435 304.2826312788381Q233.4261536873427 304.2826312788381 231.7997858444316 305.90653067979235Q230.17341800152053 307.53043008074667 230.17341800152053 311.39567854708474V382.0Z"/>
</svg>
