<svg xmlns="http://www.w3.org/2000/svg" xmlns:xlink="http://www.w3.org/1999/xlink" width="288.00" height="407.09" viewBox="0 0 288.0000 407.0879">
<defs><defs
     id="defs1">
    <clipPath
       clipPathUnits="userSpaceOnUse"
       id="nirs4all_clip">
      <path
         d="M 75.196094,-0.47997507 H 381.42019 V 303.18425 H 75.196094 Z"
         id="path1" />
    </clipPath>
  </defs></defs><g transform="translate(24.0,24.0) scale(0.7810408580046241) translate(0,0)"><g
     id="g8"
     transform="translate(-0.25127103,1.1057433)">
    <g
       id="g9">
      <path
         style="fill:#058E96;fill-opacity:1;fill-rule:evenodd;stroke:none"
         d="M 1.5315373,35.750606 C 1.5315373,16.791591 16.89074,1.4323885 35.849755,1.4323885 H 269.47762 c 18.91901,0 34.27821,15.3592025 34.27821,34.3182175 V 269.53846 c 0,18.91902 -15.3592,34.27822 -34.27821,34.27822 H 35.849755 c -18.959015,0 -34.3182177,-15.3592 -34.3182177,-34.27822 z"
         id="path2"
         transform="matrix(1.0163665,0,0,1.019436,-1.1937273,-2.5659717)" />
      <path
         style="fill:none;stroke:#ffffff;stroke-width:19.359px;stroke-linecap:butt;stroke-linejoin:miter;stroke-miterlimit:8;stroke-dasharray:none;stroke-opacity:1"
         clip-path="url(#nirs4all_clip)"
         d="m 78.350886,215.76355 c 4.917688,0.027 13.251861,-0.0312 22.323884,-1.53468 6.67965,-1.47992 11.15942,-3.51981 16.79913,-8.67955 5.6797,-5.15973 10.19947,-8.15957 17.11911,-22.35883 6.95964,-14.15927 19.159,-49.59743 24.47873,-62.67675 5.27972,-13.11932 3.63981,-9.91948 7.31962,-15.83918 3.67981,-5.959687 11.4794,-8.59955 16.51914,-6.839641 5.03974,1.759908 9.39951,4.999741 13.71929,17.319101 4.35977,12.35936 6.23967,27.03859 9.4795,37.67804 3.27983,10.67945 4.39978,18.47904 10.11948,26.35863 5.6797,7.87959 12.48129,8.96263 20.43894,4.99974 6.87614,-5.69367 24.35873,-49.63742 26.59862,-51.67731 2.23988,-2.0399 14.71923,-18.23906 34.23822,6.47966 8.91953,11.39941 25.55867,37.55805 38.79798,52.55727"
         id="path3"
         transform="translate(-78.046472,1.0051295)" />
      <path
         style="fill:#ffffff;fill-opacity:1;fill-rule:evenodd;stroke:none"
         d="m 245.65157,200.51477 c 0,-13.5593 10.99943,-24.55873 24.55873,-24.55873 13.59929,0 24.55872,10.99943 24.55872,24.55873 0,13.59929 -10.95943,24.55872 -24.55872,24.55872 -13.5593,0 -24.55873,-10.95943 -24.55873,-24.55872 z"
         id="path4" />
    </g>
  </g></g>
<path fill="#FFFFFF" d="M55.12403752883807 345.7753843985948V382.0H36.958980442533544V316.7973154362416H54.84371673788799V333.7709592268771H51.746594647913156Q54.8573101274119 325.10813365142616 60.58538998597419 320.2685930290478Q66.31346984453648 315.4290524066695 75.19852303114513 315.4290524066695Q82.17198461750209 315.4290524066695 87.30547333787752 318.4335570469799Q92.43896205825293 321.43806168729026 95.26381123177956 327.1803435664849Q98.0886604053062 332.9226254456795 98.0886604053062 341.1618927616401V382.0H79.92360331900167V344.50342452286077Q79.92360331900167 337.9447968553377 76.79618345939072 334.53705620477666Q73.66876359977977 331.1293155542156 67.9214770016254 331.1293155542156Q64.16734234086618 331.1293155542156 61.2776372103083 332.6766593369862Q58.387932079750406 334.22400311975673 56.75598480429424 337.46317933357807Q55.12403752883807 340.70235554739935 55.12403752883807 345.7753843985948Z"/>
<path fill="#E9362D" d="M108.15579580012583 362.1723586933725V347.4995100802223L148.64581880505452 290.0H160.53892666605495V308.14044050178273H153.96265591288164L126.45306715997273 347.2947362972821V347.4253889864723H183.9426356373217V362.1723586933725ZM154.0434647323301 382.0V357.72185206061243V351.1325214974832V290.0H171.93192064938128V382.0Z"/>
<path fill="#058E96" d="M213.98673611839345 383.0879422386221Q207.47017371670512 383.0879422386221 202.41202335229656 380.93180529703227Q197.353872987888 378.7756683554425 194.44259442835045 374.44425556771705Q191.53131586881292 370.11284277999164 191.53131586881292 363.62962130348154Q191.53131586881292 358.07751120752937 193.57322801423553 354.40801395697883Q195.61514015965813 350.7385167064283 199.15560196230075 348.4984188207844Q202.69606376494337 346.25832093514055 207.30779734361892 345.0919632674864Q211.91953092229446 343.92560559983224 216.9974288223574 343.4415196361158Q222.96694303166947 342.8438175073406 226.49813969759333 342.29490950411594Q230.0293363635172 341.74600150089134 231.55875850395867 340.6914001874476Q233.08818064440015 339.6367988740038 233.08818064440015 337.53375039324663V337.1163462798867Q233.08818064440015 334.70207060743496 231.80695563194735 332.87129504312605Q230.52573061949454 331.04051947881715 228.1509839358746 329.9994776373742Q225.77623725225462 328.9584357959312 222.44072396707213 328.9584357959312Q219.06693287279782 328.9584357959312 216.5118881737626 330.0210849838769Q213.95684347472735 331.0837341718226 212.47185328950818 332.993533796272Q210.986863104289 334.9033334207215 210.7398832385172 337.442316288276H193.62320548447985Q194.06529401740772 330.6862132642093 197.62797179766147 325.7577408963402Q201.19064957791525 320.82926852847106 207.60654665543728 318.1291604675703Q214.02244373295932 315.4290524066695 222.9741787699245 315.4290524066695Q229.65494343802433 315.4290524066695 234.88842101641148 316.9560061051542Q240.12189859479867 318.48295980363883 243.7302595100147 321.38991011037126Q247.33862042523072 324.29686041710363 249.20084318634648 328.4319133579331Q251.06306594746223 332.56696629876257 251.06306594746223 337.7831647834522V382.0H233.2882261954698V372.80493688391357H233.04124632969797Q231.33463716442952 375.9847687382026 228.7833460046141 378.29526809589976Q226.23205484479865 380.6057674535969 222.606380918362 381.8468548461095Q218.98070699192533 383.0879422386221 213.98673611839345 383.0879422386221ZM219.00275338192114 370.46863759700085Q223.39043345611367 370.46863759700085 226.58700360803795 368.8533607841338Q229.78357375996225 367.2380839712668 231.50255905253775 364.4669318896812Q233.22154434511324 361.6957798080956 233.22154434511324 358.16887747745386V351.6189063155411Q232.43739005479236 352.0412473128146 231.1345576958368 352.4351842688234Q229.83172533688128 352.8291212248322 228.1046921698039 353.19218569761955Q226.37765900272652 353.5552501704069 224.34683788734793 353.9041126225619Q222.31601677196937 354.25297507471686 220.1042890100671 354.5901039481963Q217.0046645606124 355.05072275456166 214.47308701892825 356.0713745117188Q211.94150947724413 357.0920262688758 210.4423172713926 358.8005291625157Q208.9431250655411 360.5090320561556 208.9431250655411 363.11347951184985Q208.9431250655411 365.40548251363253 210.19594603672923 367.06397401950505Q211.44876700791735 368.7224655253775 213.7074290845218 369.59555156118915Q215.96609116112626 370.46863759700085 219.00275338192114 370.46863759700085Z"/>
</svg>
