<svg xmlns="http://www.w3.org/2000/svg" xmlns:xlink="http://www.w3.org/1999/xlink" width="1875.31" height="312.00" viewBox="0 0 1875.3087 312.0000">
<defs><defs
     id="defs1">
    <clipPath
       clipPathUnits="userSpaceOnUse"
       id="nirs4all_benchmarks_clip">
      <path
         d="M 75.196094,-0.47997507 H 381.42019 V 303.18425 H 75.196094 Z"
         id="path1" />
    </clipPath>
  </defs></defs><g transform="translate(28.0,28.0) scale(0.8331102485382658) translate(0,0)"><g
     id="g8"
     transform="translate(-0.25127103,1.1057433)">
    <g
       id="g9">
      <path
         style="fill:#00704A;fill-opacity:1;fill-rule:evenodd;stroke:none"
         d="M 1.5315373,35.750606 C 1.5315373,16.791591 16.89074,1.4323885 35.849755,1.4323885 H 269.47762 c 18.91901,0 34.27821,15.3592025 34.27821,34.3182175 V 269.53846 c 0,18.91902 -15.3592,34.27822 -34.27821,34.27822 H 35.849755 c -18.959015,0 -34.3182177,-15.3592 -34.3182177,-34.27822 z"
         id="path2"
         transform="matrix(1.0163665,0,0,1.019436,-1.1937273,-2.5659717)" />
      <path
         style="fill:none;stroke:#ffffff;stroke-width:19.359px;stroke-linecap:butt;stroke-linejoin:miter;stroke-miterlimit:8;stroke-dasharray:none;stroke-opacity:1"
         clip-path="url(#nirs4all_benchmarks_clip)"
         d="m 78.350886,215.76355 c 4.917688,0.027 13.251861,-0.0312 22.323884,-1.53468 6.67965,-1.47992 11.15942,-3.51981 16.79913,-8.67955 5.6797,-5.15973 10.19947,-8.15957 17.11911,-22.35883 6.95964,-14.15927 19.159,-49.59743 24.47873,-62.67675 5.27972,-13.11932 3.63981,-9.91948 7.31962,-15.83918 3.67981,-5.959687 11.4794,-8.59955 16.51914,-6.839641 5.03974,1.759908 9.39951,4.999741 13.71929,17.319101 4.35977,12.35936 6.23967,27.03859 9.4795,37.67804 3.27983,10.67945 4.39978,18.47904 10.11948,26.35863 5.6797,7.87959 12.48129,8.96263 20.43894,4.99974 6.87614,-5.69367 24.35873,-49.63742 26.59862,-51.67731 2.23988,-2.0399 14.71923,-18.23906 34.23822,6.47966 8.91953,11.39941 25.55867,37.55805 38.79798,52.55727"
         id="path3"
         transform="translate(-78.046472,1.0051295)" />
      <path
         style="fill:#ffffff;fill-opacity:1;fill-rule:evenodd;stroke:none"
         d="m 245.65157,200.51477 c 0,-13.5593 10.99943,-24.55873 24.55873,-24.55873 13.59929,0 24.55872,10.99943 24.55872,24.55873 0,13.59929 -10.95943,24.55872 -24.55872,24.55872 -13.5593,0 -24.55873,-10.95943 -24.55873,-24.55872 z"
         id="path4" />
    </g>
  </g></g>
<path fill="#FFFFFF" d="M352.85830307518876 167.71123472892197V215.0H332.8381672084732V131.37046979865772H352.51301564466235V152.64210704829068H348.59763773463715Q352.6302318188968 141.45981936870805 359.9699896281197 135.56618046088505Q367.3097474373427 129.67254155306208 378.20688804268036 129.67254155306208Q386.9943115234375 129.67254155306208 393.7068588768876 133.46912751677854Q400.4194062303377 137.26571348049498 404.2207630131869 144.63081415163592Q408.02211979603607 151.99591482277685 408.02211979603607 162.7632330772861V215.0H388.0019839293205V165.93726339660236Q388.0019839293205 156.71260666815226 383.5987305506764 151.96406585898174Q379.1954771720323 147.21552504981122 371.1397436359585 147.21552504981122Q365.8970242698721 147.21552504981122 361.7630297360004 149.35696062945678Q357.62903520212876 151.49839620910234 355.2436691386588 156.02360757917364Q352.85830307518876 160.54881894924495 352.85830307518876 167.71123472892197Z M425.733469221896 215.0V131.37046979865772H445.75360508861155V215.0ZM435.71502824821727 118.93358719588926Q430.60227624265934 118.93358719588926 427.1826816635644 115.6599563642797Q423.76308708446936 112.38632553267013 423.76308708446936 107.55806576790289Q423.76308708446936 102.72416123767826 427.1826816635644 99.47562010080222Q430.60227624265934 96.22707896392616 435.67812201247085 96.22707896392616Q440.8196348517647 96.22707896392616 444.24330213186494 99.47256557504829Q447.66696941196517 102.71805218617044 447.66696941196517 107.59497305416396Q447.66696941196517 112.40799601510066 444.23827390133334 115.67079160549497Q440.8095783907015 118.93358719588926 435.71502824821727 118.93358719588926Z M463.430113517198 215.0V131.37046979865772H482.70265670878774V145.25801010643875H482.96241741820467Q485.2590617135067 138.0513276989828 490.19130564440013 134.30541295813234Q495.1235495752936 130.55949821728188 503.24890710203437 130.55949821728188Q505.24143705432044 130.55949821728188 506.8997679844798 130.66086966495385Q508.55809891463923 130.76224111262582 509.74916992187497 130.8636125602978V148.60303586409395Q508.6436256357487 148.45097869258598 505.9589450503355 148.222892935324Q503.27426446492234 147.99480717806208 500.315554215604 147.99480717806208Q495.608229996854 147.99480717806208 491.7625340813758 150.16157111865562Q487.9168381658976 152.32833505924916 485.6835437749056 156.68563003027998Q483.45024938391356 161.04292500131083 483.45024938391356 167.62877254614094V215.0Z M554.0127814990561 216.98619786204907Q543.8093963008598 216.98619786204907 535.7394953170879 213.7851619029205Q527.6695943333158 210.58412594379195 522.7706301285916 204.36260560310927Q517.8716659238673 198.1410852624266 517.203267879614 189.147738340237H536.9509788564387Q537.6067127202181 195.25211501153524 541.8975062427904 198.62741396091127Q546.1882997653628 202.00271291028733 553.6389851614932 202.00271291028733Q560.8964402986052 202.00271291028733 565.0415232408766 199.14375483365666Q569.186606183148 196.28479675702602 569.186606183148 191.8530199703754Q569.186606183148 188.0706449572672 566.1296760303062 185.7613074795512Q563.0727458774643 183.45197000183515 557.7635250629194 182.35590935009438L543.5021884175754 179.416195371487Q531.5184707948824 176.90096345427852 525.3112049077181 170.8188216036598Q519.1039390205536 164.7366797530411 519.1039390205536 155.25868141123112Q519.1039390205536 147.58949539901425 523.2584765952705 141.80037948301174Q527.4130141699874 136.01126356700922 535.004581323406 132.7832944729184Q542.5961484768246 129.5553253788276 552.8280425820574 129.5553253788276Q562.9648973298553 129.5553253788276 570.6641680211828 132.95593818818162Q578.3634387125104 136.35655099753563 582.769814633363 142.57490529309982Q587.1761905542155 148.793259588664 587.413774446833 157.39378490063967H568.6227021287751Q568.5435074979026 151.82477437473784 564.3255765159657 148.1532834456271Q560.1076455340288 144.48179251651635 553.2841850946413 144.48179251651635Q546.7141532744337 144.48179251651635 542.890605173815 147.4199452240195Q539.0670570731962 150.35809793152265 539.0670570731962 154.63148545642827Q539.0670570731962 158.3853515625 542.0242060514104 160.73428635565227Q544.9813550296245 163.0832211488045 550.1733886718749 164.22363543414428L565.2329747142408 167.33440285497062Q577.6981922124055 169.9573383100881 583.563336714162 175.56273660339764Q589.4284812159185 181.16813489670722 589.4284812159185 190.33886735135277Q589.4284812159185 198.49906587536702 584.889058895239 204.4845780955065Q580.3496365745596 210.47009031564596 572.3478418132602 213.7281440888475Q564.3460470519609 216.98619786204907 554.0127814990561 216.98619786204907Z"/>
<path fill="#E9362D" d="M598.6723082267198 188.54257419253355V172.08929025534815L652.116135892932 96.99999999999999H665.1894080654886V117.84382963244546H657.8767345715536L619.7030360279467 171.54461888818278V171.7091328256082H694.1238702351615V188.54257419253355ZM657.9986283884753 215.0V183.57554726824665V176.09331742869128V96.99999999999999H677.8350466324979V215.0Z"/>
<path fill="#FFFFFF" d="M733.0656548212038 216.3526408150692Q724.7217096725566 216.3526408150692 718.2055731242135 213.5586519177328Q711.6894365758703 210.7646630203964 707.9197692461462 205.17351918060507Q704.1501019164219 199.58237534081377 704.1501019164219 191.26693909920303Q704.1501019164219 184.11724550388004 706.8332212307308 179.47486146248428Q709.5163405450397 174.8324774210885 714.1143854538066 172.05908956847736Q718.7124303625733 169.2857017158662 724.6488616328911 167.83961181640626Q730.5852929032088 166.3935219169463 737.012722184354 165.71561123636744Q744.7833086461828 164.83495766044462 749.3338338762321 164.18081406970953Q753.8843591062814 163.5266704789744 755.8388820161755 162.20253857094167Q757.7934049260696 160.87840666290896 757.7934049260696 158.02421940541106V157.4033265389052Q757.7934049260696 153.80784969457844 755.9719139150325 151.0676835642565Q754.1504229039953 148.32751743393456 750.7339363661388 146.76419685927013Q747.3174498282822 145.2008762846057 742.5118767040688 145.2008762846057Q737.6999714896182 145.2008762846057 734.0237242423448 146.75627449598886Q730.3474769950712 148.31167270737205 728.1933627339818 151.05341460976825Q726.0392484728922 153.79515651216443 725.7224699494022 157.36527599360318H706.5195797504194Q707.0295885329277 149.02769193713297 711.5278377660968 142.82042604996855Q716.0260869992659 136.6131601628041 724.019973898254 133.14285085793307Q732.0138607972419 129.67254155306208 742.9680192166526 129.67254155306208Q751.1091924680159 129.67254155306208 757.5508617017092 131.63815287135589Q763.9925309354026 133.60376418964972 768.4638470336095 137.30373502385694Q772.9351631318162 141.00370585806417 775.2666484243917 146.2289612226038Q777.5981337169673 151.45421658714343 777.5981337169673 157.97350467963506V215.0H757.9644583682885V203.1778231832005H757.6476798447986Q755.6868393456375 206.8999418322672 752.5285667470637 209.89191730678482Q749.3702941484898 212.88389278130242 744.6201920682151 214.6182667981858Q739.8700899879403 216.3526408150692 733.0656548212038 216.3526408150692ZM737.9882701080116 201.54969293991192Q744.4854683895238 201.54969293991192 748.9346511738411 199.17858132996014Q753.3838339581584 196.80746972000838 755.645637256187 192.8540412646812Q757.9074405542156 188.90061280935402 757.9074405542156 184.06337923395554V174.97811549653943Q756.9729497103083 175.5768315462458 755.1593810625524 176.12486187211618Q753.3458124147965 176.67289219798658 750.8527428134175 177.18132520842073Q748.3596732120385 177.68975821885488 745.4484536394975 178.17284836737102Q742.5372340669567 178.65593851588716 739.4581270973154 179.10259739408556Q735.1974327548237 179.70764553402893 731.5940480481856 181.09514184734164Q727.9906633415477 182.48263816065435 725.8112062185402 184.88066840459834Q723.6317490955327 187.27869864854236 723.6317490955327 191.0895825686871Q723.6317490955327 194.3429235266359 725.4025543827338 196.69819041002518Q727.1733596699349 199.05345729341443 730.3981917208473 200.30157511666317Q733.6230237717596 201.54969293991192 737.9882701080116 201.54969293991192Z M815.2757527396183 96.99999999999999V215.0H795.2556168729026V96.99999999999999Z M852.9723970349203 96.99999999999999V215.0H832.9522611682046V96.99999999999999Z M923.9341118524537 159.60180893456376V176.32121467334312H870.987802799916V159.60180893456376Z"/>
<path fill="#00704A" d="M987.0964702836618 216.69792824559565Q981.65421757026 216.69792824559565 976.858186084312 215.11086958302747Q972.062154598364 213.5238109204593 968.2148684098415 210.299007871487Q964.3675822213191 207.07420482251467 961.7573109466756 202.2148234322567H961.6274305919671V215.0H941.9240732487415V96.99999999999999H961.9442091154572V143.2116718881082H962.0740894701656Q964.76670691983 138.6247153877412 968.5490529309982 135.63590595834205Q972.3313989421664 132.64709652894294 977.0783349773226 131.1598190410025Q981.8252710124789 129.67254155306208 987.2105059118078 129.67254155306208Q997.996820437028 129.67254155306208 1006.111104056339 135.1654799902999Q1014.22538767565 140.65841842753775 1018.7679905424181 150.45320979380767Q1023.3105934091861 160.2480011600776 1023.3105934091861 173.12821708525587Q1023.3105934091861 186.1288007288171 1018.8107539029729 195.93784654860528Q1014.3109143967596 205.74689236839345 1006.1823763239303 211.22241030699456Q998.053838251101 216.69792824559565 987.0964702836618 216.69792824559565ZM982.3860815265833 199.99121568923027Q988.6171580065015 199.99121568923027 993.2484971424076 196.86934535903418Q997.8798362783136 193.7474750288381 1000.4774433724831 187.74765035130034Q1003.0750504666526 181.74782567376258 1003.0750504666526 173.12821708525587Q1003.0750504666526 164.45792277291315 1000.4774433724831 158.48660700241192Q997.8798362783136 152.51529123191065 993.2484971424076 149.39342090171453Q988.6171580065015 146.27155057151845 982.3860815265833 146.27155057151845Q975.8793996106857 146.27155057151845 971.0183989454436 149.59616379705852Q966.1573982802013 152.92077702259857 963.4964412817218 158.94277851693582Q960.8354842832423 164.96478001127306 960.8354842832423 173.12821708525587Q960.8354842832423 181.2409684354027 963.4964412817218 187.29147883677643Q966.1573982802013 193.34198923815018 971.0183989454436 196.66660246369023Q975.8793996106857 199.99121568923027 982.3860815265833 199.99121568923027Z M1074.068135715971 216.9006711409396Q1061.5363877674076 216.9006711409396 1052.365669813732 211.29210680251154Q1043.1949518600566 205.68354246408347 1038.21679302446 195.80955646694105Q1033.2386341888632 185.93557046979865 1033.2386341888632 173.28660634700083Q1033.2386341888632 160.50776186949454 1038.3545957424496 150.6226874639524Q1043.470557296036 140.73761305841023 1052.4939743963664 135.1037058580642Q1061.5173914966967 129.46979865771812 1073.2318357736472 129.46979865771812Q1082.2853520540584 129.46979865771812 1089.6504382242292 132.6233294390992Q1097.0155243944002 135.77686022048027 1102.3183841167681 141.59449954448928Q1107.621243839136 147.41213886849832 1110.4738263226195 155.37912163446413Q1113.3264088061032 163.34610440042994 1113.3264088061032 172.97300836959943V178.40569044279573H1041.1644003644085V164.6195795865667H1103.3226439610423L1094.3769472263004 168.3163988766254Q1094.3769472263004 161.2458419082949 1091.8268598108484 156.0902250353922Q1089.2767723953964 150.9346081624895 1084.616924352454 148.13109212785758Q1079.9570763095114 145.32757609322567 1073.5454337510487 145.32757609322567Q1067.2129858234584 145.32757609322567 1062.5642261889157 148.13109212785758Q1057.9154665543729 150.9346081624895 1055.365379138921 156.0902250353922Q1052.815291723469 161.2458419082949 1052.815291723469 168.3163988766254V177.01184753827602Q1052.815291723469 184.1901080445155 1055.3574567756398 189.6450829422714Q1057.8996218278105 195.10005784002726 1062.7606224930528 198.13482567703966Q1067.6216231582948 201.16959351405202 1074.524278228555 201.16959351405202Q1079.5515905188233 201.16959351405202 1083.424234070234 199.66488102650482Q1087.2968776216444 198.16016853895763 1089.8818060343697 195.44693554359793Q1092.4667344470952 192.73370254823826 1093.5913040058724 189.147738340237H1112.3000301489094Q1110.7446464384961 197.34595840761324 1105.3847689020554 203.58965556509543Q1100.0248913656146 209.8333527225776 1091.9423117003985 213.3670119317586Q1083.8597320351826 216.9006711409396 1074.068135715971 216.9006711409396Z M1146.8636722027056 167.71123472892197V215.0H1126.84353633599V131.37046979865772H1146.5183847721792V152.64210704829068H1142.603006862154Q1146.6356009464137 141.45981936870805 1153.9753587556365 135.56618046088505Q1161.3151165648596 129.67254155306208 1172.2122571701973 129.67254155306208Q1180.9996806509544 129.67254155306208 1187.7122280044046 133.46912751677854Q1194.4247753578545 137.26571348049498 1198.2261321407036 144.63081415163592Q1202.027488923553 151.99591482277685 1202.027488923553 162.7632330772861V215.0H1182.0073530568372V165.93726339660236Q1182.0073530568372 156.71260666815226 1177.604099678193 151.96406585898174Q1173.200846299549 147.21552504981122 1165.1451127634753 147.21552504981122Q1159.9023933973888 147.21552504981122 1155.7683988635172 149.35696062945678Q1151.6344043296456 151.49839620910234 1149.2490382661756 156.02360757917364Q1146.8636722027056 160.54881894924495 1146.8636722027056 167.71123472892197Z M1256.776481229027 216.9006711409396Q1244.558360259805 216.9006711409396 1235.3369565822936 211.36021302498426Q1226.115552904782 205.81975490902894 1220.9885029427958 195.98536622732277Q1215.8614529808096 186.1509775456166 1215.8614529808096 173.28660634700083Q1215.8614529808096 160.37154942454907 1220.9885029427958 150.48647501900692Q1226.115552904782 140.60140061346476 1235.3369565822936 135.03559963559144Q1244.558360259805 129.46979865771812 1256.776481229027 129.46979865771812Q1264.6452295904992 129.46979865771812 1271.3023059000107 131.81870444893036Q1277.959382209522 134.1676102401426 1282.9628839070365 138.42985135276845Q1287.9663856045513 142.6920924653943 1291.0106225749792 148.4970386069893Q1294.054859545407 154.30198474858432 1294.7264381357488 161.2932600802223H1275.1180911480183Q1274.5763929123848 157.9132193136535 1273.1334545570735 155.1382266870281Q1271.690516201762 152.36323406040268 1269.3859350422085 150.34851279034712Q1267.0813538826553 148.33379152029153 1263.9943245497327 147.2234764150325Q1260.90729521681 146.1131613097735 1257.004552485319 146.1131613097735Q1250.4756937526217 146.1131613097735 1245.78258048448 149.4488629437133Q1241.089467216338 152.7845645776531 1238.5932315698406 158.88576070286283Q1236.0969959233432 164.98695682807255 1236.0969959233432 173.28660634700083Q1236.0969959233432 181.50706123505663 1238.5932315698406 187.57182608994862Q1241.089467216338 193.6365909448406 1245.7714920760802 196.94694971686243Q1250.4535169358223 200.25730848888423 1257.004552485319 200.25730848888423Q1260.90729521681 200.25730848888423 1263.9436388258969 199.18342465394295Q1266.9799824349834 198.10954081900167 1269.1831921468647 196.09481954894608Q1271.386401858746 194.08009827889052 1272.8293402140575 191.2512538833106Q1274.2722785693688 188.4224094877307 1274.9660339765103 184.96317409028944H1294.7264381357488Q1294.168895173553 191.85307797425546 1291.16742156368 197.6722785693687Q1288.1659479538068 203.49147916448197 1283.1228489408559 207.8075720460623Q1278.079749927905 212.1236649276426 1271.3799102578387 214.5121680342911Q1264.6800705877727 216.9006711409396 1256.776481229027 216.9006711409396Z M1328.0609876389474 167.71123472892197V215.0H1308.0408517722317V96.99999999999999H1328.0609876389474V152.64210704829068H1323.8003222983957Q1327.8329163826554 141.45981936870805 1335.1726741918783 135.56618046088505Q1342.5124320011014 129.67254155306208 1353.409572606439 129.67254155306208Q1362.196996087196 129.67254155306208 1368.9095434406463 133.46912751677854Q1375.6220907940963 137.26571348049498 1379.4234475769454 144.63081415163592Q1383.2248043597947 151.99591482277685 1383.2248043597947 162.7632330772861V215.0H1363.204668493079V165.93726339660236Q1363.204668493079 156.71260666815226 1358.8014151144348 151.96406585898174Q1354.3981617357908 147.21552504981122 1346.342428199717 147.21552504981122Q1341.0997088336305 147.21552504981122 1336.965714299759 149.35696062945678Q1332.8317197658873 151.49839620910234 1330.4463537024174 156.02360757917364Q1328.0609876389474 160.54881894924495 1328.0609876389474 167.71123472892197Z M1400.9361537856546 215.0V131.37046979865772H1420.2974042444423V149.6168663485738H1418.8053704383392Q1421.0893505531672 142.94870163066275 1425.1029338657459 138.52014889301068Q1429.1165171783246 134.09159615535862 1434.378203813182 131.88206885421033Q1439.6398904480393 129.67254155306208 1445.455939499004 129.67254155306208Q1455.105020284973 129.67254155306208 1462.0979003906255 135.2129996690174Q1469.0907804962776 140.75345778497274 1470.6398321164538 149.6168663485738H1468.0675823851723Q1469.7180054530204 143.6424570378041 1473.712577993918 139.16321857631607Q1477.7071505348158 134.68398011482802 1483.4836022703444 132.17826083394505Q1489.2600540058727 129.67254155306208 1496.1498490284373 129.67254155306208Q1504.070889159198 129.67254155306208 1510.4206021630857 133.11275167785234Q1516.7703151669734 136.5529618026426 1520.4665122854058 143.2559965197672Q1524.1627094038383 149.95903123689178 1524.1627094038383 159.7981907377307V215.0H1504.1425735371226V162.64908144138002Q1504.1425735371226 154.39271802686312 1499.598138243944 150.51903246797224Q1495.0537029507652 146.64534690908135 1488.658331421718 146.64534690908135Q1483.626906942794 146.64534690908135 1479.9597150440552 148.81025757816366Q1476.2925231453164 150.975168247246 1474.283466801528 154.80359089251516Q1472.2744104577394 158.63201353778433 1472.2744104577394 163.66279591809985V215.0H1452.8244527317536V161.73673841233222Q1452.8244527317536 154.86895334128565 1448.565334161336 150.7571501251835Q1444.3062155909188 146.64534690908135 1437.6425959164317 146.64534690908135Q1433.1613015689352 146.64534690908135 1429.3538786348504 148.75827358169042Q1425.5464557007658 150.87120025429948 1423.251372676568 154.98106857382612Q1420.9562896523703 159.09093689335276 1420.9562896523703 165.08199618550753V215.0Z M1567.3810910628147 216.3526408150692Q1559.0371459141675 216.3526408150692 1552.5210093658243 213.5586519177328Q1546.0048728174813 210.7646630203964 1542.235205487757 205.17351918060507Q1538.4655381580328 199.58237534081377 1538.4655381580328 191.26693909920303Q1538.4655381580328 184.11724550388004 1541.1486574723417 179.47486146248428Q1543.8317767866508 174.8324774210885 1548.4298216954176 172.05908956847736Q1553.0278666041843 169.2857017158662 1558.9642978745019 167.83961181640626Q1564.9007291448197 166.3935219169463 1571.328158425965 165.71561123636744Q1579.0987448877938 164.83495766044462 1583.6492701178431 164.18081406970953Q1588.1997953478924 163.5266704789744 1590.1543182577866 162.20253857094167Q1592.1088411676806 160.87840666290896 1592.1088411676806 158.02421940541106V157.4033265389052Q1592.1088411676806 153.80784969457844 1590.2873501566435 151.0676835642565Q1588.4658591456064 148.32751743393456 1585.0493726077498 146.76419685927013Q1581.6328860698932 145.2008762846057 1576.8273129456798 145.2008762846057Q1572.0154077312293 145.2008762846057 1568.3391604839558 146.75627449598886Q1564.6629132366822 148.31167270737205 1562.5087989755925 151.05341460976825Q1560.354684714503 153.79515651216443 1560.0379061910132 157.36527599360318H1540.8350159920303Q1541.3450247745388 149.02769193713297 1545.8432740077078 142.82042604996855Q1550.3415232408768 136.6131601628041 1558.335410139865 133.14285085793307Q1566.329297038853 129.67254155306208 1577.2834554582637 129.67254155306208Q1585.4246287096269 129.67254155306208 1591.8662979433202 131.63815287135589Q1598.3079671770136 133.60376418964972 1602.7792832752202 137.30373502385694Q1607.2505993734271 141.00370585806417 1609.5820846660026 146.2289612226038Q1611.9135699585781 151.45421658714343 1611.9135699585781 157.97350467963506V215.0H1592.2798946098994V203.1778231832005H1591.9631160864096Q1590.0022755872485 206.8999418322672 1586.8440029886747 209.89191730678482Q1583.6857303901008 212.88389278130242 1578.9356283098261 214.6182667981858Q1574.1855262295514 216.3526408150692 1567.3810910628147 216.3526408150692ZM1572.3037063496226 201.54969293991192Q1578.800904631135 201.54969293991192 1583.250087415452 199.17858132996014Q1587.6992701997694 196.80746972000838 1589.961073497798 192.8540412646812Q1592.2228767958266 188.90061280935402 1592.2228767958266 184.06337923395554V174.97811549653943Q1591.2883859519193 175.5768315462458 1589.4748173041635 176.12486187211618Q1587.6612486564075 176.67289219798658 1585.1681790550285 177.18132520842073Q1582.6751094536496 177.68975821885488 1579.7638898811088 178.17284836737102Q1576.8526703085677 178.65593851588716 1573.7735633389264 179.10259739408556Q1569.5128689964347 179.70764553402893 1565.9094842897966 181.09514184734164Q1562.3060995831588 182.48263816065435 1560.1266424601513 184.88066840459834Q1557.9471853371435 187.27869864854236 1557.9471853371435 191.0895825686871Q1557.9471853371435 194.3429235266359 1559.7179906243446 196.69819041002518Q1561.4887959115458 199.05345729341443 1564.7136279624583 200.30157511666317Q1567.9384600133706 201.54969293991192 1572.3037063496226 201.54969293991192Z M1629.5710531145137 215.0V131.37046979865772H1648.8435963061036V145.25801010643875H1649.1033570155205Q1651.4000013108225 138.0513276989828 1656.332245241716 134.30541295813234Q1661.2644891726093 130.55949821728188 1669.38984669935 130.55949821728188Q1671.3823766516362 130.55949821728188 1673.0407075817957 130.66086966495385Q1674.699038511955 130.76224111262582 1675.8901095191907 130.8636125602978V148.60303586409395Q1674.7845652330645 148.45097869258598 1672.0998846476514 148.222892935324Q1669.4152040622382 147.99480717806208 1666.4564938129197 147.99480717806208Q1661.7491695941699 147.99480717806208 1657.9034736786916 150.16157111865562Q1654.0577777632134 152.32833505924916 1651.8244833722215 156.68563003027998Q1649.5911889812294 161.04292500131083 1649.5911889812294 167.62877254614094V215.0Z M1705.5691578295412 188.89728725356542V165.25325264130663H1707.5394819630876L1740.0665594523389 131.37046979865772H1764.1034446767517L1725.2789922727038 172.62130184301594H1721.2750231032408ZM1687.303939020554 215.0V96.99999999999999H1707.3240748872697V215.0ZM1742.2777060284714 215.0 1713.2986002057994 177.05614316799495 1726.7361850815334 163.09273378513004 1766.1688661716132 215.0Z M1807.1094257943587 216.98619786204907Q1796.9060405961625 216.98619786204907 1788.8361396123905 213.7851619029205Q1780.7662386286183 210.58412594379195 1775.8672744238943 204.36260560310927Q1770.96831021917 198.1410852624266 1770.2999121749165 189.147738340237H1790.0476231517412Q1790.7033570155206 195.25211501153524 1794.994150538093 198.62741396091127Q1799.2849440606653 202.00271291028733 1806.7356294567958 202.00271291028733Q1813.9930845939077 202.00271291028733 1818.138167536179 199.14375483365666Q1822.2832504784506 196.28479675702602 1822.2832504784506 191.8530199703754Q1822.2832504784506 188.0706449572672 1819.2263203256086 185.7613074795512Q1816.1693901727667 183.45197000183515 1810.860169358222 182.35590935009438L1796.598832712878 179.416195371487Q1784.615115090185 176.90096345427852 1778.4078492030208 170.8188216036598Q1772.2005833158562 164.7366797530411 1772.2005833158562 155.25868141123112Q1772.2005833158562 147.58949539901425 1776.355120890573 141.80037948301174Q1780.50965846529 136.01126356700922 1788.1012256187087 132.7832944729184Q1795.6927927721272 129.5553253788276 1805.92468687736 129.5553253788276Q1816.0615416251578 129.5553253788276 1823.7608123164855 132.95593818818162Q1831.460083007813 136.35655099753563 1835.8664589286655 142.57490529309982Q1840.2728348495182 148.793259588664 1840.5104187421355 157.39378490063967H1821.7193464240777Q1821.6401517932052 151.82477437473784 1817.4222208112683 148.1532834456271Q1813.2042898293314 144.48179251651635 1806.3808293899438 144.48179251651635Q1799.8107975697362 144.48179251651635 1795.9872494691176 147.4199452240195Q1792.1637013684988 150.35809793152265 1792.1637013684988 154.63148545642827Q1792.1637013684988 158.3853515625 1795.1208503467128 160.73428635565227Q1798.077999324927 163.0832211488045 1803.2700329671775 164.22363543414428L1818.3296190095432 167.33440285497062Q1830.7948365077082 169.9573383100881 1836.6599810094647 175.56273660339764Q1842.5251255112212 181.16813489670722 1842.5251255112212 190.33886735135277Q1842.5251255112212 198.49906587536702 1837.9857031905417 204.4845780955065Q1833.446280869862 210.47009031564596 1825.4444861085626 213.7281440888475Q1817.4426913472635 216.98619786204907 1807.1094257943587 216.98619786204907Z"/>
</svg>
