<svg xmlns="http://www.w3.org/2000/svg" viewBox="0 0 720 180" role="img" aria-labelledby="n4-motion-title">
  <title id="n4-motion-title">Animated NIRS spectra motif</title>
  <defs>
    <linearGradient id="n4-motion-gradient" x1="0" x2="1" y1="0" y2="0">
      <stop offset="0" stop-color="#0f766e"/>
      <stop offset=".5" stop-color="#06b6d4"/>
      <stop offset="1" stop-color="#10b981"/>
    </linearGradient>
    <filter id="n4-motion-glow" x="-10%" y="-40%" width="120%" height="180%">
      <feGaussianBlur stdDeviation="3.2" result="blur"/>
      <feMerge>
        <feMergeNode in="blur"/>
        <feMergeNode in="SourceGraphic"/>
      </feMerge>
    </filter>
  </defs>

  <rect width="720" height="180" rx="18" fill="#faf7f0"/>
  <g stroke="#0d9488" stroke-opacity=".08" stroke-width="1">
    <line x1="0" y1="45" x2="720" y2="45"/>
    <line x1="0" y1="90" x2="720" y2="90"/>
    <line x1="0" y1="135" x2="720" y2="135"/>
  </g>

  <!-- faint reference spectrum -->
  <path d="M24 132 C 96 128 132 96 176 108 S 268 150 330 84 S 452 148 520 112 S 626 58 700 120"
    fill="none" stroke="#4f46e5" stroke-width="3" stroke-linecap="round" stroke-linejoin="round" opacity=".28">
    <animate attributeName="opacity" values=".18;.4;.18" dur="9s" repeatCount="indefinite"/>
  </path>

  <!-- primary absorbance spectrum -->
  <path d="M24 138 C 92 134 128 58 176 92 S 262 152 324 66 S 438 150 508 104 S 612 40 700 128"
    fill="none" stroke="url(#n4-motion-gradient)" stroke-width="6" stroke-linecap="round" stroke-linejoin="round"
    filter="url(#n4-motion-glow)" stroke-dasharray="26 20">
    <animate attributeName="stroke-dashoffset" values="0;-92" dur="8s" repeatCount="indefinite"/>
  </path>

  <!-- glowing peak dot -->
  <circle r="6" fill="#10b981" filter="url(#n4-motion-glow)">
    <animate attributeName="cx" values="176;324;508;700;508;324;176" dur="12s" repeatCount="indefinite"/>
    <animate attributeName="cy" values="92;66;104;128;104;66;92" dur="12s" repeatCount="indefinite"/>
    <animate attributeName="r" values="5;7;5" dur="3s" repeatCount="indefinite"/>
  </circle>
</svg>
