<svg xmlns="http://www.w3.org/2000/svg" viewBox="0 0 482 132" role="img" aria-labelledby="nirs4all-core-horizontal-title">
  <title id="nirs4all-core-horizontal-title">nirs4all-core</title>
  <g transform="translate(18 18) scale(0.311427)"><defs><clipPath id="nirs4all-core-horizontal-clip" clipPathUnits="userSpaceOnUse"><path d="M 75.196094,-0.47997507 H 381.42019 V 303.18425 H 75.196094 Z"/></clipPath></defs>
    <g transform="translate(-0.25127103,1.1057433)">
      <path fill="#E9362D" fill-rule="evenodd" d="M 1.5315373,35.750606 C 1.5315373,16.791591 16.89074,1.4323885 35.849755,1.4323885 H 269.47762 c 18.91901,0 34.27821,15.3592025 34.27821,34.3182175 V 269.53846 c 0,18.91902 -15.3592,34.27822 -34.27821,34.27822 H 35.849755 c -18.959015,0 -34.3182177,-15.3592 -34.3182177,-34.27822 z" transform="matrix(1.0163665,0,0,1.019436,-1.1937273,-2.5659717)"/>
      <path id="nirs4all-core-horizontal-wave" fill="none" stroke="#ffffff" stroke-width="19.359" stroke-linecap="butt" stroke-miterlimit="8" clip-path="url(#nirs4all-core-horizontal-clip)" d="m 78.350886,215.76355 c 4.917688,0.027 13.251861,-0.0312 22.323884,-1.53468 6.67965,-1.47992 11.15942,-3.51981 16.79913,-8.67955 5.6797,-5.15973 10.19947,-8.15957 17.11911,-22.35883 6.95964,-14.15927 19.159,-49.59743 24.47873,-62.67675 5.27972,-13.11932 3.63981,-9.91948 7.31962,-15.83918 3.67981,-5.959687 11.4794,-8.59955 16.51914,-6.839641 5.03974,1.759908 9.39951,4.999741 13.71929,17.319101 4.35977,12.35936 6.23967,27.03859 9.4795,37.67804 3.27983,10.67945 4.39978,18.47904 10.11948,26.35863 5.6797,7.87959 12.48129,8.96263 20.43894,4.99974 6.87614,-5.69367 24.35873,-49.63742 26.59862,-51.67731 2.23988,-2.0399 14.71923,-18.23906 34.23822,6.47966 8.91953,11.39941 25.55867,37.55805 38.79798,52.55727" transform="translate(-78.046472,1.0051295)"/>
      <path fill="#ffffff" fill-rule="evenodd" d="m 245.65157,200.51477 c 0,-13.5593 10.99943,-24.55873 24.55873,-24.55873 13.59929,0 24.55872,10.99943 24.55872,24.55873 0,13.59929 -10.95943,24.55872 -24.55872,24.55872 -13.5593,0 -24.55873,-10.95943 -24.55873,-24.55872 z"/>
    </g></g>
  <text x="136" y="73" font-family="'IBM Plex Sans', 'Inter', system-ui, -apple-system, sans-serif" font-size="40" font-weight="700" letter-spacing="-0.5"><tspan fill="#0f172a">nirs</tspan><tspan fill="#E9362D">4</tspan><tspan fill="#E9362D">all</tspan><tspan fill="#64748b">-core</tspan></text>
  <text x="136" y="99" font-family="'Inter', system-ui, sans-serif" font-size="15" font-weight="600" fill="#64748b">Portable aggregate runtime</text>
</svg>
