<svg xmlns="http://www.w3.org/2000/svg" xmlns:xlink="http://www.w3.org/1999/xlink" width="1289.27" height="312.00" viewBox="0 0 1289.2685 312.0000">
<defs><defs
     id="defs1">
    <clipPath
       clipPathUnits="userSpaceOnUse"
       id="nirs4all_core_clip">
      <path
         d="M 75.196094,-0.47997507 H 381.42019 V 303.18425 H 75.196094 Z"
         id="path1" />
    </clipPath>
  </defs></defs><g transform="translate(28.0,28.0) scale(0.8331102485382658) translate(0,0)"><g
     id="g8"
     transform="translate(-0.25127103,1.1057433)">
    <g
       id="g9">
      <path
         style="fill:#E9362D;fill-opacity:1;fill-rule:evenodd;stroke:none"
         d="M 1.5315373,35.750606 C 1.5315373,16.791591 16.89074,1.4323885 35.849755,1.4323885 H 269.47762 c 18.91901,0 34.27821,15.3592025 34.27821,34.3182175 V 269.53846 c 0,18.91902 -15.3592,34.27822 -34.27821,34.27822 H 35.849755 c -18.959015,0 -34.3182177,-15.3592 -34.3182177,-34.27822 z"
         id="path2"
         transform="matrix(1.0163665,0,0,1.019436,-1.1937273,-2.5659717)" />
      <path
         style="fill:none;stroke:#ffffff;stroke-width:19.359px;stroke-linecap:butt;stroke-linejoin:miter;stroke-miterlimit:8;stroke-dasharray:none;stroke-opacity:1"
         clip-path="url(#nirs4all_core_clip)"
         d="m 78.350886,215.76355 c 4.917688,0.027 13.251861,-0.0312 22.323884,-1.53468 6.67965,-1.47992 11.15942,-3.51981 16.79913,-8.67955 5.6797,-5.15973 10.19947,-8.15957 17.11911,-22.35883 6.95964,-14.15927 19.159,-49.59743 24.47873,-62.67675 5.27972,-13.11932 3.63981,-9.91948 7.31962,-15.83918 3.67981,-5.959687 11.4794,-8.59955 16.51914,-6.839641 5.03974,1.759908 9.39951,4.999741 13.71929,17.319101 4.35977,12.35936 6.23967,27.03859 9.4795,37.67804 3.27983,10.67945 4.39978,18.47904 10.11948,26.35863 5.6797,7.87959 12.48129,8.96263 20.43894,4.99974 6.87614,-5.69367 24.35873,-49.63742 26.59862,-51.67731 2.23988,-2.0399 14.71923,-18.23906 34.23822,6.47966 8.91953,11.39941 25.55867,37.55805 38.79798,52.55727"
         id="path3"
         transform="translate(-78.046472,1.0051295)" />
      <path
         style="fill:#ffffff;fill-opacity:1;fill-rule:evenodd;stroke:none"
         d="m 245.65157,200.51477 c 0,-13.5593 10.99943,-24.55873 24.55873,-24.55873 13.59929,0 24.55872,10.99943 24.55872,24.55873 0,13.59929 -10.95943,24.55872 -24.55872,24.55872 -13.5593,0 -24.55873,-10.95943 -24.55873,-24.55872 z"
         id="path4" />
    </g>
  </g></g>
<path fill="#FFFFFF" d="M352.85830307518876 167.71123472892197V215.0H332.8381672084732V131.37046979865772H352.51301564466235V152.64210704829068H348.59763773463715Q352.6302318188968 141.45981936870805 359.9699896281197 135.56618046088505Q367.3097474373427 129.67254155306208 378.20688804268036 129.67254155306208Q386.9943115234375 129.67254155306208 393.7068588768876 133.46912751677854Q400.4194062303377 137.26571348049498 404.2207630131869 144.63081415163592Q408.02211979603607 151.99591482277685 408.02211979603607 162.7632330772861V215.0H388.0019839293205V165.93726339660236Q388.0019839293205 156.71260666815226 383.5987305506764 151.96406585898174Q379.1954771720323 147.21552504981122 371.1397436359585 147.21552504981122Q365.8970242698721 147.21552504981122 361.7630297360004 149.35696062945678Q357.62903520212876 151.49839620910234 355.2436691386588 156.02360757917364Q352.85830307518876 160.54881894924495 352.85830307518876 167.71123472892197Z M425.733469221896 215.0V131.37046979865772H445.75360508861155V215.0ZM435.71502824821727 118.93358719588926Q430.60227624265934 118.93358719588926 427.1826816635644 115.6599563642797Q423.76308708446936 112.38632553267013 423.76308708446936 107.55806576790289Q423.76308708446936 102.72416123767826 427.1826816635644 99.47562010080222Q430.60227624265934 96.22707896392616 435.67812201247085 96.22707896392616Q440.8196348517647 96.22707896392616 444.24330213186494 99.47256557504829Q447.66696941196517 102.71805218617044 447.66696941196517 107.59497305416396Q447.66696941196517 112.40799601510066 444.23827390133334 115.67079160549497Q440.8095783907015 118.93358719588926 435.71502824821727 118.93358719588926Z M463.430113517198 215.0V131.37046979865772H482.70265670878774V145.25801010643875H482.96241741820467Q485.2590617135067 138.0513276989828 490.19130564440013 134.30541295813234Q495.1235495752936 130.55949821728188 503.24890710203437 130.55949821728188Q505.24143705432044 130.55949821728188 506.8997679844798 130.66086966495385Q508.55809891463923 130.76224111262582 509.74916992187497 130.8636125602978V148.60303586409395Q508.6436256357487 148.45097869258598 505.9589450503355 148.222892935324Q503.27426446492234 147.99480717806208 500.315554215604 147.99480717806208Q495.608229996854 147.99480717806208 491.7625340813758 150.16157111865562Q487.9168381658976 152.32833505924916 485.6835437749056 156.68563003027998Q483.45024938391356 161.04292500131083 483.45024938391356 167.62877254614094V215.0Z M554.0127814990561 216.98619786204907Q543.8093963008598 216.98619786204907 535.7394953170879 213.7851619029205Q527.6695943333158 210.58412594379195 522.7706301285916 204.36260560310927Q517.8716659238673 198.1410852624266 517.203267879614 189.147738340237H536.9509788564387Q537.6067127202181 195.25211501153524 541.8975062427904 198.62741396091127Q546.1882997653628 202.00271291028733 553.6389851614932 202.00271291028733Q560.8964402986052 202.00271291028733 565.0415232408766 199.14375483365666Q569.186606183148 196.28479675702602 569.186606183148 191.8530199703754Q569.186606183148 188.0706449572672 566.1296760303062 185.7613074795512Q563.0727458774643 183.45197000183515 557.7635250629194 182.35590935009438L543.5021884175754 179.416195371487Q531.5184707948824 176.90096345427852 525.3112049077181 170.8188216036598Q519.1039390205536 164.7366797530411 519.1039390205536 155.25868141123112Q519.1039390205536 147.58949539901425 523.2584765952705 141.80037948301174Q527.4130141699874 136.01126356700922 535.004581323406 132.7832944729184Q542.5961484768246 129.5553253788276 552.8280425820574 129.5553253788276Q562.9648973298553 129.5553253788276 570.6641680211828 132.95593818818162Q578.3634387125104 136.35655099753563 582.769814633363 142.57490529309982Q587.1761905542155 148.793259588664 587.413774446833 157.39378490063967H568.6227021287751Q568.5435074979026 151.82477437473784 564.3255765159657 148.1532834456271Q560.1076455340288 144.48179251651635 553.2841850946413 144.48179251651635Q546.7141532744337 144.48179251651635 542.890605173815 147.4199452240195Q539.0670570731962 150.35809793152265 539.0670570731962 154.63148545642827Q539.0670570731962 158.3853515625 542.0242060514104 160.73428635565227Q544.9813550296245 163.0832211488045 550.1733886718749 164.22363543414428L565.2329747142408 167.33440285497062Q577.6981922124055 169.9573383100881 583.563336714162 175.56273660339764Q589.4284812159185 181.16813489670722 589.4284812159185 190.33886735135277Q589.4284812159185 198.49906587536702 584.889058895239 204.4845780955065Q580.3496365745596 210.47009031564596 572.3478418132602 213.7281440888475Q564.3460470519609 216.98619786204907 554.0127814990561 216.98619786204907Z"/>
<path fill="#E9362D" d="M598.6723082267198 188.54257419253355V172.08929025534815L652.116135892932 96.99999999999999H665.1894080654886V117.84382963244546H657.8767345715536L619.7030360279467 171.54461888818278V171.7091328256082H694.1238702351615V188.54257419253355ZM657.9986283884753 215.0V183.57554726824665V176.09331742869128V96.99999999999999H677.8350466324979V215.0Z"/>
<path fill="#FFFFFF" d="M733.0656548212038 216.3526408150692Q724.7217096725566 216.3526408150692 718.2055731242135 213.5586519177328Q711.6894365758703 210.7646630203964 707.9197692461462 205.17351918060507Q704.1501019164219 199.58237534081377 704.1501019164219 191.26693909920303Q704.1501019164219 184.11724550388004 706.8332212307308 179.47486146248428Q709.5163405450397 174.8324774210885 714.1143854538066 172.05908956847736Q718.7124303625733 169.2857017158662 724.6488616328911 167.83961181640626Q730.5852929032088 166.3935219169463 737.012722184354 165.71561123636744Q744.7833086461828 164.83495766044462 749.3338338762321 164.18081406970953Q753.8843591062814 163.5266704789744 755.8388820161755 162.20253857094167Q757.7934049260696 160.87840666290896 757.7934049260696 158.02421940541106V157.4033265389052Q757.7934049260696 153.80784969457844 755.9719139150325 151.0676835642565Q754.1504229039953 148.32751743393456 750.7339363661388 146.76419685927013Q747.3174498282822 145.2008762846057 742.5118767040688 145.2008762846057Q737.6999714896182 145.2008762846057 734.0237242423448 146.75627449598886Q730.3474769950712 148.31167270737205 728.1933627339818 151.05341460976825Q726.0392484728922 153.79515651216443 725.7224699494022 157.36527599360318H706.5195797504194Q707.0295885329277 149.02769193713297 711.5278377660968 142.82042604996855Q716.0260869992659 136.6131601628041 724.019973898254 133.14285085793307Q732.0138607972419 129.67254155306208 742.9680192166526 129.67254155306208Q751.1091924680159 129.67254155306208 757.5508617017092 131.63815287135589Q763.9925309354026 133.60376418964972 768.4638470336095 137.30373502385694Q772.9351631318162 141.00370585806417 775.2666484243917 146.2289612226038Q777.5981337169673 151.45421658714343 777.5981337169673 157.97350467963506V215.0H757.9644583682885V203.1778231832005H757.6476798447986Q755.6868393456375 206.8999418322672 752.5285667470637 209.89191730678482Q749.3702941484898 212.88389278130242 744.6201920682151 214.6182667981858Q739.8700899879403 216.3526408150692 733.0656548212038 216.3526408150692ZM737.9882701080116 201.54969293991192Q744.4854683895238 201.54969293991192 748.9346511738411 199.17858132996014Q753.3838339581584 196.80746972000838 755.645637256187 192.8540412646812Q757.9074405542156 188.90061280935402 757.9074405542156 184.06337923395554V174.97811549653943Q756.9729497103083 175.5768315462458 755.1593810625524 176.12486187211618Q753.3458124147965 176.67289219798658 750.8527428134175 177.18132520842073Q748.3596732120385 177.68975821885488 745.4484536394975 178.17284836737102Q742.5372340669567 178.65593851588716 739.4581270973154 179.10259739408556Q735.1974327548237 179.70764553402893 731.5940480481856 181.09514184734164Q727.9906633415477 182.48263816065435 725.8112062185402 184.88066840459834Q723.6317490955327 187.27869864854236 723.6317490955327 191.0895825686871Q723.6317490955327 194.3429235266359 725.4025543827338 196.69819041002518Q727.1733596699349 199.05345729341443 730.3981917208473 200.30157511666317Q733.6230237717596 201.54969293991192 737.9882701080116 201.54969293991192Z M815.2757527396183 96.99999999999999V215.0H795.2556168729026V96.99999999999999Z M852.9723970349203 96.99999999999999V215.0H832.9522611682046V96.99999999999999Z M923.9341118524537 159.60180893456376V176.32121467334312H870.987802799916V159.60180893456376Z"/>
<path fill="#E9362D" d="M978.9617161283556 216.9006711409396Q966.7435951591337 216.9006711409396 957.5221914816223 211.36021302498426Q948.3007878041107 205.81975490902894 943.1737378421244 195.98536622732277Q938.0466878801383 186.1509775456166 938.0466878801383 173.28660634700083Q938.0466878801383 160.37154942454907 943.1737378421244 150.48647501900692Q948.3007878041107 140.60140061346476 957.5221914816223 135.03559963559144Q966.7435951591337 129.46979865771812 978.9617161283556 129.46979865771812Q986.8304644898279 129.46979865771812 993.4875407993393 131.81870444893036Q1000.1446171088505 134.1676102401426 1005.1481188063652 138.42985135276845Q1010.1516205038799 142.6920924653943 1013.1958574743078 148.4970386069893Q1016.2400944447356 154.30198474858432 1016.9116730350775 161.2932600802223H997.3033260473468Q996.7616278117134 157.9132193136535 995.3186894564019 155.1382266870281Q993.8757511010905 152.36323406040268 991.5711699415372 150.34851279034712Q989.266588781984 148.33379152029153 986.1795594490613 147.2234764150325Q983.0925301161387 146.1131613097735 979.1897873846475 146.1131613097735Q972.6609286519504 146.1131613097735 967.9678153838086 149.4488629437133Q963.2747021156669 152.7845645776531 960.7784664691694 158.88576070286283Q958.2822308226719 164.98695682807255 958.2822308226719 173.28660634700083Q958.2822308226719 181.50706123505663 960.7784664691694 187.57182608994862Q963.2747021156669 193.6365909448406 967.9567269754089 196.94694971686243Q972.6387518351509 200.25730848888423 979.1897873846475 200.25730848888423Q983.0925301161387 200.25730848888423 986.1288737252253 199.18342465394295Q989.1652173343119 198.10954081900167 991.3684270461932 196.09481954894608Q993.5716367580745 194.08009827889052 995.014575113386 191.2512538833106Q996.4575134686975 188.4224094877307 997.1512688758388 184.96317409028944H1016.9116730350775Q1016.3541300728816 191.85307797425546 1013.3526564630085 197.6722785693687Q1010.3511828531354 203.49147916448197 1005.3080838401845 207.8075720460623Q1000.2649848272335 212.1236649276426 993.5651451571675 214.5121680342911Q986.8653054871014 216.9006711409396 978.9617161283556 216.9006711409396Z M1067.6058364356124 216.9006711409396Q1055.3306976523174 216.9006711409396 1046.0237672536964 211.40297638553903Q1036.7168368550754 205.90528163013843 1031.5327690790164 196.0851474019505Q1026.3487013029571 186.26501317376258 1026.3487013029571 173.28660634700083Q1026.3487013029571 160.2575137964031 1031.5327690790164 150.40094829789743Q1036.7168368550754 140.54438279939177 1046.0237672536964 135.00709072855494Q1055.3306976523174 129.46979865771812 1067.6058364356124 129.46979865771812Q1079.9601698497797 129.46979865771812 1089.2275029329644 135.00709072855494Q1098.4948360161493 140.54438279939177 1103.6789037922085 150.40094829789743Q1108.8629715682675 160.2575137964031 1108.8629715682675 173.28660634700083Q1108.8629715682675 186.26501317376258 1103.6789037922085 196.0851474019505Q1098.4948360161493 205.90528163013843 1089.2275029329644 211.40297638553903Q1079.9601698497797 216.9006711409396 1067.6058364356124 216.9006711409396ZM1067.6058364356124 200.20029067481124Q1074.042836356963 200.20029067481124 1078.7533701237417 196.94694971686243Q1083.46390389052 193.6936087589136 1086.0456662581269 187.6320099491401Q1088.627428625734 181.5704111393666 1088.627428625734 173.28660634700083Q1088.627428625734 164.8729211999266 1086.0456662581269 158.82557684367134Q1083.46390389052 152.77823248741612 1078.7533701237417 149.4742058056313Q1074.042836356963 146.17017912384648 1067.6058364356124 146.17017912384648Q1061.2480311451343 146.17017912384648 1056.4979000629196 149.4488629437133Q1051.7477689807047 152.7275467635801 1049.1660066130976 158.80023398175337Q1046.5842442454907 164.8729211999266 1046.5842442454907 173.28660634700083Q1046.5842442454907 181.62109686320258 1049.1660066130976 187.6573528110581Q1051.7477689807047 193.6936087589136 1056.4725572010016 196.94694971686243Q1061.1973454212982 200.20029067481124 1067.6058364356124 200.20029067481124Z M1122.6462208997482 215.0V131.37046979865772H1141.918764091338V145.25801010643875H1142.178524800755Q1144.475169096057 138.0513276989828 1149.4074130269505 134.30541295813234Q1154.3396569578438 130.55949821728188 1162.4650144845846 130.55949821728188Q1164.4575444368706 130.55949821728188 1166.1158753670302 130.66086966495385Q1167.7742062971895 130.76224111262582 1168.9652773044252 130.8636125602978V148.60303586409395Q1167.859733018299 148.45097869258598 1165.1750524328859 148.222892935324Q1162.4903718474727 147.99480717806208 1159.5316615981542 147.99480717806208Q1154.8243373794044 147.99480717806208 1150.9786414639261 150.16157111865562Q1147.1329455484479 152.32833505924916 1144.899651157456 156.68563003027998Q1142.6663567664639 161.04292500131083 1142.6663567664639 167.62877254614094V215.0Z M1217.3312229642931 216.9006711409396Q1204.7994750157297 216.9006711409396 1195.6287570620543 211.29210680251154Q1186.4580391083787 205.68354246408347 1181.4798802727819 195.80955646694105Q1176.5017214371853 185.93557046979865 1176.5017214371853 173.28660634700083Q1176.5017214371853 160.50776186949454 1181.6176829907718 150.6226874639524Q1186.7336445443582 140.73761305841023 1195.7570616446885 135.1037058580642Q1204.7804787450189 129.46979865771812 1216.4949230219693 129.46979865771812Q1225.5484393023805 129.46979865771812 1232.9135254725516 132.6233294390992Q1240.2786116427224 135.77686022048027 1245.5814713650902 141.59449954448928Q1250.8843310874581 147.41213886849832 1253.7369135709419 155.37912163446413Q1256.5894960544254 163.34610440042994 1256.5894960544254 172.97300836959943V178.40569044279573H1184.4274876127306V164.6195795865667H1246.5857312093644L1237.6400344746226 168.3163988766254Q1237.6400344746226 161.2458419082949 1235.0899470591705 156.0902250353922Q1232.5398596437185 150.9346081624895 1227.880011600776 148.13109212785758Q1223.2201635578335 145.32757609322567 1216.8085209993708 145.32757609322567Q1210.4760730717805 145.32757609322567 1205.8273134372378 148.13109212785758Q1201.178553802695 150.9346081624895 1198.628466387243 156.0902250353922Q1196.0783789717912 161.2458419082949 1196.0783789717912 168.3163988766254V177.01184753827602Q1196.0783789717912 184.1901080445155 1198.6205440239619 189.6450829422714Q1201.1627090761326 195.10005784002726 1206.0237097413747 198.13482567703966Q1210.884710406617 201.16959351405202 1217.787365476877 201.16959351405202Q1222.8146777671454 201.16959351405202 1226.6873213185559 199.66488102650482Q1230.5599648699665 198.16016853895763 1233.144893282692 195.44693554359793Q1235.7298216954173 192.73370254823826 1236.8543912541945 189.147738340237H1255.5631173972315Q1254.0077336868183 197.34595840761324 1248.6478561503775 203.58965556509543Q1243.2879786139367 209.8333527225776 1235.2053989487208 213.3670119317586Q1227.1228192835047 216.9006711409396 1217.3312229642931 216.9006711409396Z"/>
</svg>
