<svg xmlns="http://www.w3.org/2000/svg" xmlns:xlink="http://www.w3.org/1999/xlink" width="288.00" height="407.48" viewBox="0 0 288.0000 407.4819">
<defs><defs
     id="defs1">
    <clipPath
       clipPathUnits="userSpaceOnUse"
       id="nirs4all_core_clip">
      <path
         d="M 75.196094,-0.47997507 H 381.42019 V 303.18425 H 75.196094 Z"
         id="path1" />
    </clipPath>
  </defs></defs><g transform="translate(24.0,24.0) scale(0.7810408580046241) translate(0,0)"><g
     id="g8"
     transform="translate(-0.25127103,1.1057433)">
    <g
       id="g9">
      <path
         style="fill:#E9362D;fill-opacity:1;fill-rule:evenodd;stroke:none"
         d="M 1.5315373,35.750606 C 1.5315373,16.791591 16.89074,1.4323885 35.849755,1.4323885 H 269.47762 c 18.91901,0 34.27821,15.3592025 34.27821,34.3182175 V 269.53846 c 0,18.91902 -15.3592,34.27822 -34.27821,34.27822 H 35.849755 c -18.959015,0 -34.3182177,-15.3592 -34.3182177,-34.27822 z"
         id="path2"
         transform="matrix(1.0163665,0,0,1.019436,-1.1937273,-2.5659717)" />
      <path
         style="fill:none;stroke:#ffffff;stroke-width:19.359px;stroke-linecap:butt;stroke-linejoin:miter;stroke-miterlimit:8;stroke-dasharray:none;stroke-opacity:1"
         clip-path="url(#nirs4all_core_clip)"
         d="m 78.350886,215.76355 c 4.917688,0.027 13.251861,-0.0312 22.323884,-1.53468 6.67965,-1.47992 11.15942,-3.51981 16.79913,-8.67955 5.6797,-5.15973 10.19947,-8.15957 17.11911,-22.35883 6.95964,-14.15927 19.159,-49.59743 24.47873,-62.67675 5.27972,-13.11932 3.63981,-9.91948 7.31962,-15.83918 3.67981,-5.959687 11.4794,-8.59955 16.51914,-6.839641 5.03974,1.759908 9.39951,4.999741 13.71929,17.319101 4.35977,12.35936 6.23967,27.03859 9.4795,37.67804 3.27983,10.67945 4.39978,18.47904 10.11948,26.35863 5.6797,7.87959 12.48129,8.96263 20.43894,4.99974 6.87614,-5.69367 24.35873,-49.63742 26.59862,-51.67731 2.23988,-2.0399 14.71923,-18.23906 34.23822,6.47966 8.91953,11.39941 25.55867,37.55805 38.79798,52.55727"
         id="path3"
         transform="translate(-78.046472,1.0051295)" />
      <path
         style="fill:#ffffff;fill-opacity:1;fill-rule:evenodd;stroke:none"
         d="m 245.65157,200.51477 c 0,-13.5593 10.99943,-24.55873 24.55873,-24.55873 13.59929,0 24.55872,10.99943 24.55872,24.55873 0,13.59929 -10.95943,24.55872 -24.55872,24.55872 -13.5593,0 -24.55873,-10.95943 -24.55873,-24.55872 z"
         id="path4" />
    </g>
  </g></g>
<path fill="#000000" d="M53.3643059852139 345.7753843985948V382.0H35.199248898909374V316.7973154362416H53.08398519426382V333.7709592268771H49.986863104288986Q53.09757858378773 325.10813365142616 58.82565844235002 320.2685930290478Q64.5537383009123 315.4290524066695 73.43879148752094 315.4290524066695Q80.4122530738779 315.4290524066695 85.54574179425333 318.4335570469799Q90.67923051462876 321.43806168729026 93.5040796881554 327.1803435664849Q96.32892886168203 332.9226254456795 96.32892886168203 341.1618927616401V382.0H78.16387177537749V344.50342452286077Q78.16387177537749 337.9447968553377 75.03645191576655 334.53705620477666Q71.9090320561556 331.1293155542156 66.16174545800123 331.1293155542156Q62.40761079724201 331.1293155542156 59.51790566668412 332.6766593369862Q56.628200536126236 334.22400311975673 54.99625326067007 337.46317933357807Q53.3643059852139 340.70235554739935 53.3643059852139 345.7753843985948Z"/>
<path fill="#E9362D" d="M106.39606425650166 362.1723586933725V347.4995100802223L146.88608726143036 290.0H158.77919512243076V308.14044050178273H152.20292436925746L124.69333561634855 347.2947362972821V347.4253889864723H182.18290409369754V362.1723586933725ZM152.28373318870592 382.0V357.72185206061243V351.1325214974832V290.0H170.17218910575713V382.0Z"/>
<path fill="#E9362D" d="M222.53334141673656 383.4818791946309Q212.68505318660863 383.4818791946309 205.21208635368603 379.2288818359375Q197.73911952076344 374.9758844772441 193.57505390756083 367.319508638318Q189.41098829435822 359.6631327993918 189.41098829435822 349.4554658006502Q189.41098829435822 339.21939476064387 193.57505390756083 331.55128534304214Q197.73911952076344 323.8831759254404 205.21208635368603 319.59930608352556Q212.68505318660863 315.31543624161077 222.53334141673656 315.31543624161077Q232.44337461330747 315.31543624161077 239.8854689630086 319.59930608352556Q247.32756331270974 323.8831759254404 251.49162892591232 331.55128534304214Q255.65569453911493 339.21939476064387 255.65569453911493 349.4554658006502Q255.65569453911493 359.6631327993918 251.49162892591232 367.319508638318Q247.32756331270974 374.9758844772441 239.8854689630086 379.2288818359375Q232.44337461330747 383.4818791946309 222.53334141673656 383.4818791946309ZM222.53334141673656 368.7052881842492Q226.97410995176176 368.7052881842492 230.2910929635067 366.41328518246644Q233.60807597525167 364.12128218068375 235.4542708224098 359.79538099045726Q237.30046566956796 355.4694798002307 237.30046566956796 349.4554658006502Q237.30046566956796 343.351302793362 235.4542708224098 339.0420720657246Q233.60807597525167 334.73284133808727 230.2910929635067 332.4124342950399Q226.97410995176176 330.0920272519925 222.53334141673656 330.0920272519925Q218.15431784815436 330.0920272519925 214.80646235318792 332.3982322744075Q211.4586068582215 334.70443729682256 209.61241201106333 339.0278700450923Q207.7662171639052 343.351302793362 207.7662171639052 349.4554658006502Q207.7662171639052 355.49788384149537 209.61241201106333 359.80958301108956Q211.4586068582215 364.12128218068375 214.7922603325556 366.41328518246644Q218.12591380688968 368.7052881842492 222.53334141673656 368.7052881842492Z"/>
</svg>
