<svg xmlns="http://www.w3.org/2000/svg" xmlns:xlink="http://www.w3.org/1999/xlink" width="1398.72" height="312.00" viewBox="0 0 1398.7154 312.0000">
<g transform="translate(28.0,28.0) scale(3.1108356725359383) translate(-87.13875,-102.255)"><g><path style="fill:#FFBE00;fill-rule:evenodd" d="m 87.13875,111.60073 c 0,-5.15479 4.189687,-9.34448 9.344479,-9.34448 h 63.617391 c 5.1548,0 9.33313,4.18969 9.33313,9.34448 v 63.61739 c 0,5.1548 -4.17833,9.33313 -9.33313,9.33313 H 96.483229 c -5.154792,0 -9.344479,-4.17833 -9.344479,-9.33313 z"/><path fill="#FFFFFF" d="M109.03609819921874 177.608165625Q104.16449605078124 177.43165830078127 101.67574277929687 174.8546513671875Q99.1869895078125 172.27764443359376 99.1869895078125 166.48820419921876V155.156433984375Q99.1869895078125 146.22516337890625 93.2563434140625 145.30732529296876V142.8009212890625Q99.1869895078125 141.9536861328125 99.1869895078125 133.58723896484375V121.65534384765625Q99.1869895078125 116.00710947265625 101.58748911718749 113.359499609375Q103.98798872656249 110.71188974609376 109.03609819921874 110.50008095703126V113.78311718750001Q105.6824590390625 113.99492597656251 104.32335264257812 115.97180800781251Q102.96424624609374 117.94869003906251 102.96424624609374 122.71438779296875V133.86965068359376Q102.96424624609374 142.34200224609376 97.38661480078125 144.03647255859374V144.17767841796876Q102.96424624609374 145.94275166015626 102.96424624609374 154.83872080078126V165.35855732421876Q102.96424624609374 170.1948580078125 104.32335264257812 172.1893907714844Q105.6824590390625 174.18392353515625 109.03609819921874 174.32512939453125Z"/><path fill="#FFFFFF" d="M164.683227578125 145.30731529296875Q158.75258148437499 146.22515337890624 158.75258148437499 155.156423984375V166.48819419921875Q158.75258148437499 172.101127109375 156.4050340722656 174.74873697265625Q154.05748666015626 177.3963468359375 148.9387742578125 177.608155625V174.32511939453124Q152.3277148828125 174.18391353515625 153.65151981445314 172.13642857421877Q154.97532474609375 170.08894361328126 154.97532474609375 165.35854732421876V154.83871080078126Q154.97532474609375 145.94274166015626 160.55295619140625 144.17766841796876V144.03646255859374Q154.97532474609375 142.27138931640624 154.97532474609375 133.86964068359376V122.71437779296875Q154.97532474609375 119.572547421875 154.37519984375 117.6662683203125Q153.77507494140625 115.75998921875001 152.55717440429686 114.85980186523437Q151.3392738671875 113.95961451171875 148.9387742578125 113.78310718750001V110.50007095703126Q154.092788125 110.71187974609376 156.4226848046875 113.39479107421876Q158.75258148437499 116.07770240234376 158.75258148437499 121.65533384765625V133.58722896484375Q158.75258148437499 141.9536761328125 164.683227578125 142.8009112890625Z"/><path style="fill:#ffffff;fill-rule:evenodd" d="m 120.74708,143.40375 c 0,-4.46219 3.70146,-8.08417 8.26584,-8.08417 4.57573,0 8.26583,3.62198 8.26583,8.08417 0,4.47354 -3.6901,8.08417 -8.26583,8.08417 -4.56438,0 -8.26584,-3.61063 -8.26584,-8.08417 z"/></g></g>
<path fill="#0D2E4B" d="M373.68981655044047 215.0H343.9126933462668V197.08322016568792H372.5114097236787Q385.3341883514584 197.08322016568792 393.70693915462493 192.24439631724516Q402.0796899577915 187.40557246880243 406.17882899341964 178.17776419620384Q410.2779680290478 168.94995592360527 410.2779680290478 155.87601176535702Q410.2779680290478 142.84730118105074 406.20100581021916 133.69552149420616Q402.12404359139055 124.54374180736157 393.8901791825739 119.73026082083683Q385.6563147737573 114.91677983431208 373.18301731596057 114.91677983431208H343.3361541133599V96.99999999999999H374.53247758494126Q392.0883282757445 96.99999999999999 404.843227124038 104.13384886876048Q417.5981259723314 111.26769773752096 424.4866326235923 124.48211268482592Q431.3751392748532 137.69652763213088 431.3751392748532 155.87645173552852Q431.3751392748532 174.12923837956166 424.4662101182362 187.38008459718435Q417.55728096161914 200.63093081480704 404.67139554740777 207.8154654074035Q391.78551013319634 215.0 373.68981655044047 215.0ZM354.7653353083054 96.99999999999999V215.0H333.782199690646V96.99999999999999Z M438.10364736262585 215.0 480.23524899066695 96.99999999999999H506.54012459364515L548.5101564138528 215.0H525.4363289442638L504.8107099085046 153.00607172818792Q501.6999714896183 143.13536778392407 498.2946168630715 132.1004679635067Q494.88926223652476 121.06556814308934 490.53037699244965 105.99325991636954H496.3590322200084Q491.9431291618603 121.06556814308934 488.50926562827703 132.1004679635067Q485.0754020946938 143.13536778392407 481.85696013789845 153.00607172818792L460.6041161453964 215.0ZM463.132215256659 186.82868521261534V169.5961191471791H523.5100974268561V186.82868521261534Z M610.6338780345533 216.9006711409396Q594.2691273529258 216.9006711409396 581.7991535365982 209.22829008166423Q569.3291797202705 201.55590902238885 562.2887799359007 187.8441494730495Q555.248380151531 174.13238992371015 555.248380151531 156.07919463087248Q555.248380151531 137.52550319185193 562.4202360626834 123.82799809603083Q569.592091973836 110.13049300020973 582.0874086520816 102.61491092963506Q594.5827253303272 95.09932885906039 610.4058067782613 95.09932885906039Q620.3146192717072 95.09932885906039 629.0070033950294 98.05803910837876Q637.6993875183515 101.01674935769714 644.4926907737783 106.47642256973573Q651.2859940292051 111.93609578177433 655.6987165412647 119.43265257969799Q660.1114390533243 126.92920937762163 661.359556876573 136.0840971057047H640.0469785549496Q638.9572499934459 131.08529372247273 636.4134946682309 127.00198491243708Q633.8697393430159 122.91867610240142 630.0604456959154 119.98211366794253Q626.251152048815 117.04555123348364 621.4186602906093 115.46164411506396Q616.5861685324036 113.87773699664429 610.8904581978817 113.87773699664429Q600.3448501074874 113.87773699664429 592.5789764609112 119.10936795433095Q584.8131028143351 124.34099891201761 580.5793271058358 133.80322503211514Q576.3455513973364 143.26545115221268 576.3455513973364 156.07919463087248Q576.3455513973364 168.8137434786598 580.5935815593541 178.25062673683934Q584.8416117213717 187.68750999501887 592.6502487285026 192.90488649918728Q600.4588857356334 198.1222630033557 611.0615116401007 198.1222630033557Q619.8775020317744 198.1222630033557 626.7437258317167 194.54263088559145Q633.609949631659 190.96299876782717 637.5713004502675 184.56876220703123Q641.5326512688758 178.1745256462353 641.5326512688758 169.71645786362205L646.9241892565017 170.09658629142197H614.0678140729866V153.51972508782507H662.1293263684984V167.8095416382655Q662.1293263684984 182.15958555080746 655.4453024230547 193.2341551915111Q648.7612784776112 204.30872483221475 637.1592795557624 210.60469798657718Q625.5572806339136 216.9006711409396 610.6338780345533 216.9006711409396Z M730.6992125235947 159.60180893456376V176.32121467334312H677.752903471057V159.60180893456376Z"/>
<path fill="#058E96" d="M749.6332064020553 215.0V96.99999999999999H779.7837489185717L802.7631460714659 159.04481700922818Q803.9067119009542 162.37729459416946 805.4747597918414 167.22554407311765Q807.0428076827286 172.07379355206587 808.7043046580065 177.3671116361682Q810.3658016332844 182.66042972027054 811.8118915327443 187.43265061346477Q813.2579814322042 192.20487150665898 814.1354544620385 195.38529192009227H809.0068867318582Q809.8843597616925 192.20487150665898 811.3051067992344 187.43265061346477Q812.7258538367764 182.66042972027054 814.373096358536 177.3671116361682Q816.0203388802956 172.07379355206587 817.5741323176646 167.22554407311765Q819.1279257550335 162.37729459416946 820.2208058606858 159.04481700922818L842.8390708564912 96.99999999999999H873.06880800388V215.0H852.4658008140206V154.78640415268455Q852.4658008140206 150.89953514969588 852.5624159435297 145.80259886876047Q852.6590310730389 140.7056625878251 852.8205863799024 135.02903552983432Q852.9821416867659 129.35240847184355 853.1294425401111 123.55382342242555Q853.2767433934564 117.75523837300754 853.3274291172924 112.46507183305368H855.9344908439073Q854.0686607002411 118.4648385067114 852.1394806522651 124.58971471594484Q850.2103006042889 130.71459092517827 848.422089319421 136.3769635296508Q846.6338780345533 142.03933613412332 845.0943390507025 146.75612948628878Q843.5548000668518 151.47292283845428 842.3890574205641 154.78640415268455L819.9197560559983 215.0H802.83927616401L780.1830766306628 154.78640415268455Q779.017333984375 151.47292283845428 777.4239432315699 146.75612948628878Q775.8305524787646 142.03933613412332 774.0027438784605 136.3769635296508Q772.1749352781565 130.71459092517827 770.1808150528261 124.58971471594484Q768.1866948274958 118.4648385067114 766.1909843291212 112.46507183305368H769.425271012479Q769.5266424601509 117.75523837300754 769.6486004515782 123.55382342242555Q769.7705584430054 129.35240847184355 769.9321137498689 135.02903552983432Q770.0936690567323 140.7056625878251 770.1902841862416 145.80259886876047Q770.2868993157508 150.89953514969588 770.2868993157508 154.78640415268455V215.0Z M892.65870975776 215.0V96.99999999999999H913.6418453754194V196.85514890939598H968.3369134070889V215.0Z"/>
<path fill="#FFBE00" d="M1034.1730380269505 159.60180893456376V176.32121467334312H981.2267289744127V159.60180893456376Z M1084.4997371801594 216.69792824559565Q1073.6215638435926 216.69792824559565 1065.4534284553272 211.22241030699456Q1057.2852930670617 205.74689236839345 1052.7854535608485 195.93784654860528Q1048.285614054635 186.1288007288171 1048.285614054635 173.12821708525587Q1048.285614054635 160.2480011600776 1052.828216921403 150.45320979380767Q1057.3708197881713 140.65841842753775 1065.5247007229186 135.1654799902999Q1073.6785816576657 129.67254155306208 1084.3857015520134 129.67254155306208Q1089.8501310822148 129.67254155306208 1094.557469801935 131.1598190410025Q1099.264808521655 132.64709652894294 1103.0614089863413 135.63590595834205Q1106.8580094510278 138.6247153877412 1109.5221179936557 143.2116718881082H1109.651998348364V96.99999999999999H1129.6721342150797V215.0H1109.968776871854V202.2148234322567H1109.8388965171457Q1107.2286252425022 207.07420482251467 1103.3813390539797 210.299007871487Q1099.5340528654572 213.5238109204593 1094.763364241427 215.11086958302747Q1089.9926756173973 216.69792824559565 1084.4997371801594 216.69792824559565ZM1089.210125937238 199.99121568923027Q1095.745316760172 199.99121568923027 1100.592062971896 196.66660246369023Q1105.43880918362 193.34198923815018 1108.0997661820993 187.29147883677643Q1110.760723180579 181.2409684354027 1110.760723180579 173.12821708525587Q1110.760723180579 164.96478001127306 1108.0997661820993 158.94277851693582Q1105.43880918362 152.92077702259857 1100.592062971896 149.59616379705852Q1095.745316760172 146.27155057151845 1089.210125937238 146.27155057151845Q1083.0582440881922 146.27155057151845 1078.38730763685 149.39342090171453Q1073.7163711855076 152.51529123191065 1071.118764091338 158.48660700241192Q1068.5211569971686 164.45792277291315 1068.5211569971686 173.12821708525587Q1068.5211569971686 181.74782567376258 1071.118764091338 187.74765035130034Q1073.7163711855076 193.7474750288381 1078.38730763685 196.86934535903418Q1083.0582440881922 199.99121568923027 1089.210125937238 199.99121568923027Z M1172.9126346869757 216.3526408150692Q1164.5686895383285 216.3526408150692 1158.0525529899855 213.5586519177328Q1151.5364164416424 210.7646630203964 1147.7667491119182 205.17351918060507Q1143.9970817821938 199.58237534081377 1143.9970817821938 191.26693909920303Q1143.9970817821938 184.11724550388004 1146.680201096503 179.47486146248428Q1149.3633204108119 174.8324774210885 1153.9613653195786 172.05908956847736Q1158.5594102283453 169.2857017158662 1164.4958414986631 167.83961181640626Q1170.4322727689807 166.3935219169463 1176.859702050126 165.71561123636744Q1184.6302885119549 164.83495766044462 1189.1808137420041 164.18081406970953Q1193.7313389720534 163.5266704789744 1195.6858618819474 162.20253857094167Q1197.6403847918416 160.87840666290896 1197.6403847918416 158.02421940541106V157.4033265389052Q1197.6403847918416 153.80784969457844 1195.8188937808045 151.0676835642565Q1193.9974027697674 148.32751743393456 1190.5809162319108 146.76419685927013Q1187.1644296940542 145.2008762846057 1182.3588565698408 145.2008762846057Q1177.5469513553903 145.2008762846057 1173.8707041081168 146.75627449598886Q1170.1944568608433 148.31167270737205 1168.0403425997538 151.05341460976825Q1165.886228338664 153.79515651216443 1165.5694498151743 157.36527599360318H1146.3665596161914Q1146.8765683986999 149.02769193713297 1151.3748176318688 142.82042604996855Q1155.8730668650378 136.6131601628041 1163.8669537640258 133.14285085793307Q1171.860840663014 129.67254155306208 1182.8149990824247 129.67254155306208Q1190.956172333788 129.67254155306208 1197.3978415674812 131.63815287135589Q1203.8395108011746 133.60376418964972 1208.3108268993815 137.30373502385694Q1212.7821429975882 141.00370585806417 1215.1136282901637 146.2289612226038Q1217.4451135827392 151.45421658714343 1217.4451135827392 157.97350467963506V215.0H1197.8114382340605V203.1778231832005H1197.4946597105707Q1195.5338192114095 206.8999418322672 1192.3755466128357 209.89191730678482Q1189.2172740142619 212.88389278130242 1184.4671719339872 214.6182667981858Q1179.7170698537125 216.3526408150692 1172.9126346869757 216.3526408150692ZM1177.8352499737837 201.54969293991192Q1184.332448255296 201.54969293991192 1188.7816310396133 199.17858132996014Q1193.2308138239305 196.80746972000838 1195.492617121959 192.8540412646812Q1197.7544204199876 188.90061280935402 1197.7544204199876 184.06337923395554V174.97811549653943Q1196.8199295760803 175.5768315462458 1195.0063609283243 176.12486187211618Q1193.1927922805685 176.67289219798658 1190.6997226791896 177.18132520842073Q1188.2066530778106 177.68975821885488 1185.2954335052696 178.17284836737102Q1182.3842139327287 178.65593851588716 1179.3051069630874 179.10259739408556Q1175.0444126205957 179.70764553402893 1171.441027913958 181.09514184734164Q1167.8376432073198 182.48263816065435 1165.658186084312 184.88066840459834Q1163.4787289613046 187.27869864854236 1163.4787289613046 191.0895825686871Q1163.4787289613046 194.3429235266359 1165.2495342485058 196.69819041002518Q1167.0203395357069 199.05345729341443 1170.245171586619 200.30157511666317Q1173.4700036375316 201.54969293991192 1177.8352499737837 201.54969293991192Z M1279.2802175637062 131.37046979865772V147.4372932178062H1227.5948935284714V131.37046979865772ZM1242.1983950621332 108.56241610738255H1262.2185309288488V191.02001658190017Q1262.2185309288488 195.45176436661075 1264.0384316668417 197.19247047373113Q1265.8583324048345 198.93317658085152 1270.720894341181 198.93317658085152Q1272.656406479394 198.93317658085152 1275.1826978030622 198.93317658085152Q1277.7089891267306 198.93317658085152 1279.2802175637062 198.93317658085152V215.0Q1277.1926482539852 215.0 1273.8395841252886 215.0Q1270.486519996592 215.0 1267.2300854983748 215.0Q1254.4069743930895 215.0 1248.3026847276114 209.83177695050335Q1242.1983950621332 204.6635539010067 1242.1983950621332 193.92798310350253Z M1317.3636413983852 216.3526408150692Q1309.019696249738 216.3526408150692 1302.5035597013948 213.5586519177328Q1295.9874231530519 210.7646630203964 1292.2177558233275 205.17351918060507Q1288.4480884936033 199.58237534081377 1288.4480884936033 191.26693909920303Q1288.4480884936033 184.11724550388004 1291.1312078079122 179.47486146248428Q1293.8143271222214 174.8324774210885 1298.412372030988 172.05908956847736Q1303.0104169397548 169.2857017158662 1308.9468482100724 167.83961181640626Q1314.8832794803902 166.3935219169463 1321.3107087615356 165.71561123636744Q1329.0812952233644 164.83495766044462 1333.6318204534136 164.18081406970953Q1338.182345683463 163.5266704789744 1340.1368685933571 162.20253857094167Q1342.091391503251 160.87840666290896 1342.091391503251 158.02421940541106V157.4033265389052Q1342.091391503251 153.80784969457844 1340.269900492214 151.0676835642565Q1338.448409481177 148.32751743393456 1335.0319229433203 146.76419685927013Q1331.6154364054637 145.2008762846057 1326.8098632812503 145.2008762846057Q1321.9979580667998 145.2008762846057 1318.3217108195263 146.75627449598886Q1314.6454635722528 148.31167270737205 1312.491349311163 151.05341460976825Q1310.3372350500736 153.79515651216443 1310.0204565265838 157.36527599360318H1290.8175663276008Q1291.3275751101094 149.02769193713297 1295.8258243432783 142.82042604996855Q1300.3240735764473 136.6131601628041 1308.3179604754355 133.14285085793307Q1316.3118473744235 129.67254155306208 1327.2660057938342 129.67254155306208Q1335.4071790451974 129.67254155306208 1341.8488482788907 131.63815287135589Q1348.290517512584 133.60376418964972 1352.7618336107907 137.30373502385694Q1357.2331497089976 141.00370585806417 1359.5646350015732 146.2289612226038Q1361.8961202941487 151.45421658714343 1361.8961202941487 157.97350467963506V215.0H1342.26244494547V203.1778231832005H1341.9456664219801Q1339.984825922819 206.8999418322672 1336.8265533242452 209.89191730678482Q1333.6682807256714 212.88389278130242 1328.9181786453967 214.6182667981858Q1324.168076565122 216.3526408150692 1317.3636413983852 216.3526408150692ZM1322.2862566851932 201.54969293991192Q1328.7834549667054 201.54969293991192 1333.2326377510226 199.17858132996014Q1337.68182053534 196.80746972000838 1339.9436238333685 192.8540412646812Q1342.205427131397 188.90061280935402 1342.205427131397 184.06337923395554V174.97811549653943Q1341.2709362874898 175.5768315462458 1339.457367639734 176.12486187211618Q1337.643798991978 176.67289219798658 1335.150729390599 177.18132520842073Q1332.6576597892201 177.68975821885488 1329.7464402166793 178.17284836737102Q1326.8352206441382 178.65593851588716 1323.7561136744969 179.10259739408556Q1319.4954193320052 179.70764553402893 1315.8920346253672 181.09514184734164Q1312.2886499187293 182.48263816065435 1310.1091927957218 184.88066840459834Q1307.929735672714 187.27869864854236 1307.929735672714 191.0895825686871Q1307.929735672714 194.3429235266359 1309.700540959915 196.69819041002518Q1311.4713462471163 199.05345729341443 1314.6961782980288 200.30157511666317Q1317.921010348941 201.54969293991192 1322.2862566851932 201.54969293991192Z"/>
</svg>
