<svg xmlns="http://www.w3.org/2000/svg" xmlns:xlink="http://www.w3.org/1999/xlink" width="512.00" height="512.00" viewBox="0 0 82.2930 82.2930">
<g transform="translate(-87.13875,-102.255)"><g><path style="fill:#FFBE00;fill-rule:evenodd" d="m 87.13875,111.60073 c 0,-5.15479 4.189687,-9.34448 9.344479,-9.34448 h 63.617391 c 5.1548,0 9.33313,4.18969 9.33313,9.34448 v 63.61739 c 0,5.1548 -4.17833,9.33313 -9.33313,9.33313 H 96.483229 c -5.154792,0 -9.344479,-4.17833 -9.344479,-9.33313 z"/><path fill="#FFFFFF" d="M109.03609819921874 177.608165625Q104.16449605078124 177.43165830078127 101.67574277929687 174.8546513671875Q99.1869895078125 172.27764443359376 99.1869895078125 166.48820419921876V155.156433984375Q99.1869895078125 146.22516337890625 93.2563434140625 145.30732529296876V142.8009212890625Q99.1869895078125 141.9536861328125 99.1869895078125 133.58723896484375V121.65534384765625Q99.1869895078125 116.00710947265625 101.58748911718749 113.359499609375Q103.98798872656249 110.71188974609376 109.03609819921874 110.50008095703126V113.78311718750001Q105.6824590390625 113.99492597656251 104.32335264257812 115.97180800781251Q102.96424624609374 117.94869003906251 102.96424624609374 122.71438779296875V133.86965068359376Q102.96424624609374 142.34200224609376 97.38661480078125 144.03647255859374V144.17767841796876Q102.96424624609374 145.94275166015626 102.96424624609374 154.83872080078126V165.35855732421876Q102.96424624609374 170.1948580078125 104.32335264257812 172.1893907714844Q105.6824590390625 174.18392353515625 109.03609819921874 174.32512939453125Z"/><path fill="#FFFFFF" d="M164.683227578125 145.30731529296875Q158.75258148437499 146.22515337890624 158.75258148437499 155.156423984375V166.48819419921875Q158.75258148437499 172.101127109375 156.4050340722656 174.74873697265625Q154.05748666015626 177.3963468359375 148.9387742578125 177.608155625V174.32511939453124Q152.3277148828125 174.18391353515625 153.65151981445314 172.13642857421877Q154.97532474609375 170.08894361328126 154.97532474609375 165.35854732421876V154.83871080078126Q154.97532474609375 145.94274166015626 160.55295619140625 144.17766841796876V144.03646255859374Q154.97532474609375 142.27138931640624 154.97532474609375 133.86964068359376V122.71437779296875Q154.97532474609375 119.572547421875 154.37519984375 117.6662683203125Q153.77507494140625 115.75998921875001 152.55717440429686 114.85980186523437Q151.3392738671875 113.95961451171875 148.9387742578125 113.78310718750001V110.50007095703126Q154.092788125 110.71187974609376 156.4226848046875 113.39479107421876Q158.75258148437499 116.07770240234376 158.75258148437499 121.65533384765625V133.58722896484375Q158.75258148437499 141.9536761328125 164.683227578125 142.8009112890625Z"/><path style="fill:#ffffff;fill-rule:evenodd" d="m 120.74708,143.40375 c 0,-4.46219 3.70146,-8.08417 8.26584,-8.08417 4.57573,0 8.26583,3.62198 8.26583,8.08417 0,4.47354 -3.6901,8.08417 -8.26583,8.08417 -4.56438,0 -8.26584,-3.61063 -8.26584,-8.08417 z"/></g></g>
</svg>
