<svg xmlns="http://www.w3.org/2000/svg" xmlns:xlink="http://www.w3.org/1999/xlink" width="325.30" height="407.37" viewBox="0 0 325.2966 407.3683">
<g transform="translate(42.648322147651015,24.0) scale(2.9164084430024424) translate(-87.13875,-102.255)"><g><path style="fill:#FFBE00;fill-rule:evenodd" d="m 87.13875,111.60073 c 0,-5.15479 4.189687,-9.34448 9.344479,-9.34448 h 63.617391 c 5.1548,0 9.33313,4.18969 9.33313,9.34448 v 63.61739 c 0,5.1548 -4.17833,9.33313 -9.33313,9.33313 H 96.483229 c -5.154792,0 -9.344479,-4.17833 -9.344479,-9.33313 z"/><path fill="#FFFFFF" d="M109.03609819921874 177.608165625Q104.16449605078124 177.43165830078127 101.67574277929687 174.8546513671875Q99.1869895078125 172.27764443359376 99.1869895078125 166.48820419921876V155.156433984375Q99.1869895078125 146.22516337890625 93.2563434140625 145.30732529296876V142.8009212890625Q99.1869895078125 141.9536861328125 99.1869895078125 133.58723896484375V121.65534384765625Q99.1869895078125 116.00710947265625 101.58748911718749 113.359499609375Q103.98798872656249 110.71188974609376 109.03609819921874 110.50008095703126V113.78311718750001Q105.6824590390625 113.99492597656251 104.32335264257812 115.97180800781251Q102.96424624609374 117.94869003906251 102.96424624609374 122.71438779296875V133.86965068359376Q102.96424624609374 142.34200224609376 97.38661480078125 144.03647255859374V144.17767841796876Q102.96424624609374 145.94275166015626 102.96424624609374 154.83872080078126V165.35855732421876Q102.96424624609374 170.1948580078125 104.32335264257812 172.1893907714844Q105.6824590390625 174.18392353515625 109.03609819921874 174.32512939453125Z"/><path fill="#FFFFFF" d="M164.683227578125 145.30731529296875Q158.75258148437499 146.22515337890624 158.75258148437499 155.156423984375V166.48819419921875Q158.75258148437499 172.101127109375 156.4050340722656 174.74873697265625Q154.05748666015626 177.3963468359375 148.9387742578125 177.608155625V174.32511939453124Q152.3277148828125 174.18391353515625 153.65151981445314 172.13642857421877Q154.97532474609375 170.08894361328126 154.97532474609375 165.35854732421876V154.83871080078126Q154.97532474609375 145.94274166015626 160.55295619140625 144.17766841796876V144.03646255859374Q154.97532474609375 142.27138931640624 154.97532474609375 133.86964068359376V122.71437779296875Q154.97532474609375 119.572547421875 154.37519984375 117.6662683203125Q153.77507494140625 115.75998921875001 152.55717440429686 114.85980186523437Q151.3392738671875 113.95961451171875 148.9387742578125 113.78310718750001V110.50007095703126Q154.092788125 110.71187974609376 156.4226848046875 113.39479107421876Q158.75258148437499 116.07770240234376 158.75258148437499 121.65533384765625V133.58722896484375Q158.75258148437499 141.9536761328125 164.683227578125 142.8009112890625Z"/><path style="fill:#ffffff;fill-rule:evenodd" d="m 120.74708,143.40375 c 0,-4.46219 3.70146,-8.08417 8.26584,-8.08417 4.57573,0 8.26583,3.62198 8.26583,8.08417 0,4.47354 -3.6901,8.08417 -8.26583,8.08417 -4.56438,0 -8.26584,-3.61063 -8.26584,-8.08417 z"/></g></g>
<path fill="#FFFFFF" d="M63.34134955694211 382.0H39.56960531145134V365.9860751363255H62.3336825582005Q71.63094375450537 365.9860751363255 77.68096456614217 362.51905796127835Q83.73098537777895 359.05204078623115 86.68798098980182 352.33536499842705Q89.64497660182467 345.6186892106229 89.64497660182467 335.9477857737929Q89.64497660182467 326.2676946243184 86.68304410588821 319.5936248984113Q83.72111160995176 312.9195551725042 77.70157961369162 309.46674001808935Q71.6820476174315 306.0139248636745 62.501672281354864 306.0139248636745H39.14232743026426V290.0H63.709384831166105Q77.54147457660444 290.0 87.65823343050286 295.59532478895767Q97.77499228440129 301.1906495779153 103.26794244437136 311.50452741584525Q108.76089260434144 321.81840525377515 108.76089260434144 335.9481288013842Q108.76089260434144 350.1013195063444 103.27424709652894 360.42693092294985Q97.78760158871644 370.75254233955536 87.63539946598428 376.3762711697777Q77.48319734325213 382.0 63.34134955694211 382.0ZM49.85362442323826 290.0V382.0H30.871072121434565V290.0Z"/>
<path fill="#058E96" d="M119.5368439335151 382.0V290.0H147.23388950424706L162.43830107618498 332.86155882969797Q163.37434934065647 335.7709436608641 164.65246336252096 339.9899236282246Q165.9305773843855 344.2089035955851 167.2871068352821 348.82489759201974Q168.6436362861787 353.4408915884543 169.80999395383284 357.6172654939178Q170.976351621487 361.7936393993813 171.69382406145132 364.6178121067534H166.96177937552432Q167.67925181548867 361.7936393993813 168.83140746251047 357.6172654939178Q169.9835631095323 353.4408915884543 171.32342209783977 348.82489759201974Q172.66328108614724 344.2089035955851 173.9247246454226 339.9899236282246Q175.186168204698 335.7709436608641 176.09381242790477 332.86155882969797L191.06111790189806 290.0H218.819908439073V382.0H200.1892956624895V338.25453544463085Q200.1892956624895 335.1907542798343 200.28684999606753 330.9279170708368Q200.38440432964555 326.66507986183933 200.52703316707738 321.81691665137373Q200.66966200450923 316.96875344090813 200.79562037935193 312.0088338762322Q200.92157875419463 307.0489143115562 200.9499827954593 302.5909684354027H203.2271073104551Q201.81684685009438 307.44657088926175 200.30162673028525 312.5719778176122Q198.7864066104761 317.69738474596267 197.35886705641778 322.5288774938391Q195.93132750235947 327.3603702417156 194.68655440567323 331.41017714122796Q193.441781308987 335.4599840407403 192.5106699284291 338.25453544463085L176.91489159500838 382.0H161.50854262793624L145.75593343645136 338.25453544463085Q144.82482205589346 335.4599840407403 143.53250601339658 331.41017714122796Q142.24018997089973 327.3603702417156 140.78177793361996 322.5288774938391Q139.3233658963402 317.69738474596267 137.76307127267722 312.5719778176122Q136.20277664901425 307.44657088926175 134.70236718094588 302.5909684354027H137.43517361839346Q137.49198170092282 307.0489143115562 137.6037380551332 312.0088338762322Q137.71549440934353 316.96875344090813 137.8581232467754 321.81691665137373Q138.00075208420722 326.66507986183933 138.09830641778524 330.9279170708368Q138.19586075136326 335.1907542798343 138.19586075136326 338.25453544463085V382.0Z"/>
<path fill="#FFBE00" d="M257.512091678901 383.3682630295721Q249.01969035103815 383.3682630295721 242.6624272493708 379.11032878696517Q236.30516414770344 374.8523945443582 232.80237152304426 367.19355026347523Q229.29957889838505 359.5347059825923 229.29957889838505 349.33197586776424Q229.29957889838505 339.3008872627412 232.85238291081163 331.65871344444736Q236.40518692323823 324.01653962615353 242.74577956231647 319.7227960164115Q249.0863722013947 315.4290524066695 257.3787279781879 315.4290524066695Q261.63913066275165 315.4290524066695 265.2147932014209 316.56639740195055Q268.7904557400902 317.70374239723157 271.6560511646654 319.99510285038275Q274.52164658924073 322.286463303534 276.5876345231229 325.8293935481334H276.67778353083054V290.0H294.84284061713504V382.0H276.9247633966023V371.9874416684144H276.8346143888947Q274.9550786165583 375.78722554661283 272.06107915071834 378.3237060546875Q269.16707968487833 380.8601865627622 265.4864574867607 382.11422479616715Q261.80583528864304 383.3682630295721 257.512091678901 383.3682630295721ZM262.21816684799705 368.5533942100986Q266.83551377674075 368.5533942100986 270.28092360528524 366.17803889537015Q273.72633343382967 363.80268358064177 275.63427324743077 359.4743139484585Q277.5422130610319 355.1459443162752 277.5422130610319 349.33197586776424Q277.5422130610319 343.48960337798866 275.63427324743077 339.1945746709836Q273.72633343382967 334.8995459639786 270.28092360528524 332.5241906492502Q266.83551377674075 330.14883533452183 262.21816684799705 330.14883533452183Q257.8329891332844 330.14883533452183 254.5468786047609 332.4105744841915Q251.2607680762374 334.67231363386117 249.45778792208472 338.93893829960155Q247.65480776793203 343.20556296534187 247.65480776793203 349.33197586776424Q247.65480776793203 355.42998472892197 249.45778792208472 359.72995031984055Q251.2607680762374 364.0299159107592 254.5468786047609 366.29165506042887Q257.8329891332844 368.5533942100986 262.21816684799705 368.5533942100986Z"/>
</svg>
