<svg xmlns="http://www.w3.org/2000/svg" xmlns:xlink="http://www.w3.org/1999/xlink" width="288.00" height="407.48" viewBox="0 0 288.0000 407.4819">
<defs><defs
     id="defs1">
    <clipPath
       clipPathUnits="userSpaceOnUse"
       id="nirs4all_device_clip">
      <path
         d="M 75.196094,-0.47997507 H 381.42019 V 303.18425 H 75.196094 Z"
         id="path1" />
    </clipPath>
  </defs></defs><g transform="translate(24.0,24.0) scale(0.7810408580046241) translate(0,0)"><g
     id="g8"
     transform="translate(-0.25127103,1.1057433)">
    <g
       id="g9">
      <path
         style="fill:#10B981;fill-opacity:1;fill-rule:evenodd;stroke:none"
         d="M 1.5315373,35.750606 C 1.5315373,16.791591 16.89074,1.4323885 35.849755,1.4323885 H 269.47762 c 18.91901,0 34.27821,15.3592025 34.27821,34.3182175 V 269.53846 c 0,18.91902 -15.3592,34.27822 -34.27821,34.27822 H 35.849755 c -18.959015,0 -34.3182177,-15.3592 -34.3182177,-34.27822 z"
         id="path2"
         transform="matrix(1.0163665,0,0,1.019436,-1.1937273,-2.5659717)" />
      <path
         style="fill:none;stroke:#ffffff;stroke-width:19.359px;stroke-linecap:butt;stroke-linejoin:miter;stroke-miterlimit:8;stroke-dasharray:none;stroke-opacity:1"
         clip-path="url(#nirs4all_device_clip)"
         d="m 78.350886,215.76355 c 4.917688,0.027 13.251861,-0.0312 22.323884,-1.53468 6.67965,-1.47992 11.15942,-3.51981 16.79913,-8.67955 5.6797,-5.15973 10.19947,-8.15957 17.11911,-22.35883 6.95964,-14.15927 19.159,-49.59743 24.47873,-62.67675 5.27972,-13.11932 3.63981,-9.91948 7.31962,-15.83918 3.67981,-5.959687 11.4794,-8.59955 16.51914,-6.839641 5.03974,1.759908 9.39951,4.999741 13.71929,17.319101 4.35977,12.35936 6.23967,27.03859 9.4795,37.67804 3.27983,10.67945 4.39978,18.47904 10.11948,26.35863 5.6797,7.87959 12.48129,8.96263 20.43894,4.99974 6.87614,-5.69367 24.35873,-49.63742 26.59862,-51.67731 2.23988,-2.0399 14.71923,-18.23906 34.23822,6.47966 8.91953,11.39941 25.55867,37.55805 38.79798,52.55727"
         id="path3"
         transform="translate(-78.046472,1.0051295)" />
      <path
         style="fill:#ffffff;fill-opacity:1;fill-rule:evenodd;stroke:none"
         d="m 245.65157,200.51477 c 0,-13.5593 10.99943,-24.55873 24.55873,-24.55873 13.59929,0 24.55872,10.99943 24.55872,24.55873 0,13.59929 -10.95943,24.55872 -24.55872,24.55872 -13.5593,0 -24.55873,-10.95943 -24.55873,-24.55872 z"
         id="path4" />
    </g>
  </g></g>
<path fill="#000000" d="M54.5683328308515 345.7753843985948V382.0H36.403275744546974V316.7973154362416H54.28801203990142V333.7709592268771H51.190889949926586Q54.30160542942533 325.10813365142616 60.02968528798762 320.2685930290478Q65.7577651465499 315.4290524066695 74.64281833315854 315.4290524066695Q81.6162799195155 315.4290524066695 86.74976863989093 318.4335570469799Q91.88325736026636 321.43806168729026 94.708106533793 327.1803435664849Q97.53295570731963 332.9226254456795 97.53295570731963 341.1618927616401V382.0H79.36789862101509V344.50342452286077Q79.36789862101509 337.9447968553377 76.24047876140415 334.53705620477666Q73.1130589017932 331.1293155542156 67.36577230363883 331.1293155542156Q63.61163764287961 331.1293155542156 60.72193251232172 332.6766593369862Q57.832227381763836 334.22400311975673 56.20028010630767 337.46317933357807Q54.5683328308515 340.70235554739935 54.5683328308515 345.7753843985948Z"/>
<path fill="#E9362D" d="M107.60009110213926 362.1723586933725V347.4995100802223L148.09011410706796 290.0H159.98322196806836V308.14044050178273H153.40695121489506L125.89736246198615 347.2947362972821V347.4253889864723H183.38693093933514V362.1723586933725ZM153.48776003434352 382.0V357.72185206061243V351.1325214974832V290.0H171.37621595139473V382.0Z"/>
<path fill="#10B981" d="M223.2372543847001 383.4818791946309Q213.36671625943794 383.4818791946309 206.02217624331485 379.11465703977035Q198.67763622719173 374.7474348849098 194.64632568359377 367.04351610017306Q190.61501513999582 359.33959731543627 190.61501513999582 349.4554658006502Q190.61501513999582 339.48118527815643 194.71486734479868 331.77973493537644Q198.81471954960153 324.07828459259645 206.03330119088196 319.6968604171036Q213.25188283216235 315.31543624161077 222.62967848809774 315.31543624161077Q229.82171589896186 315.31543624161077 235.7029069938916 317.7685644367397Q241.58409808882132 320.2216926318687 245.84078115168836 324.7408087608798Q250.09746421455537 329.25992488989095 252.39930706664222 335.443686670905Q254.70114991872904 341.62744845191907 254.70114991872904 349.08871562368915V353.9911845572043H197.1056080248532V342.37582729262795H245.93471761613887L237.72649237101513 345.1247294790793Q237.72649237101513 340.1900012125105 235.93277735358117 336.61491338742655Q234.13906233614725 333.0398255623427 230.85048336566695 331.10409033858537Q227.56190439518667 329.16835511482805 222.99642866505874 329.16835511482805Q218.49269790137376 329.16835511482805 215.20165048893668 331.10409033858537Q211.9106030764996 333.0398255623427 210.11688805906567 336.61491338742655Q208.32317304163172 340.1900012125105 208.32317304163172 345.1247294790793V353.0711642066904Q208.32317304163172 358.10097836488046 210.1384954055684 361.8872366886011Q211.95381776950506 365.6734950123217 215.41589806063865 367.7561873263161Q218.87797835177224 369.8388796403104 223.77070918755246 369.8388796403104Q227.33467206506924 369.8388796403104 230.10396433580644 368.80463449362935Q232.87325660654363 367.7703893469484 234.7385903582477 365.8939306476772Q236.60392410995178 364.01747194840607 237.42513894714767 361.521703773857H254.05651347525168Q252.8549550715709 367.9913318608431 248.53159015834734 372.9315378073878Q244.20822524512374 377.8717437539325 237.67316648752097 380.6768114742817Q231.13810772991823 383.4818791946309 223.2372543847001 383.4818791946309Z"/>
</svg>
