<svg xmlns="http://www.w3.org/2000/svg" xmlns:xlink="http://www.w3.org/1999/xlink" width="288.00" height="406.00" viewBox="0 0 288.0000 406.0000">
<defs><defs
     id="defs1">
    <clipPath
       clipPathUnits="userSpaceOnUse"
       id="nirs4all_io_clip">
      <path
         d="M 75.196094,-0.47997507 H 381.42019 V 303.18425 H 75.196094 Z"
         id="path1" />
    </clipPath>
  </defs></defs><g transform="translate(24.0,24.0) scale(0.7810408580046241) translate(0,0)"><g
     id="g8"
     transform="translate(-0.25127103,1.1057433)">
    <g
       id="g9">
      <path
         style="fill:#CC99FF;fill-opacity:1;fill-rule:evenodd;stroke:none"
         d="M 1.5315373,35.750606 C 1.5315373,16.791591 16.89074,1.4323885 35.849755,1.4323885 H 269.47762 c 18.91901,0 34.27821,15.3592025 34.27821,34.3182175 V 269.53846 c 0,18.91902 -15.3592,34.27822 -34.27821,34.27822 H 35.849755 c -18.959015,0 -34.3182177,-15.3592 -34.3182177,-34.27822 z"
         id="path2"
         transform="matrix(1.0163665,0,0,1.019436,-1.1937273,-2.5659717)" />
      <path
         style="fill:none;stroke:#ffffff;stroke-width:19.359px;stroke-linecap:butt;stroke-linejoin:miter;stroke-miterlimit:8;stroke-dasharray:none;stroke-opacity:1"
         clip-path="url(#nirs4all_io_clip)"
         d="m 78.350886,215.76355 c 4.917688,0.027 13.251861,-0.0312 22.323884,-1.53468 6.67965,-1.47992 11.15942,-3.51981 16.79913,-8.67955 5.6797,-5.15973 10.19947,-8.15957 17.11911,-22.35883 6.95964,-14.15927 19.159,-49.59743 24.47873,-62.67675 5.27972,-13.11932 3.63981,-9.91948 7.31962,-15.83918 3.67981,-5.959687 11.4794,-8.59955 16.51914,-6.839641 5.03974,1.759908 9.39951,4.999741 13.71929,17.319101 4.35977,12.35936 6.23967,27.03859 9.4795,37.67804 3.27983,10.67945 4.39978,18.47904 10.11948,26.35863 5.6797,7.87959 12.48129,8.96263 20.43894,4.99974 6.87614,-5.69367 24.35873,-49.63742 26.59862,-51.67731 2.23988,-2.0399 14.71923,-18.23906 34.23822,6.47966 8.91953,11.39941 25.55867,37.55805 38.79798,52.55727"
         id="path3"
         transform="translate(-78.046472,1.0051295)" />
      <path
         style="fill:#ffffff;fill-opacity:1;fill-rule:evenodd;stroke:none"
         d="m 245.65157,200.51477 c 0,-13.5593 10.99943,-24.55873 24.55873,-24.55873 13.59929,0 24.55872,10.99943 24.55872,24.55873 0,13.59929 -10.95943,24.55872 -24.55872,24.55872 -13.5593,0 -24.55873,-10.95943 -24.55873,-24.55872 z"
         id="path4" />
    </g>
  </g></g>
<path fill="#000000" d="M74.5428294751468 345.7753843985948V382.0H56.377772388842274V316.7973154362416H74.26250868419672V333.7709592268771H71.16538659422189Q74.27610207372064 325.10813365142616 80.00418193228292 320.2685930290478Q85.7322617908452 315.4290524066695 94.61731497745384 315.4290524066695Q101.5907765638108 315.4290524066695 106.72426528418623 318.4335570469799Q111.85775400456166 321.43806168729026 114.6826031780883 327.1803435664849Q117.50745235161493 332.9226254456795 117.50745235161493 341.1618927616401V382.0H99.34239526531039V344.50342452286077Q99.34239526531039 337.9447968553377 96.21497540569945 334.53705620477666Q93.0875555460885 331.1293155542156 87.34026894793413 331.1293155542156Q83.5861342871749 331.1293155542156 80.69642915661701 332.6766593369862Q77.80672402605913 334.22400311975673 76.17477675060297 337.46317933357807Q74.5428294751468 340.70235554739935 74.5428294751468 345.7753843985948Z"/>
<path fill="#E9362D" d="M127.57458774643456 362.1723586933725V347.4995100802223L168.06461075136326 290.0H179.95771861236366V308.14044050178273H173.38144785919036L145.87185910628145 347.2947362972821V347.4253889864723H203.36142758363044V362.1723586933725ZM173.46225667863882 382.0V357.72185206061243V351.1325214974832V290.0H191.35071259569003V382.0Z"/>
<path fill="#CC99FF" d="M213.45696701971477 382.0V316.7973154362416H231.6220241060193V382.0ZM222.50615463768875 308.61221817323826Q218.00871369022653 308.61221817323826 215.0591912391202 305.83703114468483Q212.10966878801383 303.0618441161314 212.10966878801383 298.8898503196234Q212.10966878801383 294.7185191314492 215.0591912391202 291.9690422314126Q218.00871369022653 289.21956533137586 222.47738028439497 289.21956533137586Q226.99406960652865 289.21956533137586 229.94835504694618 291.96546998942915Q232.90264048736367 294.71137464748244 232.90264048736367 298.9180446014187Q232.90264048736367 303.0799234479866 229.94443473161647 305.84607081061245Q226.98622897586924 308.61221817323826 222.50615463768875 308.61221817323826Z"/>
</svg>
