<svg xmlns="http://www.w3.org/2000/svg" xmlns:xlink="http://www.w3.org/1999/xlink" width="1656.26" height="312.00" viewBox="0 0 1656.2564 312.0000">
<defs><defs
     id="defs1">
    <clipPath
       clipPathUnits="userSpaceOnUse"
       id="nirs4all_providers_clip">
      <path
         d="M 75.196094,-0.47997507 H 381.42019 V 303.18425 H 75.196094 Z"
         id="path1" />
    </clipPath>
  </defs></defs><g transform="translate(28.0,28.0) scale(0.8331102485382658) translate(0,0)"><g
     id="g8"
     transform="translate(-0.25127103,1.1057433)">
    <g
       id="g9">
      <path
         style="fill:#D946EF;fill-opacity:1;fill-rule:evenodd;stroke:none"
         d="M 1.5315373,35.750606 C 1.5315373,16.791591 16.89074,1.4323885 35.849755,1.4323885 H 269.47762 c 18.91901,0 34.27821,15.3592025 34.27821,34.3182175 V 269.53846 c 0,18.91902 -15.3592,34.27822 -34.27821,34.27822 H 35.849755 c -18.959015,0 -34.3182177,-15.3592 -34.3182177,-34.27822 z"
         id="path2"
         transform="matrix(1.0163665,0,0,1.019436,-1.1937273,-2.5659717)" />
      <path
         style="fill:none;stroke:#ffffff;stroke-width:19.359px;stroke-linecap:butt;stroke-linejoin:miter;stroke-miterlimit:8;stroke-dasharray:none;stroke-opacity:1"
         clip-path="url(#nirs4all_providers_clip)"
         d="m 78.350886,215.76355 c 4.917688,0.027 13.251861,-0.0312 22.323884,-1.53468 6.67965,-1.47992 11.15942,-3.51981 16.79913,-8.67955 5.6797,-5.15973 10.19947,-8.15957 17.11911,-22.35883 6.95964,-14.15927 19.159,-49.59743 24.47873,-62.67675 5.27972,-13.11932 3.63981,-9.91948 7.31962,-15.83918 3.67981,-5.959687 11.4794,-8.59955 16.51914,-6.839641 5.03974,1.759908 9.39951,4.999741 13.71929,17.319101 4.35977,12.35936 6.23967,27.03859 9.4795,37.67804 3.27983,10.67945 4.39978,18.47904 10.11948,26.35863 5.6797,7.87959 12.48129,8.96263 20.43894,4.99974 6.87614,-5.69367 24.35873,-49.63742 26.59862,-51.67731 2.23988,-2.0399 14.71923,-18.23906 34.23822,6.47966 8.91953,11.39941 25.55867,37.55805 38.79798,52.55727"
         id="path3"
         transform="translate(-78.046472,1.0051295)" />
      <path
         style="fill:#ffffff;fill-opacity:1;fill-rule:evenodd;stroke:none"
         d="m 245.65157,200.51477 c 0,-13.5593 10.99943,-24.55873 24.55873,-24.55873 13.59929,0 24.55872,10.99943 24.55872,24.55873 0,13.59929 -10.95943,24.55872 -24.55872,24.55872 -13.5593,0 -24.55873,-10.95943 -24.55873,-24.55872 z"
         id="path4" />
    </g>
  </g></g>
<path fill="#000000" d="M352.85830307518876 167.71123472892197V215.0H332.8381672084732V131.37046979865772H352.51301564466235V152.64210704829068H348.59763773463715Q352.6302318188968 141.45981936870805 359.9699896281197 135.56618046088505Q367.3097474373427 129.67254155306208 378.20688804268036 129.67254155306208Q386.9943115234375 129.67254155306208 393.7068588768876 133.46912751677854Q400.4194062303377 137.26571348049498 404.2207630131869 144.63081415163592Q408.02211979603607 151.99591482277685 408.02211979603607 162.7632330772861V215.0H388.0019839293205V165.93726339660236Q388.0019839293205 156.71260666815226 383.5987305506764 151.96406585898174Q379.1954771720323 147.21552504981122 371.1397436359585 147.21552504981122Q365.8970242698721 147.21552504981122 361.7630297360004 149.35696062945678Q357.62903520212876 151.49839620910234 355.2436691386588 156.02360757917364Q352.85830307518876 160.54881894924495 352.85830307518876 167.71123472892197Z M425.733469221896 215.0V131.37046979865772H445.75360508861155V215.0ZM435.71502824821727 118.93358719588926Q430.60227624265934 118.93358719588926 427.1826816635644 115.6599563642797Q423.76308708446936 112.38632553267013 423.76308708446936 107.55806576790289Q423.76308708446936 102.72416123767826 427.1826816635644 99.47562010080222Q430.60227624265934 96.22707896392616 435.67812201247085 96.22707896392616Q440.8196348517647 96.22707896392616 444.24330213186494 99.47256557504829Q447.66696941196517 102.71805218617044 447.66696941196517 107.59497305416396Q447.66696941196517 112.40799601510066 444.23827390133334 115.67079160549497Q440.8095783907015 118.93358719588926 435.71502824821727 118.93358719588926Z M463.430113517198 215.0V131.37046979865772H482.70265670878774V145.25801010643875H482.96241741820467Q485.2590617135067 138.0513276989828 490.19130564440013 134.30541295813234Q495.1235495752936 130.55949821728188 503.24890710203437 130.55949821728188Q505.24143705432044 130.55949821728188 506.8997679844798 130.66086966495385Q508.55809891463923 130.76224111262582 509.74916992187497 130.8636125602978V148.60303586409395Q508.6436256357487 148.45097869258598 505.9589450503355 148.222892935324Q503.27426446492234 147.99480717806208 500.315554215604 147.99480717806208Q495.608229996854 147.99480717806208 491.7625340813758 150.16157111865562Q487.9168381658976 152.32833505924916 485.6835437749056 156.68563003027998Q483.45024938391356 161.04292500131083 483.45024938391356 167.62877254614094V215.0Z M554.0127814990561 216.98619786204907Q543.8093963008598 216.98619786204907 535.7394953170879 213.7851619029205Q527.6695943333158 210.58412594379195 522.7706301285916 204.36260560310927Q517.8716659238673 198.1410852624266 517.203267879614 189.147738340237H536.9509788564387Q537.6067127202181 195.25211501153524 541.8975062427904 198.62741396091127Q546.1882997653628 202.00271291028733 553.6389851614932 202.00271291028733Q560.8964402986052 202.00271291028733 565.0415232408766 199.14375483365666Q569.186606183148 196.28479675702602 569.186606183148 191.8530199703754Q569.186606183148 188.0706449572672 566.1296760303062 185.7613074795512Q563.0727458774643 183.45197000183515 557.7635250629194 182.35590935009438L543.5021884175754 179.416195371487Q531.5184707948824 176.90096345427852 525.3112049077181 170.8188216036598Q519.1039390205536 164.7366797530411 519.1039390205536 155.25868141123112Q519.1039390205536 147.58949539901425 523.2584765952705 141.80037948301174Q527.4130141699874 136.01126356700922 535.004581323406 132.7832944729184Q542.5961484768246 129.5553253788276 552.8280425820574 129.5553253788276Q562.9648973298553 129.5553253788276 570.6641680211828 132.95593818818162Q578.3634387125104 136.35655099753563 582.769814633363 142.57490529309982Q587.1761905542155 148.793259588664 587.413774446833 157.39378490063967H568.6227021287751Q568.5435074979026 151.82477437473784 564.3255765159657 148.1532834456271Q560.1076455340288 144.48179251651635 553.2841850946413 144.48179251651635Q546.7141532744337 144.48179251651635 542.890605173815 147.4199452240195Q539.0670570731962 150.35809793152265 539.0670570731962 154.63148545642827Q539.0670570731962 158.3853515625 542.0242060514104 160.73428635565227Q544.9813550296245 163.0832211488045 550.1733886718749 164.22363543414428L565.2329747142408 167.33440285497062Q577.6981922124055 169.9573383100881 583.563336714162 175.56273660339764Q589.4284812159185 181.16813489670722 589.4284812159185 190.33886735135277Q589.4284812159185 198.49906587536702 584.889058895239 204.4845780955065Q580.3496365745596 210.47009031564596 572.3478418132602 213.7281440888475Q564.3460470519609 216.98619786204907 554.0127814990561 216.98619786204907Z"/>
<path fill="#E9362D" d="M598.6723082267198 188.54257419253355V172.08929025534815L652.116135892932 96.99999999999999H665.1894080654886V117.84382963244546H657.8767345715536L619.7030360279467 171.54461888818278V171.7091328256082H694.1238702351615V188.54257419253355ZM657.9986283884753 215.0V183.57554726824665V176.09331742869128V96.99999999999999H677.8350466324979V215.0Z"/>
<path fill="#000000" d="M733.0656548212038 216.3526408150692Q724.7217096725566 216.3526408150692 718.2055731242135 213.5586519177328Q711.6894365758703 210.7646630203964 707.9197692461462 205.17351918060507Q704.1501019164219 199.58237534081377 704.1501019164219 191.26693909920303Q704.1501019164219 184.11724550388004 706.8332212307308 179.47486146248428Q709.5163405450397 174.8324774210885 714.1143854538066 172.05908956847736Q718.7124303625733 169.2857017158662 724.6488616328911 167.83961181640626Q730.5852929032088 166.3935219169463 737.012722184354 165.71561123636744Q744.7833086461828 164.83495766044462 749.3338338762321 164.18081406970953Q753.8843591062814 163.5266704789744 755.8388820161755 162.20253857094167Q757.7934049260696 160.87840666290896 757.7934049260696 158.02421940541106V157.4033265389052Q757.7934049260696 153.80784969457844 755.9719139150325 151.0676835642565Q754.1504229039953 148.32751743393456 750.7339363661388 146.76419685927013Q747.3174498282822 145.2008762846057 742.5118767040688 145.2008762846057Q737.6999714896182 145.2008762846057 734.0237242423448 146.75627449598886Q730.3474769950712 148.31167270737205 728.1933627339818 151.05341460976825Q726.0392484728922 153.79515651216443 725.7224699494022 157.36527599360318H706.5195797504194Q707.0295885329277 149.02769193713297 711.5278377660968 142.82042604996855Q716.0260869992659 136.6131601628041 724.019973898254 133.14285085793307Q732.0138607972419 129.67254155306208 742.9680192166526 129.67254155306208Q751.1091924680159 129.67254155306208 757.5508617017092 131.63815287135589Q763.9925309354026 133.60376418964972 768.4638470336095 137.30373502385694Q772.9351631318162 141.00370585806417 775.2666484243917 146.2289612226038Q777.5981337169673 151.45421658714343 777.5981337169673 157.97350467963506V215.0H757.9644583682885V203.1778231832005H757.6476798447986Q755.6868393456375 206.8999418322672 752.5285667470637 209.89191730678482Q749.3702941484898 212.88389278130242 744.6201920682151 214.6182667981858Q739.8700899879403 216.3526408150692 733.0656548212038 216.3526408150692ZM737.9882701080116 201.54969293991192Q744.4854683895238 201.54969293991192 748.9346511738411 199.17858132996014Q753.3838339581584 196.80746972000838 755.645637256187 192.8540412646812Q757.9074405542156 188.90061280935402 757.9074405542156 184.06337923395554V174.97811549653943Q756.9729497103083 175.5768315462458 755.1593810625524 176.12486187211618Q753.3458124147965 176.67289219798658 750.8527428134175 177.18132520842073Q748.3596732120385 177.68975821885488 745.4484536394975 178.17284836737102Q742.5372340669567 178.65593851588716 739.4581270973154 179.10259739408556Q735.1974327548237 179.70764553402893 731.5940480481856 181.09514184734164Q727.9906633415477 182.48263816065435 725.8112062185402 184.88066840459834Q723.6317490955327 187.27869864854236 723.6317490955327 191.0895825686871Q723.6317490955327 194.3429235266359 725.4025543827338 196.69819041002518Q727.1733596699349 199.05345729341443 730.3981917208473 200.30157511666317Q733.6230237717596 201.54969293991192 737.9882701080116 201.54969293991192Z M815.2757527396183 96.99999999999999V215.0H795.2556168729026V96.99999999999999Z M852.9723970349203 96.99999999999999V215.0H832.9522611682046V96.99999999999999Z M923.9341118524537 159.60180893456376V176.32121467334312H870.987802799916V159.60180893456376Z"/>
<path fill="#D946EF" d="M941.9240732487415 248.103355704698V131.37046979865772H961.6274305919671V143.04061844588927H961.8713465748216Q964.4784373033766 138.5676975736682 968.325723491899 135.60739705130555Q972.1730096804215 132.64709652894294 976.9991403464502 131.1598190410025Q981.8252710124789 129.67254155306208 987.2105059118078 129.67254155306208Q997.996820437028 129.67254155306208 1006.111104056339 135.1654799902999Q1014.22538767565 140.65841842753775 1018.7679905424181 150.45320979380767Q1023.3105934091861 160.2480011600776 1023.3105934091861 173.12821708525587Q1023.3105934091861 186.1288007288171 1018.8107539029729 195.93784654860528Q1014.3109143967596 205.74689236839345 1006.1823763239303 211.22241030699456Q998.053838251101 216.69792824559565 987.0964702836618 216.69792824559565Q981.65421757026 216.69792824559565 976.965889622221 215.11086958302747Q972.2775616741819 213.5238109204593 968.5237245700503 210.35602568555998Q964.7698874659185 207.18824045066066 962.1596161912751 202.44289468854865H961.9442091154572V248.103355704698ZM982.3860815265833 199.99121568923027Q988.6171580065015 199.99121568923027 993.2484971424076 196.86934535903418Q997.8798362783136 193.7474750288381 1000.4774433724831 187.74765035130034Q1003.0750504666526 181.74782567376258 1003.0750504666526 173.12821708525587Q1003.0750504666526 164.45792277291315 1000.4774433724831 158.48660700241192Q997.8798362783136 152.51529123191065 993.2484971424076 149.39342090171453Q988.6171580065015 146.27155057151845 982.3860815265833 146.27155057151845Q975.8793996106857 146.27155057151845 971.0183989454436 149.59616379705852Q966.1573982802013 152.92077702259857 963.4964412817218 158.94277851693582Q960.8354842832423 164.96478001127306 960.8354842832423 173.12821708525587Q960.8354842832423 181.2409684354027 963.4964412817218 187.29147883677643Q966.1573982802013 193.34198923815018 971.0183989454436 196.66660246369023Q975.8793996106857 199.99121568923027 982.3860815265833 199.99121568923027Z M1037.1160195574664 215.0V131.37046979865772H1056.3885627490563V145.25801010643875H1056.6483234584732Q1058.9449677537752 138.0513276989828 1063.8772116846685 134.30541295813234Q1068.809455615562 130.55949821728188 1076.9348131423028 130.55949821728188Q1078.9273430945889 130.55949821728188 1080.5856740247482 130.66086966495385Q1082.2440049549077 130.76224111262582 1083.4350759621434 130.8636125602978V148.60303586409395Q1082.3295316760173 148.45097869258598 1079.644851090604 148.222892935324Q1076.960170505191 147.99480717806208 1074.0014602558724 147.99480717806208Q1069.2941360371226 147.99480717806208 1065.4484401216444 150.16157111865562Q1061.602744206166 152.32833505924916 1059.369449815174 156.68563003027998Q1057.136155424182 161.04292500131083 1057.136155424182 167.62877254614094V215.0Z M1132.2286552275589 216.9006711409396Q1119.9535164442639 216.9006711409396 1110.6465860456428 211.40297638553903Q1101.3396556470218 205.90528163013843 1096.1555878709628 196.0851474019505Q1090.9715200949036 186.26501317376258 1090.9715200949036 173.28660634700083Q1090.9715200949036 160.2575137964031 1096.1555878709628 150.40094829789743Q1101.3396556470218 140.54438279939177 1110.6465860456428 135.00709072855494Q1119.9535164442639 129.46979865771812 1132.2286552275589 129.46979865771812Q1144.5829886417262 129.46979865771812 1153.8503217249108 135.00709072855494Q1163.1176548080957 140.54438279939177 1168.301722584155 150.40094829789743Q1173.485790360214 160.2575137964031 1173.485790360214 173.28660634700083Q1173.485790360214 186.26501317376258 1168.301722584155 196.0851474019505Q1163.1176548080957 205.90528163013843 1153.8503217249108 211.40297638553903Q1144.5829886417262 216.9006711409396 1132.2286552275589 216.9006711409396ZM1132.2286552275589 200.20029067481124Q1138.6656551489095 200.20029067481124 1143.376188915688 196.94694971686243Q1148.0867226824664 193.6936087589136 1150.6684850500733 187.6320099491401Q1153.2502474176804 181.5704111393666 1153.2502474176804 173.28660634700083Q1153.2502474176804 164.8729211999266 1150.6684850500733 158.82557684367134Q1148.0867226824664 152.77823248741612 1143.376188915688 149.4742058056313Q1138.6656551489095 146.17017912384648 1132.2286552275589 146.17017912384648Q1125.8708499370807 146.17017912384648 1121.120718854866 149.4488629437133Q1116.370587772651 152.7275467635801 1113.788825405044 158.80023398175337Q1111.2070630374371 164.8729211999266 1111.2070630374371 173.28660634700083Q1111.2070630374371 181.62109686320258 1113.788825405044 187.6573528110581Q1116.370587772651 193.6936087589136 1121.095375992948 196.94694971686243Q1125.8201642132447 200.20029067481124 1132.2286552275589 200.20029067481124Z M1211.2935507550335 215.0 1179.8374085701553 131.37046979865772H1201.0232870831585L1216.257281125472 174.9593802432886Q1218.610943234847 181.8904572147651 1220.7412759051226 188.8215341862416Q1222.8716085753986 195.75261115771812 1224.9370010683201 202.68368812919462H1220.1505402225775Q1222.2381095322987 195.75261115771812 1224.31459043362 188.8215341862416Q1226.3910713349412 181.8904572147651 1228.6655388134438 174.9593802432886L1243.6619489631398 131.37046979865772H1264.581734676489L1233.1255924916109 215.0Z M1274.8583014366611 215.0V131.37046979865772H1294.8784373033768V215.0ZM1284.8398604629824 118.93358719588926Q1279.7271084574245 118.93358719588926 1276.3075138783295 115.6599563642797Q1272.8879192992345 112.38632553267013 1272.8879192992345 107.55806576790289Q1272.8879192992345 102.72416123767826 1276.3075138783295 99.47562010080222Q1279.7271084574245 96.22707896392616 1284.8029542272361 96.22707896392616Q1289.9444670665298 96.22707896392616 1293.36813434663 99.47256557504829Q1296.7918016267304 102.71805218617044 1296.7918016267304 107.59497305416396Q1296.7918016267304 112.40799601510066 1293.3631061160986 115.67079160549497Q1289.9344106054666 118.93358719588926 1284.8398604629824 118.93358719588926Z M1344.8916834888844 216.69792824559565Q1334.0135101523176 216.69792824559565 1325.8453747640522 211.22241030699456Q1317.6772393757867 205.74689236839345 1313.1773998695735 195.93784654860528Q1308.67756036336 186.1288007288171 1308.67756036336 173.12821708525587Q1308.67756036336 160.2480011600776 1313.220163230128 150.45320979380767Q1317.7627660968963 140.65841842753775 1325.9166470316436 135.1654799902999Q1334.0705279663907 129.67254155306208 1344.7776478607384 129.67254155306208Q1350.2420773909398 129.67254155306208 1354.94941611066 131.1598190410025Q1359.65675483038 132.64709652894294 1363.4533552950663 135.63590595834205Q1367.2499557597528 138.6247153877412 1369.9140643023807 143.2116718881082H1370.043944657089V96.99999999999999H1390.0640805238047V215.0H1370.360723180579V202.2148234322567H1370.2308428258707Q1367.6205715512272 207.07420482251467 1363.7732853627047 210.299007871487Q1359.9259991741822 213.5238109204593 1355.155310550152 215.11086958302747Q1350.3846219261222 216.69792824559565 1344.8916834888844 216.69792824559565ZM1349.602072245963 199.99121568923027Q1356.137263068897 199.99121568923027 1360.984009280621 196.66660246369023Q1365.830755492345 193.34198923815018 1368.4917124908243 187.29147883677643Q1371.152669489304 181.2409684354027 1371.152669489304 173.12821708525587Q1371.152669489304 164.96478001127306 1368.4917124908243 158.94277851693582Q1365.830755492345 152.92077702259857 1360.984009280621 149.59616379705852Q1356.137263068897 146.27155057151845 1349.602072245963 146.27155057151845Q1343.4501903969172 146.27155057151845 1338.779253945575 149.39342090171453Q1334.1083174942326 152.51529123191065 1331.510710400063 158.48660700241192Q1328.9131033058936 164.45792277291315 1328.9131033058936 173.12821708525587Q1328.9131033058936 181.74782567376258 1331.510710400063 187.74765035130034Q1334.1083174942326 193.7474750288381 1338.779253945575 196.86934535903418Q1343.4501903969172 199.99121568923027 1349.602072245963 199.99121568923027Z M1444.6990081991928 216.9006711409396Q1432.1672602506294 216.9006711409396 1422.996542296954 211.29210680251154Q1413.8258243432783 205.68354246408347 1408.8476655076815 195.80955646694105Q1403.869506672085 185.93557046979865 1403.869506672085 173.28660634700083Q1403.869506672085 160.50776186949454 1408.9854682256714 150.6226874639524Q1414.1014297792578 140.73761305841023 1423.1248468795882 135.1037058580642Q1432.1482639799185 129.46979865771812 1443.862708256869 129.46979865771812Q1452.9162245372802 129.46979865771812 1460.2813107074512 132.6233294390992Q1467.646396877622 135.77686022048027 1472.94925659999 141.59449954448928Q1478.2521163223578 147.41213886849832 1481.1046988058415 155.37912163446413Q1483.957281289325 163.34610440042994 1483.957281289325 172.97300836959943V178.40569044279573H1411.7952728476303V164.6195795865667H1473.953516444264L1465.0078197095222 168.3163988766254Q1465.0078197095222 161.2458419082949 1462.4577322940702 156.0902250353922Q1459.9076448786182 150.9346081624895 1455.2477968356757 148.13109212785758Q1450.5879487927332 145.32757609322567 1444.1763062342704 145.32757609322567Q1437.8438583066802 145.32757609322567 1433.1950986721374 148.13109212785758Q1428.5463390375946 150.9346081624895 1425.9962516221426 156.0902250353922Q1423.4461642066908 161.2458419082949 1423.4461642066908 168.3163988766254V177.01184753827602Q1423.4461642066908 184.1901080445155 1425.9883292588615 189.6450829422714Q1428.5304943110323 195.10005784002726 1433.3914949762743 198.13482567703966Q1438.2524956415166 201.16959351405202 1445.1551507117767 201.16959351405202Q1450.182463002045 201.16959351405202 1454.0551065534555 199.66488102650482Q1457.9277501048662 198.16016853895763 1460.5126785175917 195.44693554359793Q1463.097606930317 192.73370254823826 1464.2221764890942 189.147738340237H1482.9309026321312Q1481.375518921718 197.34595840761324 1476.0156413852771 203.58965556509543Q1470.6557638488364 209.8333527225776 1462.5731841836205 213.3670119317586Q1454.4906045184043 216.9006711409396 1444.6990081991928 216.9006711409396Z M1497.4744088192117 215.0V131.37046979865772H1516.7469520108016V145.25801010643875H1517.0067127202185Q1519.3033570155205 138.0513276989828 1524.2356009464138 134.30541295813234Q1529.1678448773073 130.55949821728188 1537.293202404048 130.55949821728188Q1539.2857323563342 130.55949821728188 1540.9440632864935 130.66086966495385Q1542.602394216653 130.76224111262582 1543.7934652238887 130.8636125602978V148.60303586409395Q1542.6879209377626 148.45097869258598 1540.0032403523494 148.222892935324Q1537.3185597669362 147.99480717806208 1534.3598495176177 147.99480717806208Q1529.6525252988679 147.99480717806208 1525.8068293833896 150.16157111865562Q1521.9611334679114 152.32833505924916 1519.7278390769193 156.68563003027998Q1517.4945446859274 161.04292500131083 1517.4945446859274 167.62877254614094V215.0Z M1588.05707680107 216.98619786204907Q1577.8536916028738 216.98619786204907 1569.7837906191016 213.7851619029205Q1561.7138896353297 210.58412594379195 1556.8149254306054 204.36260560310927Q1551.9159612258813 198.1410852624266 1551.2475631816278 189.147738340237H1570.9952741584525Q1571.651008022232 195.25211501153524 1575.9418015448043 198.62741396091127Q1580.2325950673767 202.00271291028733 1587.6832804635071 202.00271291028733Q1594.940735600619 202.00271291028733 1599.0858185428906 199.14375483365666Q1603.230901485162 196.28479675702602 1603.230901485162 191.8530199703754Q1603.230901485162 188.0706449572672 1600.17397133232 185.7613074795512Q1597.117041179478 183.45197000183515 1591.8078203649334 182.35590935009438L1577.5464837195893 179.416195371487Q1565.5627660968964 176.90096345427852 1559.3555002097319 170.8188216036598Q1553.1482343225675 164.7366797530411 1553.1482343225675 155.25868141123112Q1553.1482343225675 147.58949539901425 1557.3027718972844 141.80037948301174Q1561.4573094720013 136.01126356700922 1569.0488766254198 132.7832944729184Q1576.6404437788385 129.5553253788276 1586.8723378840714 129.5553253788276Q1597.0091926318692 129.5553253788276 1604.7084633231966 132.95593818818162Q1612.4077340145243 136.35655099753563 1616.814109935377 142.57490529309982Q1621.2204858562295 148.793259588664 1621.4580697488468 157.39378490063967H1602.666997430789Q1602.5878027999165 151.82477437473784 1598.3698718179796 148.1532834456271Q1594.1519408360427 144.48179251651635 1587.328480396655 144.48179251651635Q1580.7584485764476 144.48179251651635 1576.9349004758287 147.4199452240195Q1573.1113523752101 150.35809793152265 1573.1113523752101 154.63148545642827Q1573.1113523752101 158.3853515625 1576.0685013534244 160.73428635565227Q1579.0256503316384 163.0832211488045 1584.2176839738888 164.22363543414428L1599.2772700162545 167.33440285497062Q1611.7424875144195 169.9573383100881 1617.607632016176 175.56273660339764Q1623.4727765179325 181.16813489670722 1623.4727765179325 190.33886735135277Q1623.4727765179325 198.49906587536702 1618.9333541972528 204.4845780955065Q1614.3939318765733 210.47009031564596 1606.3921371152742 213.7281440888475Q1598.3903423539748 216.98619786204907 1588.05707680107 216.98619786204907Z"/>
</svg>
