<svg xmlns="http://www.w3.org/2000/svg" xmlns:xlink="http://www.w3.org/1999/xlink" width="288.00" height="406.00" viewBox="0 0 288.0000 406.0000">
<defs><defs
     id="defs1">
    <clipPath
       clipPathUnits="userSpaceOnUse"
       id="nirs4all_providers_clip">
      <path
         d="M 75.196094,-0.47997507 H 381.42019 V 303.18425 H 75.196094 Z"
         id="path1" />
    </clipPath>
  </defs></defs><g transform="translate(24.0,24.0) scale(0.7810408580046241) translate(0,0)"><g
     id="g8"
     transform="translate(-0.25127103,1.1057433)">
    <g
       id="g9">
      <path
         style="fill:#D946EF;fill-opacity:1;fill-rule:evenodd;stroke:none"
         d="M 1.5315373,35.750606 C 1.5315373,16.791591 16.89074,1.4323885 35.849755,1.4323885 H 269.47762 c 18.91901,0 34.27821,15.3592025 34.27821,34.3182175 V 269.53846 c 0,18.91902 -15.3592,34.27822 -34.27821,34.27822 H 35.849755 c -18.959015,0 -34.3182177,-15.3592 -34.3182177,-34.27822 z"
         id="path2"
         transform="matrix(1.0163665,0,0,1.019436,-1.1937273,-2.5659717)" />
      <path
         style="fill:none;stroke:#ffffff;stroke-width:19.359px;stroke-linecap:butt;stroke-linejoin:miter;stroke-miterlimit:8;stroke-dasharray:none;stroke-opacity:1"
         clip-path="url(#nirs4all_providers_clip)"
         d="m 78.350886,215.76355 c 4.917688,0.027 13.251861,-0.0312 22.323884,-1.53468 6.67965,-1.47992 11.15942,-3.51981 16.79913,-8.67955 5.6797,-5.15973 10.19947,-8.15957 17.11911,-22.35883 6.95964,-14.15927 19.159,-49.59743 24.47873,-62.67675 5.27972,-13.11932 3.63981,-9.91948 7.31962,-15.83918 3.67981,-5.959687 11.4794,-8.59955 16.51914,-6.839641 5.03974,1.759908 9.39951,4.999741 13.71929,17.319101 4.35977,12.35936 6.23967,27.03859 9.4795,37.67804 3.27983,10.67945 4.39978,18.47904 10.11948,26.35863 5.6797,7.87959 12.48129,8.96263 20.43894,4.99974 6.87614,-5.69367 24.35873,-49.63742 26.59862,-51.67731 2.23988,-2.0399 14.71923,-18.23906 34.23822,6.47966 8.91953,11.39941 25.55867,37.55805 38.79798,52.55727"
         id="path3"
         transform="translate(-78.046472,1.0051295)" />
      <path
         style="fill:#ffffff;fill-opacity:1;fill-rule:evenodd;stroke:none"
         d="m 245.65157,200.51477 c 0,-13.5593 10.99943,-24.55873 24.55873,-24.55873 13.59929,0 24.55872,10.99943 24.55872,24.55873 0,13.59929 -10.95943,24.55872 -24.55872,24.55872 -13.5593,0 -24.55873,-10.95943 -24.55873,-24.55872 z"
         id="path4" />
    </g>
  </g></g>
<path fill="#FFFFFF" d="M55.062292562395115 345.7753843985948V382.0H36.897235476090586V316.7973154362416H54.78197177144503V333.7709592268771H51.6848496814702Q54.79556516096894 325.10813365142616 60.52364501953123 320.2685930290478Q66.25172487809351 315.4290524066695 75.13677806470216 315.4290524066695Q82.11023965105912 315.4290524066695 87.24372837143454 318.4335570469799Q92.37721709180997 321.43806168729026 95.20206626533661 327.1803435664849Q98.02691543886324 332.9226254456795 98.02691543886324 341.1618927616401V382.0H79.8618583525587V344.50342452286077Q79.8618583525587 337.9447968553377 76.73443849294776 334.53705620477666Q73.6070186333368 331.1293155542156 67.85973203518245 331.1293155542156Q64.10559737442321 331.1293155542156 61.215892243865326 332.6766593369862Q58.32618711330745 334.22400311975673 56.694239837851285 337.46317933357807Q55.062292562395115 340.70235554739935 55.062292562395115 345.7753843985948Z"/>
<path fill="#E9362D" d="M108.09405083368287 362.1723586933725V347.4995100802223L148.58407383861157 290.0H160.47718169961198V308.14044050178273H153.90091094643867L126.39132219352976 347.2947362972821V347.4253889864723H183.88089067087876V362.1723586933725ZM153.98171976588714 382.0V357.72185206061243V351.1325214974832V290.0H171.87017568293834V382.0Z"/>
<path fill="#D946EF" d="M212.4406774328859 382.0 188.24895887950925 316.7973154362416H207.34512734637164L218.12222810271604 349.00370700503356Q219.9795139799182 354.7632340604027 221.66823542038065 360.5227611157718Q223.35695686084313 366.2822881711409 225.00060379745176 372.04181522651004H220.66865021366402Q222.30736026635907 366.2822881711409 223.94853876101092 360.5227611157718Q225.58971725566275 354.7632340604027 227.38525816642198 349.00370700503356L237.9771240234375 316.7973154362416H256.8547166657928L232.66299811241612 382.0Z"/>
</svg>
